<?xml version="1.0" encoding="utf-8"?>
<!-- Generator: Adobe Illustrator 19.2.1, SVG Export Plug-In . SVG Version: 6.00 Build 0)  -->
<svg version="1.1" id="Layer_1" xmlns="http://www.w3.org/2000/svg" xmlns:xlink="http://www.w3.org/1999/xlink" x="0px" y="0px"
	 width="264px" height="60px" viewBox="0 0 264 60" style="enable-background:new 0 0 264 60;" xml:space="preserve">
<style type="text/css">
	.st0{fill:#FFFFFF;}
</style>
<g>
	<path class="st0" d="M37.6,22.8h-7.1v-2.2c0-1-0.1-1.7-0.3-2c-0.2-0.3-0.5-0.4-0.9-0.4c-0.5,0-0.8,0.2-1,0.6
		c-0.2,0.4-0.4,0.9-0.4,1.7c0,1,0.1,1.7,0.4,2.2c0.3,0.5,1,1.1,2.2,1.8c3.4,2,5.6,3.7,6.5,5c0.9,1.3,1.3,3.4,1.3,6.3
		c0,2.1-0.2,3.7-0.7,4.7c-0.5,1-1.4,1.8-2.9,2.5c-1.4,0.7-3.1,1-4.9,1c-2.1,0-3.8-0.4-5.3-1.2c-1.5-0.8-2.4-1.8-2.9-3
		c-0.4-1.2-0.7-2.9-0.7-5.1v-1.9h7.1v3.6c0,1.1,0.1,1.8,0.3,2.1c0.2,0.3,0.6,0.5,1.1,0.5c0.5,0,0.9-0.2,1.1-0.6
		c0.2-0.4,0.4-1,0.4-1.8c0-1.7-0.2-2.9-0.7-3.4c-0.5-0.5-1.7-1.4-3.6-2.7c-1.9-1.3-3.2-2.2-3.8-2.8c-0.6-0.6-1.1-1.4-1.5-2.4
		c-0.4-1-0.6-2.3-0.6-3.9c0-2.3,0.3-3.9,0.9-5c0.6-1,1.5-1.9,2.8-2.5c1.3-0.6,2.8-0.9,4.7-0.9c2,0,3.7,0.3,5.1,1
		c1.4,0.6,2.3,1.5,2.8,2.4c0.5,1,0.7,2.6,0.7,5V22.8z"/>
	<path class="st0" d="M58.2,13.9v29.5h-6.7l-4-13.4v13.4H41V13.9h6.4l4.3,13.3V13.9H58.2z"/>
	<path class="st0" d="M69.3,13.9v29.5h-7.7V13.9H69.3z"/>
	<path class="st0" d="M90.7,26.7H83v-5.1c0-1.5-0.1-2.4-0.2-2.8c-0.2-0.4-0.5-0.6-1.1-0.6c-0.6,0-1,0.2-1.2,0.7
		c-0.2,0.5-0.3,1.4-0.3,2.9v13.7c0,1.4,0.1,2.4,0.3,2.8c0.2,0.4,0.6,0.7,1.1,0.7c0.6,0,0.9-0.2,1.1-0.7c0.2-0.4,0.3-1.5,0.3-3.1
		v-3.7h7.7v1.2c0,3.1-0.2,5.2-0.6,6.5c-0.4,1.3-1.4,2.4-2.9,3.4c-1.5,1-3.3,1.4-5.5,1.4c-2.3,0-4.1-0.4-5.6-1.2
		c-1.5-0.8-2.4-1.9-2.9-3.4c-0.5-1.4-0.7-3.6-0.7-6.5v-8.6c0-2.1,0.1-3.7,0.2-4.8c0.1-1.1,0.6-2.1,1.3-3.1c0.7-1,1.7-1.8,3-2.3
		c1.3-0.6,2.8-0.8,4.4-0.8c2.3,0,4.1,0.4,5.6,1.3c1.5,0.9,2.4,2,2.9,3.3c0.5,1.3,0.7,3.3,0.7,6.1V26.7z"/>
	<path class="st0" d="M112.1,13.9l-4.4,13.3l4.8,16.2h-7.9l-3.1-12.7v12.7h-7.7V13.9h7.7v11.5l3.4-11.5H112.1z"/>
	<path class="st0" d="M114.3,13.9h12.8v5.9h-5.1v5.6h4.8V31h-4.8v6.5h5.6v5.9h-13.3V13.9z"/>
	<path class="st0" d="M130.2,13.9h5.4c3.6,0,6.1,0.1,7.4,0.4c1.3,0.3,2.3,1,3.1,2.1c0.8,1.1,1.2,3,1.2,5.5c0,2.3-0.3,3.8-0.9,4.6
		c-0.6,0.8-1.7,1.3-3.4,1.4c1.5,0.4,2.5,0.9,3.1,1.5c0.5,0.6,0.8,1.2,1,1.7c0.1,0.5,0.2,2,0.2,4.4v7.8h-7.1v-9.8
		c0-1.6-0.1-2.6-0.4-2.9c-0.2-0.4-0.9-0.6-2-0.6v13.3h-7.7V13.9z M137.8,18.9v6.6c0.9,0,1.5-0.1,1.8-0.4c0.3-0.2,0.5-1,0.5-2.3v-1.6
		c0-0.9-0.2-1.6-0.5-1.8C139.3,19.1,138.7,18.9,137.8,18.9z"/>
	<path class="st0" d="M166.9,22.8h-7.1v-2.2c0-1-0.1-1.7-0.3-2c-0.2-0.3-0.5-0.4-0.9-0.4c-0.5,0-0.8,0.2-1,0.6s-0.4,0.9-0.4,1.7
		c0,1,0.1,1.7,0.4,2.2c0.3,0.5,1,1.1,2.2,1.8c3.4,2,5.6,3.7,6.5,5c0.9,1.3,1.3,3.4,1.3,6.3c0,2.1-0.2,3.7-0.7,4.7
		c-0.5,1-1.4,1.8-2.9,2.5c-1.4,0.7-3.1,1-4.9,1c-2.1,0-3.8-0.4-5.3-1.2c-1.5-0.8-2.4-1.8-2.9-3c-0.5-1.2-0.7-2.9-0.7-5.1v-1.9h7.1
		v3.6c0,1.1,0.1,1.8,0.3,2.1c0.2,0.3,0.6,0.5,1.1,0.5c0.5,0,0.9-0.2,1.1-0.6c0.2-0.4,0.4-1,0.4-1.8c0-1.7-0.2-2.9-0.7-3.4
		c-0.5-0.5-1.7-1.4-3.6-2.7c-1.9-1.3-3.2-2.2-3.8-2.8c-0.6-0.6-1.1-1.4-1.5-2.4c-0.4-1-0.6-2.3-0.6-3.9c0-2.3,0.3-3.9,0.9-5
		c0.6-1,1.5-1.9,2.8-2.5s2.8-0.9,4.7-0.9c2,0,3.7,0.3,5.1,1c1.4,0.6,2.3,1.5,2.8,2.4s0.7,2.6,0.7,5V22.8z"/>
	<path class="st0" d="M187.5,13.9v29.5h-6.7l-4-13.4v13.4h-6.4V13.9h6.4l4.3,13.3V13.9H187.5z"/>
	<path class="st0" d="M198.6,13.9v29.5H191V13.9H198.6z"/>
	<path class="st0" d="M206.8,37.4v6h-5.6v-6H206.8z"/>
	<path class="st0" d="M227.7,13.9l-4.4,13.3l4.8,16.2h-7.9l-3.1-12.7v12.7h-7.7V13.9h7.7v11.5l3.4-11.5H227.7z"/>
	<path class="st0" d="M243.3,13.9v5.9l-5.7,17.7h5.7v5.9h-14.2v-4.3l5.9-19.3h-5.2v-5.9H243.3z"/>
</g>
</svg>
