<?xml version="1.0" encoding="utf-8"?>
<!-- Generator: Adobe Illustrator 19.2.1, SVG Export Plug-In . SVG Version: 6.00 Build 0)  -->
<svg version="1.1" id="Layer_1" xmlns="http://www.w3.org/2000/svg" xmlns:xlink="http://www.w3.org/1999/xlink" x="0px" y="0px"
	 width="300px" height="600px" viewBox="0 0 300 600" style="enable-background:new 0 0 300 600;" xml:space="preserve">
<style type="text/css">
	.st0{fill:#FFFFFF;}
</style>
<g>
	<path class="st0" d="M98.4,106.7l4.1,27.3h-7.2l-0.4-4.9h-2.5l-0.4,4.9h-7.3l3.6-27.3H98.4z M94.6,124.3c-0.4-3.1-0.7-6.9-1.1-11.5
		c-0.7,5.2-1.2,9-1.4,11.5H94.6z"/>
	<path class="st0" d="M127,118.6h-7.1v-4.7c0-1.4-0.1-2.2-0.2-2.6c-0.2-0.3-0.5-0.5-1-0.5c-0.6,0-1,0.2-1.1,0.6s-0.2,1.3-0.2,2.7
		v12.7c0,1.3,0.1,2.2,0.2,2.6s0.5,0.6,1.1,0.6c0.5,0,0.9-0.2,1-0.6c0.2-0.4,0.2-1.4,0.2-2.9v-3.4h7.1v1.1c0,2.8-0.2,4.8-0.6,6
		c-0.4,1.2-1.3,2.2-2.6,3.1s-3,1.3-5,1.3c-2.1,0-3.8-0.4-5.1-1.1c-1.3-0.8-2.2-1.8-2.7-3.1s-0.7-3.3-0.7-6v-8c0-2,0.1-3.4,0.2-4.4
		s0.5-1.9,1.2-2.8c0.7-0.9,1.6-1.6,2.8-2.1s2.5-0.8,4.1-0.8c2.1,0,3.8,0.4,5.2,1.2c1.4,0.8,2.3,1.8,2.7,3c0.4,1.2,0.6,3.1,0.6,5.6
		V118.6z"/>
	<path class="st0" d="M150.6,106.7v5.5h-4.2V134h-7.1v-21.8h-4.2v-5.5H150.6z"/>
	<path class="st0" d="M152.6,106.7h11.8v5.5h-4.7v5.2h4.4v5.2h-4.4v6h5.2v5.5h-12.3V106.7z"/>
	<path class="st0" d="M189.1,106.7V134h-6.2l0-18.4l-2.5,18.4H176l-2.6-18l0,18h-6.2v-27.3h9.2c0.3,1.6,0.6,3.6,0.8,5.8l1,6.9
		l1.6-12.7H189.1z"/>
	<path class="st0" d="M208.1,134h-5.9v-12.4l-3.7,12.4h-6.2v-27.3h5.9V119l4-12.3h5.9V134z"/>
	<path class="st0" d="M215.1,128.7v2.4c0,1.3-0.2,2.3-0.5,3.2c-0.3,0.8-0.8,1.5-1.6,2.1s-1.6,1-2.5,1.1v-2c0.7-0.4,1.1-0.9,1.1-1.5
		h-1.1v-5.3H215.1z"/>
	<path class="st0" d="M46.5,145.8h7.1l0,11.5c1.3,0,2-0.8,2.1-2.2l0.1-5.3c0-2,0.4-3.3,1.1-4h6.6c-0.6,0.7-1,2-0.9,4.1l0,4.7
		c0,2.8-1.6,4.4-4.8,4.8c3.2,0.4,4.8,2,4.8,4.9l0,4.3c0,2.1,0.3,3.5,0.9,4.4h-6.6c-0.8-0.7-1.1-2-1.1-4v-5.3c0-0.7-0.2-1.2-0.6-1.6
		c-0.4-0.4-0.9-0.6-1.6-0.6l0,11.6h-7.1V145.8z"/>
	<path class="st0" d="M79.6,145.8v5.5h-4.2V173h-7.1v-21.8h-4.2v-5.5H79.6z"/>
	<path class="st0" d="M97.8,161.7c0,2.7-0.1,4.7-0.2,5.8c-0.1,1.1-0.5,2.2-1.2,3.1s-1.6,1.7-2.8,2.2c-1.2,0.5-2.5,0.8-4,0.8
		c-1.5,0-2.8-0.2-3.9-0.7c-1.2-0.5-2.1-1.2-2.8-2.1c-0.7-1-1.1-2-1.3-3.1s-0.2-3.1-0.2-5.9v-4.7c0-2.7,0.1-4.7,0.2-5.8
		c0.1-1.1,0.5-2.2,1.2-3.1s1.6-1.7,2.8-2.2c1.2-0.5,2.5-0.8,4-0.8c1.5,0,2.8,0.2,3.9,0.7c1.2,0.5,2.1,1.2,2.8,2.1
		c0.7,1,1.1,2,1.3,3.1s0.2,3.1,0.2,5.9V161.7z M90.7,152.8c0-1.3-0.1-2.1-0.2-2.4c-0.1-0.4-0.4-0.5-0.9-0.5c-0.4,0-0.7,0.1-0.9,0.4
		c-0.2,0.3-0.3,1.1-0.3,2.5v12.7c0,1.6,0.1,2.6,0.2,2.9c0.1,0.4,0.4,0.6,0.9,0.6c0.5,0,0.8-0.2,0.9-0.6s0.2-1.4,0.2-3V152.8z"/>
	<path class="st0" d="M107.2,145.8h7.1l0,11.5c1.3,0,2-0.8,2.1-2.2l0.1-5.3c0-2,0.4-3.3,1.1-4h6.6c-0.6,0.7-1,2-0.9,4.1l0,4.7
		c0,2.8-1.6,4.4-4.8,4.8c3.2,0.4,4.8,2,4.8,4.9l0,4.3c0,2.1,0.3,3.5,0.9,4.4h-6.6c-0.8-0.7-1.1-2-1.1-4v-5.3c0-0.7-0.2-1.2-0.6-1.6
		c-0.4-0.4-0.9-0.6-1.6-0.6l0,11.6h-7.1V145.8z"/>
	<path class="st0" d="M138.3,145.8l4.1,27.3h-7.2l-0.4-4.9h-2.5l-0.4,4.9h-7.3l3.6-27.3H138.3z M134.5,163.3
		c-0.4-3.1-0.7-6.9-1.1-11.5c-0.7,5.2-1.2,9-1.4,11.5H134.5z"/>
	<path class="st0" d="M153.6,162.6c-0.6,0.6-1.3,1.1-2.2,1.5s-1.9,0.5-2.8,0.5c-1.7,0-2.9-0.5-3.7-1.4c-0.8-0.9-1.2-2.4-1.2-4.4v-13
		h7.1V158c0,1.1,0.1,1.8,0.3,2.2c0.2,0.4,0.5,0.6,0.9,0.6c1.1,0,1.6-0.9,1.6-2.7v-12.3h7.1V173h-7.1V162.6z"/>
	<path class="st0" d="M176.1,145.8l4.1,27.3h-7.2l-0.4-4.9H170l-0.4,4.9h-7.3l3.6-27.3H176.1z M172.3,163.3
		c-0.4-3.1-0.7-6.9-1.1-11.5c-0.7,5.2-1.2,9-1.4,11.5H172.3z"/>
	<path class="st0" d="M181.7,145.8h11.8v5.5h-4.7v5.2h4.4v5.2h-4.4v6h5.2v5.5h-12.3V145.8z"/>
	<path class="st0" d="M210.7,145.8v5.5h-4.2V173h-7.1v-21.8h-4.2v-5.5H210.7z"/>
	<path class="st0" d="M229.2,157.6h-7.1v-4.7c0-1.4-0.1-2.2-0.2-2.6c-0.2-0.3-0.5-0.5-1-0.5c-0.6,0-1,0.2-1.1,0.6
		c-0.2,0.4-0.2,1.3-0.2,2.7v12.7c0,1.3,0.1,2.2,0.2,2.6s0.5,0.6,1.1,0.6c0.5,0,0.9-0.2,1-0.6s0.2-1.4,0.2-2.9v-3.4h7.1v1.1
		c0,2.8-0.2,4.8-0.6,6c-0.4,1.2-1.3,2.2-2.6,3.1c-1.4,0.9-3,1.3-5,1.3c-2.1,0-3.8-0.4-5.1-1.1c-1.3-0.8-2.2-1.8-2.7-3.1
		c-0.4-1.3-0.7-3.3-0.7-6v-8c0-2,0.1-3.4,0.2-4.4s0.5-1.9,1.2-2.8c0.7-0.9,1.6-1.6,2.8-2.1c1.2-0.5,2.5-0.8,4.1-0.8
		c2.1,0,3.8,0.4,5.2,1.2c1.4,0.8,2.3,1.8,2.7,3c0.4,1.2,0.6,3.1,0.6,5.6V157.6z"/>
	<path class="st0" d="M247.9,173h-7.1v-12.3c-0.9,0-1.5,0.1-1.7,0.4s-0.4,1-0.4,2v9.9h-6.6v-8.1c0-1.4,0.1-2.4,0.2-3.2
		c0.2-0.7,0.5-1.3,1.1-1.8s1.4-0.9,2.6-1.2c-1.6-0.1-2.7-0.6-3.2-1.4c-0.5-0.8-0.7-2.2-0.7-4.2c0-1.8,0.2-3.2,0.7-4.3
		c0.4-1,1.1-1.8,2-2.2s1.8-0.7,2.9-0.8c1.1-0.1,2.9-0.1,5.2-0.1h5V173z M240.8,156.5v-6h-0.3c-0.6,0-1,0.1-1.3,0.4
		c-0.3,0.3-0.5,0.8-0.5,1.7v1.5c0,1,0.1,1.7,0.4,2C239.3,156.3,239.9,156.5,240.8,156.5z"/>
	<path class="st0" d="M254.8,167.7v2.4c0,1.3-0.2,2.3-0.5,3.2c-0.3,0.8-0.8,1.5-1.6,2.1s-1.6,1-2.5,1.1v-2c0.7-0.4,1.1-0.9,1.1-1.5
		h-1.1v-5.3H254.8z"/>
	<path class="st0" d="M26.5,184.8v5.5h-4.2v21.8h-7.1v-21.8H11v-5.5H26.5z"/>
	<path class="st0" d="M40.7,184.8l4.1,27.3h-7.2l-0.4-4.9h-2.5l-0.4,4.9h-7.3l3.6-27.3H40.7z M37,202.3c-0.4-3.1-0.7-6.9-1.1-11.5
		c-0.7,5.2-1.2,9-1.4,11.5H37z"/>
	<path class="st0" d="M46.3,184.8h7.1l0,11.5c1.3,0,2-0.8,2.1-2.2l0.1-5.3c0-2,0.4-3.3,1.1-4h6.6c-0.6,0.7-1,2-0.9,4.1l0,4.7
		c0,2.8-1.6,4.4-4.8,4.8c3.2,0.4,4.8,2,4.8,4.9l0,4.3c0,2.1,0.3,3.5,0.9,4.4h-6.6c-0.8-0.7-1.1-2-1.1-4v-5.3c0-0.7-0.2-1.2-0.6-1.6
		c-0.4-0.4-0.9-0.6-1.6-0.6l0,11.6h-7.1V184.8z"/>
	<path class="st0" d="M81.4,200.8c0,2.7-0.1,4.7-0.2,5.8c-0.1,1.1-0.5,2.2-1.2,3.1s-1.6,1.7-2.8,2.2c-1.2,0.5-2.5,0.8-4,0.8
		c-1.5,0-2.8-0.2-3.9-0.7c-1.2-0.5-2.1-1.2-2.8-2.1c-0.7-1-1.1-2-1.3-3.1s-0.2-3.1-0.2-5.9v-4.7c0-2.7,0.1-4.7,0.2-5.8
		c0.1-1.1,0.5-2.2,1.2-3.1s1.6-1.7,2.8-2.2c1.2-0.5,2.5-0.8,4-0.8c1.5,0,2.8,0.2,3.9,0.7c1.2,0.5,2.1,1.2,2.8,2.1
		c0.7,1,1.1,2,1.3,3.1s0.2,3.1,0.2,5.9V200.8z M74.3,191.8c0-1.3-0.1-2.1-0.2-2.4c-0.1-0.4-0.4-0.5-0.9-0.5c-0.4,0-0.7,0.1-0.9,0.4
		c-0.2,0.3-0.3,1.1-0.3,2.5v12.7c0,1.6,0.1,2.6,0.2,2.9c0.1,0.4,0.4,0.6,0.9,0.6c0.5,0,0.8-0.2,0.9-0.6s0.2-1.4,0.2-3V191.8z"/>
	<path class="st0" d="M96.7,190.3h-5.2v21.8h-7.1v-27.3h12.3V190.3z"/>
	<path class="st0" d="M115.1,200.8c0,2.7-0.1,4.7-0.2,5.8c-0.1,1.1-0.5,2.2-1.2,3.1s-1.6,1.7-2.8,2.2c-1.2,0.5-2.5,0.8-4,0.8
		c-1.5,0-2.8-0.2-3.9-0.7c-1.2-0.5-2.1-1.2-2.8-2.1c-0.7-1-1.1-2-1.3-3.1s-0.2-3.1-0.2-5.9v-4.7c0-2.7,0.1-4.7,0.2-5.8
		c0.1-1.1,0.5-2.2,1.2-3.1s1.6-1.7,2.8-2.2c1.2-0.5,2.5-0.8,4-0.8c1.5,0,2.8,0.2,3.9,0.7c1.2,0.5,2.1,1.2,2.8,2.1
		c0.7,1,1.1,2,1.3,3.1s0.2,3.1,0.2,5.9V200.8z M108,191.8c0-1.3-0.1-2.1-0.2-2.4c-0.1-0.4-0.4-0.5-0.9-0.5c-0.4,0-0.7,0.1-0.9,0.4
		c-0.2,0.3-0.3,1.1-0.3,2.5v12.7c0,1.6,0.1,2.6,0.2,2.9c0.1,0.4,0.4,0.6,0.9,0.6c0.5,0,0.8-0.2,0.9-0.6s0.2-1.4,0.2-3V191.8z"/>
	<path class="st0" d="M140.9,184.8v27.3h-7.1v-11.5h-2.1v11.5h-7.1v-27.3h7.1v9.8h2.1v-9.8H140.9z"/>
	<path class="st0" d="M144.1,184.8h11.8v5.5h-4.7v5.2h4.4v5.2h-4.4v6h5.2v5.5h-12.3V184.8z"/>
	<path class="st0" d="M181.7,205.7c0,2-0.3,3.5-0.8,4.4c-0.5,0.9-1.3,1.4-2.4,1.7c-1.1,0.2-2.8,0.3-5.1,0.3h-8.2v-27.3h13.9v4.7
		h-6.8v4.6h1.1c2.2,0,3.8,0.1,5,0.4c1.1,0.3,2,0.8,2.5,1.7s0.8,2.3,0.8,4.2V205.7z M174.6,204.9v-3.9c0-1.1-0.1-1.8-0.3-2.1
		c-0.2-0.2-0.9-0.4-2-0.4v9c0.9,0,1.5-0.1,1.8-0.3C174.4,206.8,174.6,206.1,174.6,204.9z"/>
	<path class="st0" d="M201.1,205.7c0,2-0.3,3.5-0.8,4.4c-0.5,0.9-1.3,1.4-2.4,1.7c-1.1,0.2-2.8,0.3-5.1,0.3h-8.2v-27.3h7.1v9.3h1.1
		c2.2,0,3.8,0.1,5,0.4c1.1,0.3,2,0.8,2.5,1.7s0.8,2.3,0.8,4.2V205.7z M194,204.9v-3.9c0-1.1-0.1-1.8-0.3-2.1c-0.2-0.2-0.9-0.4-2-0.4
		v9c0.9,0,1.5-0.1,1.8-0.3C193.8,206.8,194,206.1,194,204.9z M210.6,212.1h-7.1v-27.3h7.1V212.1z"/>
	<path class="st0" d="M213.5,184.8h7.1c2.2,0,3.9,0.2,5.1,0.5c1.2,0.3,2.1,1.1,2.8,2.1c0.7,1.1,1.1,2.8,1.1,5.1
		c0,1.6-0.3,2.7-0.8,3.3s-1.5,1.1-3,1.4c1.6,0.4,2.8,1,3.3,1.8c0.6,0.9,0.9,2.2,0.9,4v2.5c0,1.8-0.2,3.2-0.6,4.1
		c-0.4,0.9-1.1,1.5-2,1.8c-0.9,0.3-2.8,0.5-5.7,0.5h-8.2V184.8z M220.6,189.5v6.1c0.3,0,0.5,0,0.7,0c0.7,0,1.1-0.2,1.3-0.5
		c0.2-0.3,0.3-1.3,0.3-2.9c0-0.9-0.1-1.5-0.2-1.8s-0.4-0.6-0.6-0.6C221.8,189.5,221.4,189.5,220.6,189.5z M220.6,199.8v7.6
		c1,0,1.6-0.2,1.9-0.5c0.3-0.3,0.4-1,0.4-2.1v-2.5c0-1.2-0.1-1.9-0.4-2.1S221.7,199.8,220.6,199.8z"/>
	<path class="st0" d="M245.2,184.8l4.1,27.3H242l-0.4-4.9h-2.5l-0.4,4.9h-7.3l3.6-27.3H245.2z M241.4,202.3
		c-0.4-3.1-0.7-6.9-1.1-11.5c-0.7,5.2-1.2,9-1.4,11.5H241.4z"/>
	<path class="st0" d="M250.8,184.8h11.8v5.5h-4.7v5.2h4.4v5.2h-4.4v6h5.2v5.5h-12.3V184.8z"/>
	<path class="st0" d="M279.8,184.8v5.5h-4.2v21.8h-7.1v-21.8h-4.2v-5.5H279.8z"/>
	<path class="st0" d="M289,184.8l-1.1,20.5h-5.3l-1.1-20.5H289z M288.4,206.6v5.5h-6.4v-5.5H288.4z"/>
</g>
</svg>
