<?xml version="1.0" encoding="utf-8"?>
<!-- Generator: Adobe Illustrator 19.2.1, SVG Export Plug-In . SVG Version: 6.00 Build 0)  -->
<svg version="1.1" id="Layer_1" xmlns="http://www.w3.org/2000/svg" xmlns:xlink="http://www.w3.org/1999/xlink" x="0px" y="0px"
	 width="300px" height="600px" viewBox="0 0 300 600" style="enable-background:new 0 0 300 600;" xml:space="preserve">
<style type="text/css">
	.st0{fill:#FFFFFF;}
</style>
<g>
	<path class="st0" d="M26.8,125.5c-0.6,0.6-1.3,1.1-2.2,1.5c-0.9,0.4-1.9,0.5-2.8,0.5c-1.7,0-2.9-0.5-3.7-1.4
		c-0.8-0.9-1.2-2.4-1.2-4.4v-13H24V121c0,1.1,0.1,1.8,0.3,2.2c0.2,0.4,0.5,0.6,0.9,0.6c1.1,0,1.6-0.9,1.6-2.7v-12.3h7.1V136h-7.1
		V125.5z"/>
	<path class="st0" d="M51.4,108.7v5.5h-4.2V136h-7.1v-21.8h-4.2v-5.5H51.4z"/>
	<path class="st0" d="M69.6,124.7c0,2.7-0.1,4.7-0.2,5.8c-0.1,1.1-0.5,2.2-1.2,3.1c-0.7,0.9-1.6,1.7-2.8,2.2c-1.2,0.5-2.5,0.8-4,0.8
		c-1.5,0-2.8-0.2-3.9-0.7c-1.2-0.5-2.1-1.2-2.8-2.1s-1.1-2-1.3-3.1s-0.2-3.1-0.2-5.9V120c0-2.7,0.1-4.7,0.2-5.8
		c0.1-1.1,0.5-2.2,1.2-3.1s1.6-1.7,2.8-2.2s2.5-0.8,4-0.8c1.5,0,2.8,0.2,3.9,0.7c1.2,0.5,2.1,1.2,2.8,2.1s1.1,2,1.3,3.1
		c0.1,1.1,0.2,3.1,0.2,5.9V124.7z M62.5,115.7c0-1.3-0.1-2.1-0.2-2.4c-0.1-0.4-0.4-0.5-0.9-0.5c-0.4,0-0.7,0.1-0.9,0.4
		c-0.2,0.3-0.3,1.1-0.3,2.5v12.7c0,1.6,0.1,2.6,0.2,2.9c0.1,0.4,0.4,0.6,0.9,0.6c0.5,0,0.8-0.2,0.9-0.6c0.1-0.4,0.2-1.4,0.2-3V115.7
		z"/>
	<path class="st0" d="M76.3,130.7v2.4c0,1.3-0.2,2.3-0.5,3.2c-0.3,0.8-0.8,1.5-1.6,2.1c-0.7,0.6-1.6,1-2.5,1.1v-2
		c0.7-0.4,1.1-0.9,1.1-1.5h-1.1v-5.3H76.3z"/>
	<path class="st0" d="M107,108.7V136h-6.2l0-18.4L98.3,136h-4.4l-2.6-18l0,18h-6.2v-27.3h9.2c0.3,1.6,0.6,3.6,0.8,5.8l1,6.9
		l1.6-12.7H107z"/>
	<path class="st0" d="M126.4,124.7c0,2.7-0.1,4.7-0.2,5.8c-0.1,1.1-0.5,2.2-1.2,3.1c-0.7,0.9-1.6,1.7-2.8,2.2
		c-1.2,0.5-2.5,0.8-4,0.8c-1.5,0-2.8-0.2-3.9-0.7c-1.2-0.5-2.1-1.2-2.8-2.1s-1.1-2-1.3-3.1s-0.2-3.1-0.2-5.9V120
		c0-2.7,0.1-4.7,0.2-5.8c0.1-1.1,0.5-2.2,1.2-3.1s1.6-1.7,2.8-2.2s2.5-0.8,4-0.8c1.5,0,2.8,0.2,3.9,0.7c1.2,0.5,2.1,1.2,2.8,2.1
		s1.1,2,1.3,3.1c0.1,1.1,0.2,3.1,0.2,5.9V124.7z M119.3,115.7c0-1.3-0.1-2.1-0.2-2.4c-0.1-0.4-0.4-0.5-0.9-0.5
		c-0.4,0-0.7,0.1-0.9,0.4c-0.2,0.3-0.3,1.1-0.3,2.5v12.7c0,1.6,0.1,2.6,0.2,2.9c0.1,0.4,0.4,0.6,0.9,0.6c0.5,0,0.8-0.2,0.9-0.6
		c0.1-0.4,0.2-1.4,0.2-3V115.7z"/>
	<path class="st0" d="M142,120.5c1,0.3,1.8,0.9,2.3,1.7c0.5,0.8,0.8,2.6,0.8,5.6c0,2.2-0.2,3.9-0.7,5s-1.3,2.1-2.6,2.7
		c-1.2,0.6-2.8,0.9-4.7,0.9c-2.2,0-3.8-0.4-5.1-1.1c-1.2-0.7-2-1.6-2.4-2.7c-0.4-1-0.6-2.9-0.6-5.5v-2.2h6.8v4.4
		c0,1.2,0.1,1.9,0.2,2.2c0.1,0.3,0.5,0.5,0.9,0.5c0.5,0,0.9-0.2,1-0.6s0.3-1.5,0.3-3.2v-1.9c0-1-0.1-1.8-0.4-2.3s-0.6-0.8-1-1
		c-0.5-0.2-1.4-0.2-2.7-0.3v-4c1.6,0,2.6-0.1,3-0.2s0.7-0.4,0.8-0.8s0.3-1.1,0.3-2v-1.5c0-1-0.1-1.6-0.3-1.9
		c-0.2-0.3-0.5-0.5-0.9-0.5c-0.5,0-0.8,0.2-1,0.5c-0.2,0.3-0.3,1-0.3,2v2.2H129v-2.3c0-2.6,0.6-4.4,1.8-5.3s3.1-1.4,5.7-1.4
		c3.2,0,5.4,0.6,6.6,1.9c1.2,1.3,1.7,3,1.7,5.3c0,1.5-0.2,2.6-0.6,3.3S143,120,142,120.5z"/>
	<path class="st0" d="M160.3,114.2h-5.2V136H148v-27.3h12.3V114.2z"/>
	<path class="st0" d="M185.6,120.6h-7.1v-4.7c0-1.4-0.1-2.2-0.2-2.6c-0.2-0.3-0.5-0.5-1-0.5c-0.6,0-1,0.2-1.1,0.6s-0.2,1.3-0.2,2.7
		v12.7c0,1.3,0.1,2.2,0.2,2.6s0.5,0.6,1.1,0.6c0.5,0,0.9-0.2,1-0.6c0.2-0.4,0.2-1.4,0.2-2.9v-3.4h7.1v1.1c0,2.8-0.2,4.8-0.6,6
		c-0.4,1.2-1.3,2.2-2.6,3.1c-1.4,0.9-3,1.3-5,1.3c-2.1,0-3.8-0.4-5.1-1.1c-1.3-0.8-2.2-1.8-2.7-3.1c-0.4-1.3-0.7-3.3-0.7-6v-8
		c0-2,0.1-3.4,0.2-4.4s0.5-1.9,1.2-2.8c0.7-0.9,1.6-1.6,2.8-2.1s2.5-0.8,4.1-0.8c2.1,0,3.8,0.4,5.2,1.2c1.4,0.8,2.3,1.8,2.7,3
		s0.6,3.1,0.6,5.6V120.6z"/>
	<path class="st0" d="M204.7,124.7c0,2.7-0.1,4.7-0.2,5.8c-0.1,1.1-0.5,2.2-1.2,3.1c-0.7,0.9-1.6,1.7-2.8,2.2
		c-1.2,0.5-2.5,0.8-4,0.8c-1.5,0-2.8-0.2-3.9-0.7c-1.2-0.5-2.1-1.2-2.8-2.1s-1.1-2-1.3-3.1s-0.2-3.1-0.2-5.9V120
		c0-2.7,0.1-4.7,0.2-5.8c0.1-1.1,0.5-2.2,1.2-3.1c0.7-0.9,1.6-1.7,2.8-2.2c1.2-0.5,2.5-0.8,4-0.8c1.5,0,2.8,0.2,3.9,0.7
		c1.2,0.5,2.1,1.2,2.8,2.1c0.7,1,1.1,2,1.3,3.1c0.1,1.1,0.2,3.1,0.2,5.9V124.7z M197.6,115.7c0-1.3-0.1-2.1-0.2-2.4
		c-0.1-0.4-0.4-0.5-0.9-0.5c-0.4,0-0.7,0.1-0.9,0.4c-0.2,0.3-0.3,1.1-0.3,2.5v12.7c0,1.6,0.1,2.6,0.2,2.9s0.4,0.6,0.9,0.6
		c0.5,0,0.8-0.2,0.9-0.6c0.1-0.4,0.2-1.4,0.2-3V115.7z"/>
	<path class="st0" d="M207.7,108.7h7.1c2.2,0,3.9,0.2,5.1,0.5c1.2,0.3,2.1,1.1,2.8,2.1c0.7,1.1,1.1,2.8,1.1,5.1
		c0,1.6-0.3,2.7-0.8,3.3s-1.5,1.1-3,1.4c1.6,0.4,2.8,1,3.3,1.8c0.6,0.9,0.9,2.2,0.9,4v2.5c0,1.8-0.2,3.2-0.6,4.1
		c-0.4,0.9-1.1,1.5-2,1.8c-0.9,0.3-2.8,0.5-5.7,0.5h-8.2V108.7z M214.8,113.4v6.1c0.3,0,0.5,0,0.7,0c0.7,0,1.1-0.2,1.3-0.5
		c0.2-0.3,0.3-1.3,0.3-2.9c0-0.9-0.1-1.5-0.2-1.8c-0.2-0.3-0.4-0.6-0.6-0.6C216,113.5,215.5,113.4,214.8,113.4z M214.8,123.7v7.6
		c1,0,1.6-0.2,1.9-0.5s0.4-1,0.4-2.1v-2.5c0-1.2-0.1-1.9-0.4-2.1C216.5,123.9,215.8,123.7,214.8,123.7z"/>
	<path class="st0" d="M243.6,120.6h-7.1v-4.7c0-1.4-0.1-2.2-0.2-2.6c-0.2-0.3-0.5-0.5-1-0.5c-0.6,0-1,0.2-1.1,0.6s-0.2,1.3-0.2,2.7
		v12.7c0,1.3,0.1,2.2,0.2,2.6s0.5,0.6,1.1,0.6c0.5,0,0.9-0.2,1-0.6c0.2-0.4,0.2-1.4,0.2-2.9v-3.4h7.1v1.1c0,2.8-0.2,4.8-0.6,6
		c-0.4,1.2-1.3,2.2-2.6,3.1c-1.4,0.9-3,1.3-5,1.3c-2.1,0-3.8-0.4-5.1-1.1c-1.3-0.8-2.2-1.8-2.7-3.1c-0.4-1.3-0.7-3.3-0.7-6v-8
		c0-2,0.1-3.4,0.2-4.4s0.5-1.9,1.2-2.8c0.7-0.9,1.6-1.6,2.8-2.1s2.5-0.8,4.1-0.8c2.1,0,3.8,0.4,5.2,1.2c1.4,0.8,2.3,1.8,2.7,3
		s0.6,3.1,0.6,5.6V120.6z"/>
	<path class="st0" d="M246.5,108.7h11.8v5.5h-4.7v5.2h4.4v5.2h-4.4v6h5.2v5.5h-12.3V108.7z"/>
	<path class="st0" d="M283.1,108.7V136h-6.2l0-18.4l-2.5,18.4H270l-2.6-18l0,18h-6.2v-27.3h9.2c0.3,1.6,0.6,3.6,0.8,5.8l1,6.9
		l1.6-12.7H283.1z"/>
	<path class="st0" d="M69.7,147.8V175h-7.1v-11.5h-2.1V175h-7.1v-27.3h7.1v9.8h2.1v-9.8H69.7z"/>
	<path class="st0" d="M72.8,147.8h11.8v5.5h-4.7v5.2h4.4v5.2h-4.4v6h5.2v5.5H72.8V147.8z"/>
	<path class="st0" d="M108,147.8l-1.9,18.1c-0.3,2.9-0.6,4.9-1,6s-1,2-2,2.5s-2.6,0.7-4.9,0.7H94v-3.5h0.4c0.9,0,1.5-0.1,1.7-0.2
		c0.2-0.2,0.3-0.4,0.3-0.7c0,0-0.1-0.8-0.4-2.3l-3.7-20.5h6.2l2.3,17l1.1-17H108z"/>
	<path class="st0" d="M126.3,159.6h-7.1v-4.7c0-1.4-0.1-2.2-0.2-2.6c-0.2-0.3-0.5-0.5-1-0.5c-0.6,0-1,0.2-1.1,0.6
		c-0.2,0.4-0.2,1.3-0.2,2.7v12.7c0,1.3,0.1,2.2,0.2,2.6s0.5,0.6,1.1,0.6c0.5,0,0.9-0.2,1-0.6c0.2-0.4,0.2-1.4,0.2-2.9v-3.4h7.1v1.1
		c0,2.8-0.2,4.8-0.6,6c-0.4,1.2-1.3,2.2-2.6,3.1s-3,1.3-5,1.3c-2.1,0-3.8-0.4-5.1-1.1c-1.3-0.8-2.2-1.8-2.7-3.1
		c-0.4-1.3-0.7-3.3-0.7-6v-8c0-2,0.1-3.4,0.2-4.4s0.5-1.9,1.2-2.8c0.7-0.9,1.6-1.6,2.8-2.1c1.2-0.5,2.5-0.8,4.1-0.8
		c2.1,0,3.8,0.4,5.2,1.2c1.4,0.8,2.3,1.8,2.7,3c0.4,1.2,0.6,3.1,0.6,5.6V159.6z"/>
	<path class="st0" d="M145.5,175h-7.1v-21.8h-2.1V175h-7.1v-27.3h16.3V175z"/>
	<path class="st0" d="M148.7,147.8h11.8v5.5h-4.7v5.2h4.4v5.2h-4.4v6h5.2v5.5h-12.3V147.8z"/>
	<path class="st0" d="M163.4,147.8h7.1c2.2,0,3.9,0.2,5.1,0.5c1.2,0.3,2.1,1.1,2.8,2.1c0.7,1.1,1.1,2.8,1.1,5.1
		c0,1.6-0.3,2.7-0.8,3.3s-1.5,1.1-3,1.4c1.6,0.4,2.8,1,3.3,1.8c0.6,0.9,0.9,2.2,0.9,4v2.5c0,1.8-0.2,3.2-0.6,4.1
		c-0.4,0.9-1.1,1.5-2,1.8c-0.9,0.3-2.8,0.5-5.7,0.5h-8.2V147.8z M170.5,152.4v6.1c0.3,0,0.5,0,0.7,0c0.7,0,1.1-0.2,1.3-0.5
		c0.2-0.3,0.3-1.3,0.3-2.9c0-0.9-0.1-1.5-0.2-1.8s-0.4-0.6-0.6-0.6C171.7,152.5,171.2,152.4,170.5,152.4z M170.5,162.7v7.6
		c1,0,1.6-0.2,1.9-0.5c0.3-0.3,0.4-1,0.4-2.1v-2.5c0-1.2-0.1-1.9-0.4-2.1S171.5,162.8,170.5,162.7z"/>
	<path class="st0" d="M195.1,147.8l4.1,27.3h-7.2l-0.4-4.9h-2.5l-0.4,4.9h-7.3l3.6-27.3H195.1z M191.3,165.3
		c-0.4-3.1-0.7-6.9-1.1-11.5c-0.7,5.2-1.2,9-1.4,11.5H191.3z"/>
	<path class="st0" d="M200.7,147.8h11.8v5.5h-4.7v5.2h4.4v5.2h-4.4v6h5.2v5.5h-12.3V147.8z"/>
	<path class="st0" d="M229.6,147.8v5.5h-4.2V175h-7.1v-21.8h-4.2v-5.5H229.6z"/>
	<path class="st0" d="M238.4,156.6h-6.8c0-2.4,0.2-4.1,0.6-5.2s1.2-2.1,2.5-2.9c1.3-0.8,2.9-1.2,4.9-1.2c1.4,0,2.7,0.2,3.7,0.7
		c1.1,0.5,1.9,1.1,2.5,1.9s1.1,1.7,1.4,2.6c0.3,0.9,0.4,2.4,0.4,4.4v3.3c0,1.5-0.1,2.7-0.4,3.7c-0.3,0.9-0.9,1.7-1.8,2.4s-2,1-3.3,1
		c-1.7,0-2.9-0.6-3.7-1.9v2.9H232v-7.5h6.2c0,1,0.4,1.5,1.1,1.5c0.6,0,0.9-0.2,1.1-0.7c0.2-0.5,0.2-1.6,0.2-3.3v-4.5
		c0-1-0.1-1.7-0.2-2c-0.1-0.3-0.4-0.5-0.8-0.5c-0.5,0-0.8,0.2-1,0.7c-0.1,0.5-0.2,1.5-0.2,3.1V156.6z M238.4,169.6v5.5H232v-5.5
		H238.4z"/>
</g>
</svg>
