<?xml version="1.0" encoding="utf-8"?>
<!-- Generator: Adobe Illustrator 19.2.1, SVG Export Plug-In . SVG Version: 6.00 Build 0)  -->
<svg version="1.1" id="Layer_1" xmlns="http://www.w3.org/2000/svg" xmlns:xlink="http://www.w3.org/1999/xlink" x="0px" y="0px"
	 width="300px" height="600px" viewBox="0 0 300 600" style="enable-background:new 0 0 300 600;" xml:space="preserve">
<style type="text/css">
	.st0{fill:#FFFFFF;}
</style>
<g>
	<path class="st0" d="M34.9,33.1h8.5l0,13.7c1.6,0,2.4-0.9,2.5-2.6l0.2-6.3c0.1-2.3,0.5-3.9,1.4-4.7h7.8C54.4,33.9,54,35.5,54,38
		l0,5.6c0,3.4-1.9,5.3-5.7,5.7c3.8,0.5,5.7,2.4,5.7,5.8l0,5.2c0,2.5,0.4,4.2,1.1,5.2h-7.8c-0.9-0.8-1.4-2.4-1.4-4.7v-6.3
		c0-0.8-0.2-1.4-0.7-1.9c-0.5-0.5-1.1-0.7-1.9-0.8l0,13.7h-8.5V33.1z"/>
	<path class="st0" d="M71.9,33.1l4.8,32.4h-8.6l-0.5-5.8h-3l-0.5,5.8h-8.7l4.3-32.4H71.9z M67.4,54c-0.4-3.7-0.9-8.2-1.3-13.6
		c-0.9,6.2-1.4,10.7-1.6,13.6H67.4z"/>
	<path class="st0" d="M90,53.1c-0.7,0.7-1.6,1.3-2.7,1.7c-1.1,0.4-2.2,0.7-3.3,0.7c-2,0-3.5-0.6-4.4-1.7c-0.9-1.1-1.4-2.9-1.4-5.2
		V33.1h8.5v14.6c0,1.3,0.1,2.1,0.3,2.6c0.2,0.5,0.6,0.7,1.1,0.7c1.3,0,1.9-1.1,1.9-3.2V33.1h8.5v32.4H90V53.1z"/>
	<path class="st0" d="M116.8,33.1l4.8,32.4H113l-0.5-5.8h-3l-0.5,5.8h-8.7l4.3-32.4H116.8z M112.4,54c-0.4-3.7-0.9-8.2-1.3-13.6
		c-0.9,6.2-1.4,10.7-1.6,13.6H112.4z"/>
	<path class="st0" d="M142.3,65.6h-7V50.8l-4.4,14.8h-7.4V33.1h7v14.6l4.7-14.6h7V65.6z M135.2,26.1h3.4c-0.1,1.8-0.6,3.3-1.6,4.4
		s-2.3,1.7-4.1,1.7c-1.8,0-3.1-0.6-4.1-1.7c-1-1.1-1.5-2.6-1.6-4.4h3.4c0.2,1.8,0.9,2.7,2.3,2.7C134.2,28.8,135,27.9,135.2,26.1z"/>
	<path class="st0" d="M179.8,33.1v32.4h-7.4l0-21.9l-2.9,21.9h-5.2l-3.1-21.4l0,21.4h-7.4V33.1h10.9c0.3,1.9,0.7,4.2,1,6.9l1.2,8.2
		l1.9-15.1H179.8z"/>
	<path class="st0" d="M202.8,52.1c0,3.3-0.1,5.6-0.2,6.9c-0.2,1.4-0.6,2.6-1.4,3.7c-0.8,1.1-1.9,2-3.3,2.6c-1.4,0.6-3,0.9-4.8,0.9
		c-1.7,0-3.3-0.3-4.7-0.9s-2.5-1.4-3.3-2.6c-0.8-1.1-1.3-2.4-1.5-3.7c-0.2-1.3-0.2-3.7-0.2-7v-5.5c0-3.3,0.1-5.6,0.2-6.9
		c0.2-1.4,0.6-2.6,1.4-3.7s1.9-2,3.3-2.6c1.4-0.6,3-0.9,4.8-0.9c1.7,0,3.3,0.3,4.7,0.9c1.4,0.6,2.5,1.4,3.3,2.6s1.3,2.4,1.5,3.7
		s0.2,3.7,0.2,7V52.1z M194.4,41.5c0-1.5-0.1-2.5-0.3-2.9c-0.2-0.4-0.5-0.6-1-0.6c-0.4,0-0.8,0.2-1,0.5c-0.2,0.3-0.4,1.3-0.4,3v15.1
		c0,1.9,0.1,3,0.2,3.5c0.2,0.4,0.5,0.7,1.1,0.7c0.6,0,0.9-0.3,1.1-0.8s0.2-1.7,0.2-3.6V41.5z"/>
	<path class="st0" d="M221.3,47.2c1.2,0.4,2.1,1.1,2.7,2c0.6,0.9,0.9,3.1,0.9,6.6c0,2.6-0.3,4.6-0.9,6c-0.6,1.4-1.6,2.5-3,3.2
		c-1.4,0.7-3.3,1.1-5.5,1.1c-2.6,0-4.6-0.4-6-1.3s-2.4-1.9-2.9-3.2s-0.7-3.4-0.7-6.5v-2.6h8.1V58c0,1.4,0.1,2.3,0.3,2.7
		c0.2,0.4,0.5,0.6,1.1,0.6c0.6,0,1-0.2,1.2-0.7s0.3-1.7,0.3-3.8v-2.2c0-1.2-0.1-2.1-0.4-2.7c-0.3-0.6-0.7-1-1.2-1.1
		s-1.6-0.3-3.2-0.3v-4.7c1.9,0,3.1-0.1,3.6-0.2c0.5-0.1,0.8-0.5,1-1s0.3-1.3,0.3-2.3v-1.8c0-1.1-0.1-1.9-0.4-2.2
		c-0.2-0.4-0.6-0.5-1.1-0.5c-0.6,0-0.9,0.2-1.2,0.6s-0.3,1.2-0.3,2.4v2.7h-8.1v-2.8c0-3.1,0.7-5.2,2.1-6.3c1.4-1.1,3.7-1.6,6.7-1.6
		c3.9,0,6.5,0.8,7.9,2.3s2.1,3.6,2.1,6.3c0,1.8-0.2,3.1-0.7,3.9C223.4,45.8,222.6,46.5,221.3,47.2z"/>
	<path class="st0" d="M243.2,39.6H237v26h-8.5V33.1h14.6V39.6z"/>
	<path class="st0" d="M264.7,65.6h-7V50.8l-4.4,14.8h-7.4V33.1h7v14.6l4.7-14.6h7V65.6z"/>
	<path class="st0" d="M36.7,90c1.2,0.4,2.1,1.1,2.7,2s0.9,3.1,0.9,6.6c0,2.6-0.3,4.6-0.9,6c-0.6,1.4-1.6,2.5-3,3.2s-3.3,1.1-5.5,1.1
		c-2.6,0-4.6-0.4-6-1.3s-2.4-1.9-2.9-3.2s-0.7-3.4-0.7-6.5v-2.6h8.1v5.3c0,1.4,0.1,2.3,0.3,2.7c0.2,0.4,0.5,0.6,1.1,0.6
		c0.6,0,1-0.2,1.2-0.7s0.3-1.7,0.3-3.8v-2.2c0-1.2-0.1-2.1-0.4-2.7c-0.3-0.6-0.7-1-1.2-1.1s-1.6-0.3-3.2-0.3v-4.7
		c1.9,0,3.1-0.1,3.6-0.2c0.5-0.1,0.8-0.5,1-1s0.3-1.3,0.3-2.3v-1.8c0-1.1-0.1-1.9-0.4-2.2c-0.2-0.4-0.6-0.5-1.1-0.5
		c-0.6,0-0.9,0.2-1.2,0.6s-0.3,1.2-0.3,2.4V86h-8.1v-2.8c0-3.1,0.7-5.2,2.1-6.3c1.4-1.1,3.7-1.6,6.7-1.6c3.9,0,6.5,0.8,7.9,2.3
		c1.4,1.5,2.1,3.6,2.1,6.3c0,1.8-0.2,3.1-0.7,3.9C38.8,88.6,37.9,89.4,36.7,90z"/>
	<path class="st0" d="M58.5,76l4.8,32.4h-8.6l-0.5-5.8h-3l-0.5,5.8H42L46.3,76H58.5z M54,96.8c-0.4-3.7-0.9-8.2-1.3-13.6
		c-0.9,6.2-1.4,10.7-1.6,13.6H54z"/>
	<path class="st0" d="M72.8,76h8.5c2.3,0,4.1,0.2,5.3,0.5c1.2,0.4,2.2,0.9,2.8,1.6c0.6,0.7,1,1.5,1.3,2.5c0.2,1,0.3,2.5,0.3,4.5v2.8
		c0,2.1-0.2,3.6-0.6,4.5c-0.4,0.9-1.2,1.7-2.4,2.2c-1.1,0.5-2.6,0.8-4.5,0.8h-2.3v13.1h-8.4V76z M81.2,81.5v8.3c0.2,0,0.4,0,0.6,0
		c0.8,0,1.3-0.2,1.6-0.6c0.3-0.4,0.5-1.2,0.5-2.4v-2.7c0-1.1-0.2-1.8-0.5-2.2C83,81.7,82.3,81.5,81.2,81.5z"/>
	<path class="st0" d="M93.8,76h6c4,0,6.7,0.2,8.1,0.5c1.4,0.3,2.6,1.1,3.4,2.4c0.9,1.3,1.3,3.3,1.3,6c0,2.5-0.3,4.2-0.9,5.1
		s-1.9,1.4-3.7,1.6c1.7,0.4,2.8,1,3.4,1.7c0.6,0.7,0.9,1.3,1.1,1.9c0.1,0.6,0.2,2.2,0.2,4.8v8.6h-7.8V97.6c0-1.7-0.1-2.8-0.4-3.2
		c-0.3-0.4-1-0.6-2.2-0.6v14.6h-8.4V76z M102.2,81.5v7.2c0.9,0,1.6-0.1,2-0.4s0.6-1.1,0.6-2.5V84c0-1-0.2-1.7-0.6-2
		C103.8,81.7,103.2,81.5,102.2,81.5z"/>
	<path class="st0" d="M135.5,95c0,3.3-0.1,5.6-0.2,6.9c-0.2,1.4-0.6,2.6-1.4,3.7c-0.8,1.1-1.9,2-3.3,2.6c-1.4,0.6-3,0.9-4.8,0.9
		c-1.7,0-3.3-0.3-4.7-0.9c-1.4-0.6-2.5-1.4-3.3-2.6c-0.8-1.1-1.3-2.4-1.5-3.7c-0.2-1.3-0.2-3.7-0.2-7v-5.5c0-3.3,0.1-5.6,0.2-6.9
		c0.2-1.4,0.6-2.6,1.4-3.7c0.8-1.1,1.9-2,3.3-2.6c1.4-0.6,3-0.9,4.8-0.9c1.7,0,3.3,0.3,4.7,0.9c1.4,0.6,2.5,1.4,3.3,2.6
		s1.3,2.4,1.5,3.7s0.2,3.7,0.2,7V95z M127.1,84.3c0-1.5-0.1-2.5-0.3-2.9c-0.2-0.4-0.5-0.6-1-0.6c-0.4,0-0.8,0.2-1,0.5
		c-0.2,0.3-0.4,1.3-0.4,3v15.1c0,1.9,0.1,3,0.2,3.5c0.2,0.4,0.5,0.7,1.1,0.7c0.6,0,0.9-0.3,1.1-0.8c0.2-0.5,0.2-1.7,0.2-3.6V84.3z"
		/>
	<path class="st0" d="M166.1,108.4h-8.5v-26h-2.5v26h-8.5V76h19.4V108.4z"/>
	<path class="st0" d="M169.9,76h8.5c2.3,0,4.1,0.2,5.3,0.5c1.2,0.4,2.2,0.9,2.8,1.6c0.6,0.7,1,1.5,1.3,2.5c0.2,1,0.3,2.5,0.3,4.5
		v2.8c0,2.1-0.2,3.6-0.6,4.5c-0.4,0.9-1.2,1.7-2.4,2.2c-1.1,0.5-2.6,0.8-4.5,0.8h-2.3v13.1h-8.4V76z M178.3,81.5v8.3
		c0.2,0,0.4,0,0.6,0c0.8,0,1.3-0.2,1.6-0.6c0.3-0.4,0.5-1.2,0.5-2.4v-2.7c0-1.1-0.2-1.8-0.5-2.2C180.1,81.7,179.4,81.5,178.3,81.5z"
		/>
	<path class="st0" d="M209.7,108.4h-7V93.6l-4.4,14.8h-7.4V76h7v14.6l4.7-14.6h7V108.4z"/>
	<path class="st0" d="M228.5,90c1.2,0.4,2.1,1.1,2.7,2c0.6,0.9,0.9,3.1,0.9,6.6c0,2.6-0.3,4.6-0.9,6c-0.6,1.4-1.6,2.5-3,3.2
		c-1.4,0.7-3.3,1.1-5.5,1.1c-2.6,0-4.6-0.4-6-1.3s-2.4-1.9-2.9-3.2s-0.7-3.4-0.7-6.5v-2.6h8.1v5.3c0,1.4,0.1,2.3,0.3,2.7
		c0.2,0.4,0.5,0.6,1.1,0.6c0.6,0,1-0.2,1.2-0.7s0.3-1.7,0.3-3.8v-2.2c0-1.2-0.1-2.1-0.4-2.7c-0.3-0.6-0.7-1-1.2-1.1
		s-1.6-0.3-3.2-0.3v-4.7c1.9,0,3.1-0.1,3.6-0.2c0.5-0.1,0.8-0.5,1-1s0.3-1.3,0.3-2.3v-1.8c0-1.1-0.1-1.9-0.4-2.2
		c-0.2-0.4-0.6-0.5-1.1-0.5c-0.6,0-0.9,0.2-1.2,0.6s-0.3,1.2-0.3,2.4V86H213v-2.8c0-3.1,0.7-5.2,2.1-6.3c1.4-1.1,3.7-1.6,6.7-1.6
		c3.9,0,6.5,0.8,7.9,2.3s2.1,3.6,2.1,6.3c0,1.8-0.2,3.1-0.7,3.9C230.6,88.6,229.7,89.4,228.5,90z"/>
	<path class="st0" d="M255.3,100.8c0,2.4-0.3,4.2-0.9,5.2c-0.6,1.1-1.6,1.7-2.9,2c-1.3,0.3-3.3,0.4-6.1,0.4h-9.8V76h8.5v11.1h1.3
		c2.6,0,4.6,0.2,5.9,0.5c1.3,0.3,2.3,1,3,2c0.7,1,1,2.7,1,4.9V100.8z M246.8,99.8v-4.7c0-1.4-0.1-2.2-0.4-2.5
		c-0.3-0.3-1.1-0.5-2.3-0.5v10.7c1.1,0,1.8-0.1,2.2-0.4C246.7,102.1,246.8,101.3,246.8,99.8z M266.6,108.4h-8.5V76h8.5V108.4z"/>
	<path class="st0" d="M278.8,76l-1.3,24.4h-6.2L269.9,76H278.8z M278.1,101.9v6.5h-7.6v-6.5H278.1z"/>
</g>
</svg>
