<?xml version="1.0" encoding="utf-8"?>
<!-- Generator: Adobe Illustrator 19.2.1, SVG Export Plug-In . SVG Version: 6.00 Build 0)  -->
<svg version="1.1" id="Layer_1" xmlns="http://www.w3.org/2000/svg" xmlns:xlink="http://www.w3.org/1999/xlink" x="0px" y="0px"
	 width="162px" height="30px" viewBox="0 0 162 30" style="enable-background:new 0 0 162 30;" xml:space="preserve">
<style type="text/css">
	.st0{fill:#FFFFFF;}
</style>
<g>
	<path class="st0" d="M0.3,5.2h5.4v8.7c1,0,1.6-0.6,1.6-1.7l0.1-4.1c0-1.5,0.3-2.5,0.9-3h4.9c-0.5,0.5-0.7,1.6-0.7,3.1v3.5
		c0,2.1-1.2,3.4-3.6,3.7c2.4,0.3,3.7,1.6,3.6,3.7v3.3c0,1.6,0.2,2.7,0.7,3.4H8.3c-0.5-0.5-0.9-1.5-0.9-3v-4.1c0-0.5-0.2-0.9-0.5-1.2
		s-0.7-0.5-1.2-0.5v8.7H0.3V5.2z"/>
	<path class="st0" d="M23.8,5.3l3,20.6h-5.5L21,22.2h-2l-0.3,3.7h-5.5l2.7-20.6H23.8z M20.9,18.5c-0.2-2.3-0.5-5.2-0.8-8.7
		c-0.5,4-0.9,6.9-1,8.7H20.9z"/>
	<path class="st0" d="M34,16.9c-1.1,0-1.7,0.5-1.7,1.5V24c0,0.7-0.1,1.2-0.2,1.6c-0.2,0.3-0.2,0.5-0.3,0.5h-4.5
		c0.4-0.5,0.5-1.4,0.5-2.4v-4.8c0-1,0.3-1.7,0.9-2.3c0.5-0.5,1.5-0.9,2.8-1.1l0,0c-2.4-0.2-3.6-1.2-3.6-3.4V7.6
		c0-1.1-0.2-1.9-0.5-2.4h4.5c0.2,0.1,0.2,0.2,0.4,0.5s0.2,0.8,0.2,1.4v5.2c0,0.9,0.5,1.4,1.6,1.5V5.2h5.4v8.6c1.1,0,1.7-0.5,1.7-1.5
		V7c0-0.7,0.1-1.2,0.2-1.5C41.6,5.2,41.6,5,41.7,5h4.5c-0.4,0.5-0.5,1.3-0.5,2.4v4.4c0,2.1-1.2,3.2-3.7,3.4l0,0
		c1.3,0.2,2.3,0.6,2.8,1.1s0.9,1.2,0.9,2.3v4.6c0,1.1,0.2,1.9,0.5,2.4h-4.5c-0.2-0.1-0.2-0.2-0.4-0.5s-0.2-0.8-0.2-1.4v-5.5
		c0-0.9-0.5-1.4-1.7-1.5v8.9H34V16.9L34,16.9z"/>
	<path class="st0" d="M63,29.3h-3.7v-3.6h-8.7v3.6h-3.7v-7.8H48c0.5-1.7,1-3.9,1.4-6.6s0.5-5.8,0.5-9.1V5.3h11.9v16.3h1.1L63,29.3
		L63,29.3z M56.5,21.5V9.3h-1.6v0.2c0,4-0.4,8-1.2,12.1L56.5,21.5L56.5,21.5z"/>
	<path class="st0" d="M77.4,21c0,1.6-0.2,2.7-0.6,3.3c-0.4,0.7-1,1.1-1.8,1.2s-2.1,0.2-3.9,0.2h-6.2V5.1h5.4v7.1h0.9
		c1.6,0,2.9,0.1,3.7,0.3c0.9,0.2,1.5,0.6,1.9,1.3c0.4,0.7,0.6,1.7,0.6,3.1L77.4,21L77.4,21z M72,20.3v-3c0-0.9-0.1-1.4-0.2-1.6
		c-0.2-0.2-0.7-0.3-1.5-0.3v6.8c0.7,0,1.2-0.1,1.4-0.2C71.9,21.8,72,21.3,72,20.3z M84.6,25.8h-5.4V5.2h5.4V25.8z"/>
	<path class="st0" d="M98.8,25.8h-4.5v-9.4l-2.8,9.4h-4.7V5.2h4.5v9.3l3-9.3h4.5V25.8L98.8,25.8z M94.3,0.7h2.2
		c-0.1,1.2-0.4,2.1-1,2.8S94,4.6,92.9,4.6s-2-0.4-2.6-1.1s-0.9-1.6-1-2.8h2.2c0.1,1.2,0.5,1.7,1.4,1.7C93.6,2.4,94.2,1.8,94.3,0.7z"
		/>
	<path class="st0" d="M121.4,29.3h-3.7v-3.6h-8.6v3.6h-3.7v-7.8h1.1c0.5-1.7,1-3.9,1.4-6.6s0.5-5.8,0.5-9.1V5.3h11.9v16.3h1.1V29.3
		L121.4,29.3z M115,21.5V9.3h-1.6v0.2c0,4-0.4,8-1.2,12.1L115,21.5L115,21.5z"/>
	<path class="st0" d="M123.3,5.3h9v4.1h-3.6v3.9h3.4v3.9h-3.4v4.5h3.9v4.1h-9.3L123.3,5.3L123.3,5.3z"/>
	<path class="st0" d="M146.8,5.3v20.6h-5.4v-8.7h-1.6v8.7h-5.4V5.3h5.4v7.3h1.6V5.3H146.8z"/>
	<path class="st0" d="M161.7,21c0,1.6-0.2,2.7-0.6,3.3c-0.4,0.7-1,1.1-1.8,1.2c-0.8,0.2-2.1,0.2-3.9,0.2h-6.2V5.1h5.4v7.1h0.9
		c1.6,0,2.9,0.1,3.7,0.3c0.9,0.2,1.5,0.6,1.9,1.3c0.4,0.7,0.6,1.7,0.6,3.1V21z M156.3,20.3v-3c0-0.9-0.1-1.4-0.2-1.6
		c-0.2-0.2-0.7-0.3-1.5-0.3v6.8c0.7,0,1.2-0.1,1.4-0.2C156.2,21.8,156.3,21.3,156.3,20.3z"/>
</g>
</svg>
