<?xml version="1.0" encoding="utf-8"?>
<!-- Generator: Adobe Illustrator 19.2.1, SVG Export Plug-In . SVG Version: 6.00 Build 0)  -->
<svg version="1.1" id="Layer_1" xmlns="http://www.w3.org/2000/svg" xmlns:xlink="http://www.w3.org/1999/xlink" x="0px" y="0px"
	 width="260px" height="72px" viewBox="0 0 260 72" style="enable-background:new 0 0 260 72;" xml:space="preserve">
<style type="text/css">
	.st0{fill:#FFFFFF;}
	.st1{fill:#FAAE19;}
</style>
<g>
	<path class="st0" d="M20.1,0.9V8h-5.5v28.3H5.4V8H0V0.9H20.1z"/>
	<path class="st0" d="M43.7,21.6c0,3.6-0.1,6.1-0.3,7.5c-0.2,1.5-0.7,2.8-1.6,4.1c-0.9,1.2-2.1,2.2-3.6,2.8c-1.5,0.7-3.2,1-5.2,1
		c-1.9,0-3.6-0.3-5.1-0.9c-1.5-0.6-2.7-1.5-3.6-2.8s-1.5-2.6-1.6-4c-0.2-1.5-0.3-4-0.3-7.6v-6.1c0-3.6,0.1-6.1,0.3-7.5
		c0.2-1.5,0.7-2.8,1.6-4.1c0.9-1.2,2.1-2.2,3.6-2.8c1.5-0.7,3.2-1,5.2-1c1.9,0,3.6,0.3,5.1,0.9c1.5,0.6,2.7,1.5,3.6,2.8
		c0.9,1.2,1.5,2.6,1.6,4c0.2,1.5,0.3,4,0.3,7.6V21.6z M34.5,10c0-1.6-0.1-2.7-0.3-3.2c-0.2-0.5-0.6-0.7-1.1-0.7
		c-0.5,0-0.8,0.2-1.1,0.6C31.7,7,31.6,8.1,31.6,10v16.5c0,2.1,0.1,3.3,0.3,3.8C32,30.8,32.4,31,33,31c0.6,0,1-0.3,1.2-0.8
		c0.2-0.6,0.3-1.9,0.3-4V10z"/>
	<path class="st0" d="M47.5,0.9h9.3c2.5,0,4.4,0.2,5.8,0.6c1.3,0.4,2.4,1,3,1.7c0.7,0.7,1.1,1.6,1.4,2.7c0.2,1.1,0.4,2.7,0.4,4.9
		v3.1c0,2.3-0.2,3.9-0.7,4.9c-0.5,1-1.3,1.8-2.6,2.4c-1.2,0.6-2.9,0.8-4.9,0.8h-2.5v14.2h-9.2V0.9z M56.7,6.9v9c0.3,0,0.5,0,0.7,0
		c0.8,0,1.4-0.2,1.8-0.6c0.3-0.4,0.5-1.3,0.5-2.6V9.8c0-1.2-0.2-2-0.6-2.4C58.7,7.1,57.9,6.9,56.7,6.9z"/>
	<path class="st0" d="M98.8,0.9v35.4h-8l0-23.9l-3.2,23.9h-5.7l-3.4-23.3l0,23.3h-8V0.9h11.9c0.4,2.1,0.7,4.6,1.1,7.5l1.3,9
		l2.1-16.5H98.8z"/>
	<path class="st0" d="M124,21.6c0,3.6-0.1,6.1-0.3,7.5c-0.2,1.5-0.7,2.8-1.6,4.1c-0.9,1.2-2.1,2.2-3.6,2.8c-1.5,0.7-3.2,1-5.2,1
		c-1.9,0-3.6-0.3-5.1-0.9c-1.5-0.6-2.7-1.5-3.6-2.8s-1.5-2.6-1.6-4c-0.2-1.5-0.3-4-0.3-7.6v-6.1c0-3.6,0.1-6.1,0.3-7.5
		s0.7-2.8,1.6-4.1c0.9-1.2,2.1-2.2,3.6-2.8c1.5-0.7,3.2-1,5.2-1c1.9,0,3.6,0.3,5.1,0.9c1.5,0.6,2.7,1.5,3.6,2.8
		c0.9,1.2,1.5,2.6,1.6,4c0.2,1.5,0.3,4,0.3,7.6V21.6z M114.8,10c0-1.6-0.1-2.7-0.3-3.2c-0.2-0.5-0.6-0.7-1.1-0.7
		c-0.5,0-0.8,0.2-1.1,0.6c-0.3,0.4-0.4,1.5-0.4,3.3v16.5c0,2.1,0.1,3.3,0.3,3.8c0.2,0.5,0.6,0.7,1.2,0.7c0.6,0,1-0.3,1.2-0.8
		c0.2-0.6,0.3-1.9,0.3-4V10z"/>
	<path class="st0" d="M144.2,16.2c1.3,0.5,2.3,1.2,3,2.2c0.7,1,1,3.4,1,7.2c0,2.8-0.3,5-1,6.5c-0.6,1.6-1.7,2.7-3.3,3.5
		c-1.6,0.8-3.6,1.2-6.1,1.2c-2.8,0-5-0.5-6.6-1.4c-1.6-0.9-2.6-2.1-3.1-3.5c-0.5-1.4-0.8-3.7-0.8-7.1v-2.8h8.8v5.7
		c0,1.5,0.1,2.5,0.3,2.9c0.2,0.4,0.6,0.6,1.2,0.6c0.7,0,1.1-0.3,1.4-0.8c0.2-0.5,0.3-1.9,0.3-4.1v-2.4c0-1.4-0.2-2.3-0.5-3
		c-0.3-0.6-0.8-1-1.4-1.2c-0.6-0.2-1.8-0.3-3.5-0.3v-5.1c2.1,0,3.4-0.1,3.9-0.2c0.5-0.2,0.9-0.5,1.1-1c0.2-0.5,0.3-1.4,0.3-2.5v-2
		c0-1.2-0.1-2.1-0.4-2.4c-0.3-0.4-0.7-0.6-1.2-0.6c-0.6,0-1,0.2-1.3,0.6c-0.2,0.4-0.3,1.3-0.3,2.7v2.9h-8.8v-3
		c0-3.4,0.8-5.7,2.3-6.9c1.5-1.2,4-1.8,7.4-1.8c4.2,0,7.1,0.8,8.6,2.5c1.5,1.6,2.3,3.9,2.3,6.9c0,2-0.3,3.4-0.8,4.3
		C146.5,14.7,145.6,15.5,144.2,16.2z"/>
	<path class="st0" d="M172.6,36.3h-7.7V20.1l-4.8,16.1h-8.1V0.9h7.7v16l5.2-16h7.7V36.3z"/>
	<path class="st0" d="M209.9,36.3h-33.2V0.9h9.2v28.3h2.7V0.9h9.2v28.3h2.7V0.9h9.3V36.3z"/>
	<path class="st0" d="M235.5,28c0,2.6-0.3,4.5-1,5.7c-0.7,1.2-1.7,1.9-3.1,2.2c-1.4,0.3-3.6,0.4-6.7,0.4H214V0.9h9.2V13h1.4
		c2.8,0,5,0.2,6.4,0.5c1.5,0.3,2.5,1.1,3.3,2.2c0.7,1.1,1.1,2.9,1.1,5.4V28z M226.2,26.9v-5.1c0-1.5-0.1-2.4-0.4-2.7
		s-1.1-0.5-2.5-0.5v11.6c1.2,0,2-0.1,2.4-0.4C226,29.4,226.2,28.5,226.2,26.9z"/>
	<path class="st0" d="M248,12.3h-8.8c0-3.1,0.3-5.4,0.8-6.8c0.5-1.4,1.6-2.7,3.2-3.7c1.7-1.1,3.8-1.6,6.3-1.6c1.8,0,3.5,0.3,4.9,0.9
		c1.4,0.6,2.5,1.4,3.3,2.4c0.8,1,1.4,2.2,1.8,3.4c0.4,1.2,0.6,3.1,0.6,5.7v4.3c0,2-0.2,3.5-0.5,4.7c-0.4,1.2-1.2,2.2-2.4,3.1
		c-1.2,0.9-2.7,1.4-4.3,1.4c-2.1,0-3.7-0.8-4.8-2.5v3.8h-8.2v-9.7h8c0,1.3,0.5,2,1.4,2c0.7,0,1.2-0.3,1.4-0.9c0.2-0.6,0.3-2,0.3-4.3
		V8.5c0-1.3-0.1-2.2-0.3-2.6c-0.2-0.4-0.5-0.7-1.1-0.7c-0.7,0-1.1,0.3-1.3,0.9c-0.2,0.6-0.3,1.9-0.3,4V12.3z M248,29.2v7.1h-8.2
		v-7.1H248z"/>
	<path class="st1" d="M16,57.4H9.6v-4.3c0-1.2-0.1-2-0.2-2.3c-0.1-0.3-0.4-0.5-0.9-0.5c-0.5,0-0.9,0.2-1,0.6
		c-0.1,0.4-0.2,1.2-0.2,2.4v11.5c0,1.2,0.1,2,0.2,2.3c0.1,0.4,0.5,0.5,1,0.5c0.5,0,0.8-0.2,0.9-0.5c0.1-0.4,0.2-1.2,0.2-2.6v-3.1H16
		v1c0,2.6-0.2,4.4-0.5,5.4c-0.4,1.1-1.2,2-2.4,2.8c-1.2,0.8-2.8,1.2-4.6,1.2c-1.9,0-3.4-0.3-4.6-1s-2-1.6-2.4-2.8
		c-0.4-1.2-0.6-3-0.6-5.4v-7.2c0-1.8,0.1-3.1,0.2-4c0.1-0.9,0.5-1.7,1.1-2.6c0.6-0.8,1.4-1.5,2.5-1.9c1.1-0.5,2.3-0.7,3.7-0.7
		c1.9,0,3.4,0.4,4.7,1.1s2,1.6,2.4,2.7c0.4,1.1,0.6,2.8,0.6,5.1V57.4z"/>
	<path class="st1" d="M33.4,46.7v24.7h-6.4V61H25v10.4h-6.4V46.7H25v8.8h1.9v-8.8H33.4z"/>
	<path class="st1" d="M50.6,71.4h-5.4V60.1l-3.3,11.2h-5.6V46.7h5.4v11.1l3.6-11.1h5.4V71.4z"/>
	<path class="st1" d="M53.4,46.7h6.4l0,10.4c1.2,0,1.8-0.7,1.9-2l0.1-4.8c0-1.8,0.4-3,1-3.6h5.9c-0.6,0.6-0.9,1.8-0.9,3.7l0,4.2
		c0,2.6-1.4,4-4.3,4.4c2.9,0.4,4.3,1.8,4.3,4.4l0,3.9c0,1.9,0.3,3.2,0.9,4h-5.9c-0.7-0.6-1-1.8-1-3.6v-4.8c0-0.6-0.2-1.1-0.6-1.5
		c-0.4-0.4-0.9-0.6-1.4-0.6l0,10.5h-6.4V46.7z"/>
	<path class="st1" d="M70.5,46.7h10.7v4.9h-4.3v4.7h4V61h-4v5.4h4.7v4.9H70.5V46.7z"/>
	<path class="st1" d="M83.8,46.7h6.5c1.7,0,3.1,0.1,4,0.4c0.9,0.3,1.6,0.7,2.1,1.2c0.5,0.5,0.8,1.1,1,1.9c0.2,0.7,0.3,1.9,0.3,3.4
		v2.1c0,1.6-0.2,2.7-0.5,3.4c-0.3,0.7-0.9,1.3-1.8,1.7c-0.9,0.4-2,0.6-3.4,0.6h-1.7v9.9h-6.4V46.7z M90.2,50.9v6.3
		c0.2,0,0.3,0,0.5,0c0.6,0,1-0.1,1.2-0.4c0.2-0.3,0.3-0.9,0.3-1.8v-2c0-0.8-0.1-1.4-0.4-1.6C91.5,51,91,50.9,90.2,50.9z"/>
	<path class="st1" d="M114.7,57.4h-6.4v-4.3c0-1.2-0.1-2-0.2-2.3c-0.1-0.3-0.4-0.5-0.9-0.5c-0.5,0-0.9,0.2-1,0.6
		c-0.1,0.4-0.2,1.2-0.2,2.4v11.5c0,1.2,0.1,2,0.2,2.3c0.1,0.4,0.5,0.5,1,0.5c0.5,0,0.8-0.2,0.9-0.5c0.1-0.4,0.2-1.2,0.2-2.6v-3.1
		h6.4v1c0,2.6-0.2,4.4-0.5,5.4c-0.4,1.1-1.2,2-2.4,2.8c-1.2,0.8-2.8,1.2-4.6,1.2c-1.9,0-3.4-0.3-4.6-1s-2-1.6-2.4-2.8
		c-0.4-1.2-0.6-3-0.6-5.4v-7.2c0-1.8,0.1-3.1,0.2-4c0.1-0.9,0.5-1.7,1.1-2.6c0.6-0.8,1.4-1.5,2.5-1.9c1.1-0.5,2.3-0.7,3.7-0.7
		c1.9,0,3.4,0.4,4.7,1.1c1.2,0.7,2,1.6,2.4,2.7c0.4,1.1,0.6,2.8,0.6,5.1V57.4z"/>
	<path class="st1" d="M132.1,46.7v24.7h-6.4V61h-1.9v10.4h-6.4V46.7h6.4v8.8h1.9v-8.8H132.1z"/>
	<path class="st1" d="M149.3,71.4h-5.4V60.1l-3.3,11.2h-5.6V46.7h5.4v11.1l3.6-11.1h5.4V71.4z"/>
	<path class="st1" d="M172.7,71.4h-6.4V51.6h-1.9v19.7H158V46.7h14.8V71.4z"/>
	<path class="st1" d="M190.2,61.1c0,2.5-0.1,4.2-0.2,5.3c-0.1,1-0.5,2-1.1,2.8s-1.4,1.5-2.5,2c-1,0.5-2.3,0.7-3.7,0.7
		c-1.3,0-2.5-0.2-3.6-0.6c-1.1-0.4-1.9-1.1-2.5-1.9c-0.6-0.9-1-1.8-1.1-2.8c-0.1-1-0.2-2.8-0.2-5.3v-4.2c0-2.5,0.1-4.2,0.2-5.3
		c0.1-1,0.5-2,1.1-2.8c0.6-0.9,1.4-1.5,2.5-2c1-0.5,2.3-0.7,3.7-0.7c1.3,0,2.5,0.2,3.6,0.6c1.1,0.4,1.9,1.1,2.5,1.9
		c0.6,0.9,1,1.8,1.1,2.8c0.1,1,0.2,2.8,0.2,5.3V61.1z M183.8,53c0-1.1-0.1-1.9-0.2-2.2c-0.1-0.3-0.4-0.5-0.8-0.5
		c-0.3,0-0.6,0.1-0.8,0.4c-0.2,0.3-0.3,1-0.3,2.3v11.5c0,1.4,0.1,2.3,0.2,2.7c0.1,0.3,0.4,0.5,0.8,0.5c0.4,0,0.7-0.2,0.8-0.6
		c0.1-0.4,0.2-1.3,0.2-2.8V53z"/>
	<path class="st1" d="M213.5,71.4h-6.4V51.6h-1.9v19.7h-6.4V46.7h14.8V71.4z"/>
	<path class="st1" d="M229.1,46.7L227.3,63c-0.3,2.6-0.6,4.4-0.9,5.4c-0.3,1-0.9,1.8-1.8,2.2c-0.9,0.4-2.4,0.7-4.5,0.7h-3.7v-3.2
		h0.4c0.8,0,1.4-0.1,1.6-0.2c0.2-0.1,0.3-0.3,0.3-0.6c0,0-0.1-0.7-0.4-2.1l-3.4-18.6h5.6l2,15.4l1-15.4H229.1z"/>
	<path class="st1" d="M243.6,46.7v4.9h-3.8v19.7h-6.4V51.6h-3.8v-4.9H243.6z"/>
	<path class="st1" d="M259.7,71.4h-5.4V60.1L251,71.4h-5.6V46.7h5.4v11.1l3.6-11.1h5.4V71.4z"/>
</g>
</svg>
