<?xml version="1.0" encoding="utf-8"?>
<!-- Generator: Adobe Illustrator 19.2.1, SVG Export Plug-In . SVG Version: 6.00 Build 0)  -->
<svg version="1.1" id="Layer_1" xmlns="http://www.w3.org/2000/svg" xmlns:xlink="http://www.w3.org/1999/xlink" x="0px" y="0px"
	 width="450px" height="64px" viewBox="0 0 450 64" style="enable-background:new 0 0 450 64;" xml:space="preserve">
<style type="text/css">
	.st0{fill:#FFFFFF;}
</style>
<g>
	<path class="st0" d="M34.8,1.4v12.3h-9.5v49H9.4v-49H0V1.4H34.8z"/>
	<path class="st0" d="M75.6,37.2c0,6.2-0.1,10.5-0.4,13.1c-0.3,2.6-1.2,4.9-2.7,7c-1.5,2.1-3.6,3.7-6.2,4.9
		c-2.6,1.1-5.6,1.7-9.1,1.7c-3.3,0-6.2-0.5-8.8-1.6c-2.6-1.1-4.7-2.7-6.3-4.8c-1.6-2.1-2.5-4.5-2.8-7c-0.3-2.5-0.5-6.9-0.5-13.2
		V26.8c0-6.2,0.1-10.5,0.4-13.1c0.3-2.6,1.2-4.9,2.7-7c1.5-2.1,3.6-3.7,6.2-4.9c2.6-1.1,5.6-1.7,9.1-1.7c3.3,0,6.2,0.5,8.8,1.6
		c2.6,1.1,4.7,2.7,6.3,4.8c1.6,2.1,2.5,4.5,2.8,7s0.5,6.9,0.5,13.2V37.2z M59.7,17.1c0-2.8-0.2-4.7-0.5-5.5c-0.3-0.8-1-1.2-1.9-1.2
		c-0.8,0-1.5,0.3-1.9,1c-0.4,0.6-0.7,2.5-0.7,5.7v28.6c0,3.6,0.1,5.8,0.4,6.6c0.3,0.8,1,1.2,2,1.2c1.1,0,1.8-0.5,2.1-1.4
		c0.3-1,0.5-3.2,0.5-6.8V17.1z"/>
	<path class="st0" d="M82.3,1.4h16c4.3,0,7.7,0.3,10,1c2.3,0.7,4.1,1.7,5.3,3c1.2,1.3,2,2.8,2.4,4.7c0.4,1.8,0.6,4.7,0.6,8.5v5.3
		c0,3.9-0.4,6.8-1.2,8.5c-0.8,1.8-2.3,3.2-4.4,4.1c-2.2,1-5,1.4-8.5,1.4h-4.3v24.7H82.3V1.4z M98.2,11.9v15.6c0.5,0,0.8,0,1.2,0
		c1.5,0,2.5-0.4,3-1.1c0.6-0.7,0.9-2.2,0.9-4.5v-5c0-2.1-0.3-3.5-1-4.1C101.6,12.2,100.3,11.9,98.2,11.9z"/>
	<path class="st0" d="M171.1,1.4v61.2h-13.9l0-41.3l-5.5,41.3h-9.9l-5.8-40.4l0,40.4h-13.9V1.4h20.6c0.6,3.7,1.2,8,1.9,13l2.3,15.6
		l3.7-28.6H171.1z"/>
	<path class="st0" d="M214.6,37.2c0,6.2-0.1,10.5-0.4,13.1c-0.3,2.6-1.2,4.9-2.7,7c-1.5,2.1-3.6,3.7-6.2,4.9s-5.6,1.7-9.1,1.7
		c-3.3,0-6.2-0.5-8.8-1.6c-2.6-1.1-4.7-2.7-6.3-4.8c-1.6-2.1-2.5-4.5-2.8-7c-0.3-2.5-0.5-6.9-0.5-13.2V26.8c0-6.2,0.1-10.5,0.4-13.1
		c0.3-2.6,1.2-4.9,2.7-7c1.5-2.1,3.6-3.7,6.2-4.9c2.6-1.1,5.6-1.7,9.1-1.7c3.3,0,6.2,0.5,8.8,1.6c2.6,1.1,4.7,2.7,6.3,4.8
		c1.6,2.1,2.5,4.5,2.8,7s0.5,6.9,0.5,13.2V37.2z M198.7,17.1c0-2.8-0.2-4.7-0.5-5.5c-0.3-0.8-1-1.2-1.9-1.2c-0.8,0-1.5,0.3-1.9,1
		c-0.4,0.6-0.7,2.5-0.7,5.7v28.6c0,3.6,0.1,5.8,0.4,6.6c0.3,0.8,1,1.2,2,1.2c1.1,0,1.8-0.5,2.1-1.4c0.3-1,0.5-3.2,0.5-6.8V17.1z"/>
	<path class="st0" d="M249.6,27.9c2.3,0.8,4,2.1,5.2,3.8c1.1,1.8,1.7,5.9,1.7,12.5c0,4.9-0.6,8.6-1.7,11.3c-1.1,2.7-3,4.7-5.7,6.1
		c-2.7,1.4-6.2,2.1-10.5,2.1c-4.8,0-8.6-0.8-11.4-2.4c-2.8-1.6-4.6-3.6-5.4-6c-0.9-2.4-1.3-6.4-1.3-12.3v-4.8h15.3v9.9
		c0,2.6,0.2,4.3,0.5,5s1,1.1,2.1,1.1c1.2,0,2-0.5,2.3-1.4c0.4-0.9,0.6-3.3,0.6-7.1v-4.2c0-2.3-0.3-4.1-0.8-5.1
		c-0.5-1.1-1.3-1.8-2.3-2.1c-1-0.3-3-0.5-6-0.6v-8.9c3.6,0,5.9-0.1,6.7-0.4c0.9-0.3,1.5-0.9,1.9-1.8c0.4-0.9,0.6-2.4,0.6-4.4v-3.4
		c0-2.1-0.2-3.6-0.7-4.2c-0.4-0.7-1.1-1-2.1-1c-1.1,0-1.8,0.4-2.2,1.1c-0.4,0.7-0.6,2.3-0.6,4.6v5h-15.3v-5.2c0-5.8,1.3-9.8,4-11.9
		c2.7-2.1,6.9-3.1,12.7-3.1c7.3,0,12.2,1.4,14.8,4.3c2.6,2.8,3.9,6.8,3.9,11.9c0,3.4-0.5,5.9-1.4,7.4
		C253.6,25.3,251.9,26.7,249.6,27.9z"/>
	<path class="st0" d="M298.7,62.6h-13.3V34.7l-8.3,27.9h-14V1.3h13.3V29l8.9-27.6h13.3V62.6z"/>
	<path class="st0" d="M363.3,62.6h-57.4V1.3h16v49h4.7v-49h16v49h4.7v-49h16V62.6z"/>
	<path class="st0" d="M407.5,48.3c0,4.6-0.6,7.8-1.8,9.8c-1.2,2-3,3.2-5.4,3.7c-2.4,0.5-6.2,0.8-11.5,0.8h-18.4V1.3h16v21h2.5
		c4.9,0,8.6,0.3,11.2,0.9c2.5,0.6,4.4,1.9,5.7,3.8c1.2,2,1.9,5.1,1.9,9.3V48.3z M391.5,46.4v-8.8c0-2.6-0.3-4.1-0.8-4.7
		c-0.5-0.6-2-0.9-4.4-0.9v20.1c2,0,3.4-0.3,4.1-0.8C391.2,50.8,391.5,49.2,391.5,46.4z"/>
	<path class="st0" d="M429.2,21.1h-15.3c0.1-5.4,0.5-9.3,1.4-11.8c0.9-2.5,2.7-4.6,5.6-6.5c2.9-1.9,6.5-2.8,10.9-2.8
		c3.2,0,6,0.5,8.4,1.5c2.4,1,4.3,2.4,5.7,4.2c1.4,1.8,2.4,3.8,3.1,5.8c0.7,2.1,1,5.4,1,9.8V29c0,3.4-0.3,6.1-0.9,8.2
		c-0.6,2.1-2,3.9-4.1,5.4c-2.1,1.6-4.6,2.3-7.5,2.3c-3.7,0-6.5-1.4-8.3-4.3v6.6h-14.3V30.4h13.9c0.1,2.3,0.9,3.5,2.5,3.5
		c1.3,0,2.1-0.5,2.4-1.5c0.3-1,0.5-3.5,0.5-7.5V14.7c0-2.2-0.2-3.8-0.5-4.5c-0.3-0.8-0.9-1.2-1.9-1.2c-1.2,0-1.9,0.5-2.2,1.5
		c-0.3,1-0.5,3.3-0.5,6.9V21.1z M429.2,50.4v12.3h-14.3V50.4H429.2z"/>
</g>
</svg>
