<?xml version="1.0" encoding="utf-8"?>
<!-- Generator: Adobe Illustrator 19.2.1, SVG Export Plug-In . SVG Version: 6.00 Build 0)  -->
<svg version="1.1" id="Layer_1" xmlns="http://www.w3.org/2000/svg" xmlns:xlink="http://www.w3.org/1999/xlink" x="0px" y="0px"
	 width="157px" height="26px" viewBox="0 0 157 26" style="enable-background:new 0 0 157 26;" xml:space="preserve">
<style type="text/css">
	.st0{fill:#FFFFFF;}
</style>
<g>
	<g>
		<path class="st0" d="M11.9,25.6H7.5v-9.4l-2.8,9.4H0V5h4.5v9.3l3-9.3H12C11.9,5,11.9,25.6,11.9,25.6z"/>
		<path class="st0" d="M19.2,5h5.4c1.7,0,3,0.2,3.8,0.4C29.3,5.6,30,6.2,30.5,7s0.8,2.1,0.8,3.9c0,1.2-0.2,2-0.5,2.5
			c-0.4,0.5-1.1,0.9-2.3,1.1c1.2,0.3,2.1,0.8,2.5,1.4c0.5,0.6,0.6,1.6,0.6,3v1.9c0,1.4-0.2,2.4-0.5,3.1s-0.9,1.1-1.6,1.4
			s-2.1,0.4-4.3,0.4H19L19.2,5L19.2,5z M24.6,8.5v4.6c0.2,0,0.4,0,0.5,0c0.5,0,0.9-0.2,1-0.4s0.2-1,0.2-2.2c0-0.6-0.1-1.1-0.2-1.3
			c-0.2-0.2-0.3-0.4-0.5-0.5C25.5,8.5,25.1,8.5,24.6,8.5z M24.6,16.3v5.8c0.8,0,1.2-0.2,1.5-0.4c0.2-0.2,0.3-0.7,0.3-1.6v-2
			c0-0.9-0.1-1.4-0.3-1.6C25.8,16.3,25.4,16.4,24.6,16.3z"/>
		<path class="st0" d="M46.4,20.8c0,1.6-0.2,2.7-0.6,3.3c-0.4,0.6-1,1.1-1.8,1.2c-0.8,0.2-2.1,0.2-3.9,0.2h-6.2V5h5.4v7.1h0.9
			c1.6,0,2.9,0.1,3.7,0.3c0.9,0.2,1.5,0.6,1.9,1.3s0.6,1.7,0.6,3.1C46.4,16.8,46.4,20.8,46.4,20.8z M41,20.2v-3
			c0-0.9-0.1-1.4-0.2-1.6c-0.2-0.2-0.7-0.3-1.5-0.3v6.8c0.7,0,1.2-0.1,1.4-0.2C40.8,21.6,41,21,41,20.2z M53.6,25.6h-5.4V5h5.4V25.6
			z"/>
		<path class="st0" d="M67.8,25.6h-4.5v-9.4l-2.8,9.4h-4.7V5h4.5v9.3l3-9.3h4.5V25.6L67.8,25.6z"/>
		<path class="st0" d="M79.5,9.1h-3.9v16.5h-5.4V5h9.3V9.1z"/>
		<path class="st0" d="M81.2,5h5.4c1.5,0,2.6,0,3.4,0.3c0.8,0.2,1.4,0.5,1.8,1s0.6,0.9,0.8,1.6c0.2,0.6,0.2,1.6,0.2,2.9v1.8
			c0,1.3-0.2,2.3-0.4,2.9c-0.2,0.6-0.8,1.1-1.5,1.4s-1.6,0.5-2.8,0.5h-1.4v8.3h-5.5V5z M86.5,8.5v5.2c0.2,0,0.3,0,0.4,0
			c0.5,0,0.9-0.2,1-0.4s0.3-0.8,0.3-1.5v-1.6c0-0.7-0.1-1.2-0.3-1.4S87.2,8.5,86.5,8.5z"/>
		<path class="st0" d="M107.1,20.8c0,1.6-0.2,2.7-0.6,3.3c-0.4,0.6-1,1.1-1.8,1.2s-2.1,0.2-3.9,0.2h-6.2V5h5.4v7.1h0.9
			c1.6,0,2.9,0.1,3.7,0.3s1.5,0.6,1.9,1.3s0.6,1.7,0.6,3.1V20.8z M101.7,20.2v-3c0-0.9-0.1-1.4-0.2-1.6c-0.2-0.2-0.7-0.3-1.5-0.3
			v6.8c0.7,0,1.2-0.1,1.4-0.2C101.5,21.6,101.7,21,101.7,20.2z M114.2,25.6h-5.4V5h5.4V25.6z"/>
		<path class="st0" d="M116.4,5h5.4c1.7,0,3,0.2,3.8,0.4c0.9,0.2,1.6,0.8,2.1,1.6c0.5,0.8,0.8,2.1,0.8,3.9c0,1.2-0.2,2-0.5,2.5
			s-1.1,0.9-2.3,1.1c1.2,0.3,2.1,0.8,2.5,1.4c0.5,0.6,0.6,1.6,0.6,3v1.9c0,1.4-0.2,2.4-0.5,3.1s-0.9,1.1-1.6,1.4s-2.1,0.4-4.3,0.4
			h-6.2L116.4,5L116.4,5z M121.8,8.5v4.6c0.2,0,0.4,0,0.5,0c0.5,0,0.9-0.2,1-0.4s0.2-1,0.2-2.2c0-0.6-0.1-1.1-0.2-1.3
			c-0.2-0.2-0.3-0.4-0.5-0.5C122.8,8.5,122.4,8.5,121.8,8.5z M121.8,16.3v5.8c0.8,0,1.2-0.2,1.5-0.4c0.2-0.2,0.3-0.7,0.3-1.6v-2
			c0-0.9-0.1-1.4-0.3-1.6C123.1,16.3,122.6,16.4,121.8,16.3z"/>
		<path class="st0" d="M140.4,5l3,20.6H138l-0.3-3.7h-2l-0.3,3.7h-5.5L132.6,5H140.4z M137.6,18.2c-0.2-2.3-0.5-5.2-0.8-8.7
			c-0.5,4-0.9,6.9-1,8.7H137.6z"/>
		<path class="st0" d="M156.6,25.6h-4.5v-9.4l-2.8,9.4h-4.7V5h4.5v9.3l3-9.3h4.5V25.6L156.6,25.6z M152,0.5h2.2
			c-0.1,1.2-0.4,2.1-1,2.8s-1.5,1.1-2.6,1.1s-2-0.4-2.6-1.1s-0.9-1.6-1-2.8h2.2c0.1,1.2,0.5,1.7,1.4,1.7S152,1.7,152,0.5z"/>
	</g>
</g>
</svg>
