<?xml version="1.0" encoding="utf-8"?>
<!-- Generator: Adobe Illustrator 19.2.1, SVG Export Plug-In . SVG Version: 6.00 Build 0)  -->
<svg version="1.1" id="Layer_1" xmlns="http://www.w3.org/2000/svg" xmlns:xlink="http://www.w3.org/1999/xlink" x="0px" y="0px"
	 width="210px" height="50px" viewBox="0 0 210 50" style="enable-background:new 0 0 210 50;" xml:space="preserve">
<style type="text/css">
	.st0{fill:#FFFFFF;}
	.st1{fill:#FAAE19;}
</style>
<g>
	<path class="st0" d="M9.1,19H5.7v-7.1L3.6,19H0V3.4h3.4v7.1l2.3-7.1h3.4V19z"/>
	<path class="st0" d="M14.6,3.4h4.1c1.3,0,2.3,0.1,2.9,0.3c0.7,0.2,1.2,0.6,1.6,1.2c0.4,0.6,0.6,1.6,0.6,2.9c0,0.9-0.1,1.6-0.4,1.9
		c-0.3,0.4-0.9,0.6-1.7,0.8c0.9,0.2,1.6,0.6,1.9,1.1c0.3,0.5,0.5,1.2,0.5,2.3v1.4c0,1.1-0.1,1.8-0.4,2.3c-0.2,0.5-0.6,0.9-1.2,1
		C22,18.9,20.9,19,19.3,19h-4.7V3.4z M18.6,6.1v3.5c0.2,0,0.3,0,0.4,0c0.4,0,0.7-0.1,0.8-0.3C19.9,9.1,20,8.5,20,7.6
		c0-0.5,0-0.8-0.1-1c-0.1-0.2-0.2-0.3-0.4-0.4C19.3,6.1,19.1,6.1,18.6,6.1z M18.6,12v4.4c0.6,0,0.9-0.1,1.1-0.3
		c0.2-0.2,0.2-0.6,0.2-1.2v-1.5c0-0.7-0.1-1.1-0.2-1.2C19.6,12.1,19.2,12,18.6,12z"/>
	<path class="st0" d="M35.2,15.4c0,1.2-0.2,2-0.5,2.5c-0.3,0.5-0.8,0.8-1.4,1C32.7,19,31.7,19,30.4,19h-4.7V3.4h4.1v5.4h0.6
		c1.3,0,2.2,0.1,2.8,0.2c0.6,0.1,1.1,0.5,1.4,1c0.3,0.5,0.5,1.3,0.5,2.4V15.4z M31.1,14.9v-2.3c0-0.7-0.1-1.1-0.2-1.2
		c-0.1-0.1-0.5-0.2-1.1-0.2v5.1c0.5,0,0.9-0.1,1-0.2C31,16,31.1,15.6,31.1,14.9z M40.6,19h-4.1V3.4h4.1V19z"/>
	<path class="st0" d="M51.4,19H48v-7.1L45.9,19h-3.6V3.4h3.4v7.1L48,3.4h3.4V19z"/>
	<path class="st0" d="M60.3,6.5h-3V19h-4.1V3.4h7.1V6.5z"/>
	<path class="st0" d="M61.6,3.4h4.1c1.1,0,2,0.1,2.6,0.3c0.6,0.2,1,0.4,1.3,0.8c0.3,0.3,0.5,0.7,0.6,1.2c0.1,0.5,0.2,1.2,0.2,2.2
		v1.4c0,1-0.1,1.7-0.3,2.2c-0.2,0.5-0.6,0.8-1.1,1.1c-0.6,0.2-1.3,0.4-2.2,0.4h-1.1V19h-4.1V3.4z M65.6,6.1v4c0.1,0,0.2,0,0.3,0
		c0.4,0,0.6-0.1,0.8-0.3c0.1-0.2,0.2-0.6,0.2-1.1V7.4c0-0.5-0.1-0.9-0.3-1C66.5,6.2,66.1,6.1,65.6,6.1z"/>
	<path class="st0" d="M81.2,15.4c0,1.2-0.2,2-0.5,2.5c-0.3,0.5-0.8,0.8-1.4,1C78.7,19,77.7,19,76.4,19h-4.7V3.4h4.1v5.4h0.6
		c1.3,0,2.2,0.1,2.8,0.2c0.6,0.1,1.1,0.5,1.4,1c0.3,0.5,0.5,1.3,0.5,2.4V15.4z M77.1,14.9v-2.3c0-0.7-0.1-1.1-0.2-1.2
		c-0.1-0.1-0.5-0.2-1.1-0.2v5.1c0.5,0,0.9-0.1,1-0.2C77,16,77.1,15.6,77.1,14.9z M86.6,19h-4.1V3.4h4.1V19z"/>
	<path class="st0" d="M88.3,3.4h4.1c1.3,0,2.3,0.1,2.9,0.3c0.7,0.2,1.2,0.6,1.6,1.2c0.4,0.6,0.6,1.6,0.6,2.9c0,0.9-0.1,1.6-0.4,1.9
		c-0.3,0.4-0.9,0.6-1.7,0.8c0.9,0.2,1.6,0.6,1.9,1.1c0.3,0.5,0.5,1.2,0.5,2.3v1.4c0,1.1-0.1,1.8-0.4,2.3c-0.2,0.5-0.6,0.9-1.2,1
		C95.7,18.9,94.6,19,93,19h-4.7V3.4z M92.4,6.1v3.5c0.2,0,0.3,0,0.4,0c0.4,0,0.7-0.1,0.8-0.3s0.2-0.8,0.2-1.7c0-0.5,0-0.8-0.1-1
		c-0.1-0.2-0.2-0.3-0.4-0.4C93.1,6.1,92.8,6.1,92.4,6.1z M92.4,12v4.4c0.6,0,0.9-0.1,1.1-0.3c0.2-0.2,0.2-0.6,0.2-1.2v-1.5
		c0-0.7-0.1-1.1-0.2-1.2C93.3,12.1,93,12,92.4,12z"/>
	<path class="st0" d="M106.4,3.4l2.3,15.6h-4.2l-0.2-2.8h-1.5l-0.2,2.8h-4.2l2.1-15.6H106.4z M104.3,13.5c-0.2-1.8-0.4-4-0.6-6.6
		c-0.4,3-0.7,5.2-0.8,6.6H104.3z"/>
	<path class="st0" d="M118.7,19h-3.4v-7.1l-2.1,7.1h-3.6V3.4h3.4v7.1l2.3-7.1h3.4V19z M115.3,0h1.6c0,0.9-0.3,1.6-0.8,2.1
		c-0.5,0.5-1.1,0.8-2,0.8c-0.8,0-1.5-0.3-2-0.8c-0.5-0.5-0.7-1.2-0.8-2.1h1.6c0.1,0.9,0.4,1.3,1.1,1.3C114.8,1.3,115.2,0.9,115.3,0z
		"/>
	<path class="st1" d="M131,3.4v3.4L128.5,19h-3.9l2.8-12.8h-3.9V3.4H131z"/>
	<path class="st1" d="M141.3,8.7v5.2c0,1.2-0.1,2-0.2,2.6c-0.1,0.5-0.4,1-0.8,1.5c-0.4,0.5-0.9,0.8-1.5,1c-0.6,0.2-1.2,0.3-1.9,0.3
		c-0.9,0-1.7-0.1-2.3-0.3c-0.6-0.2-1.1-0.6-1.5-1c-0.4-0.5-0.6-0.9-0.8-1.4c-0.2-0.5-0.2-1.3-0.2-2.4V8.7c0-1.4,0.1-2.5,0.4-3.2
		c0.2-0.7,0.7-1.3,1.5-1.7c0.7-0.4,1.6-0.6,2.7-0.6c0.9,0,1.6,0.1,2.3,0.4c0.7,0.3,1.2,0.7,1.5,1.1c0.3,0.4,0.6,0.9,0.7,1.5
		S141.3,7.5,141.3,8.7z M137.4,7.4c0-0.8,0-1.4-0.1-1.6s-0.3-0.3-0.6-0.3c-0.3,0-0.5,0.1-0.6,0.3C136,6.1,136,6.6,136,7.4V15
		c0,0.9,0,1.5,0.1,1.6c0.1,0.2,0.3,0.3,0.6,0.3c0.3,0,0.5-0.1,0.6-0.3c0.1-0.2,0.1-0.7,0.1-1.5V7.4z"/>
	<path class="st1" d="M156,19h-4.1V6.5h-1.2V19h-4.1V3.4h9.4V19z"/>
	<path class="st1" d="M157.8,3.4h4.1c1.1,0,2,0.1,2.6,0.3c0.6,0.2,1,0.4,1.3,0.8c0.3,0.3,0.5,0.7,0.6,1.2c0.1,0.5,0.2,1.2,0.2,2.2
		v1.4c0,1-0.1,1.7-0.3,2.2c-0.2,0.5-0.6,0.8-1.1,1.1c-0.6,0.2-1.3,0.4-2.2,0.4h-1.1V19h-4.1V3.4z M161.9,6.1v4c0.1,0,0.2,0,0.3,0
		c0.4,0,0.6-0.1,0.8-0.3c0.1-0.2,0.2-0.6,0.2-1.1V7.4c0-0.5-0.1-0.9-0.3-1C162.8,6.2,162.4,6.1,161.9,6.1z"/>
	<path class="st1" d="M177,19h-3.4v-7.1l-2.1,7.1H168V3.4h3.4v7.1l2.3-7.1h3.4V19z"/>
	<path class="st1" d="M186.1,10.2c0.6,0.2,1,0.5,1.3,1c0.3,0.5,0.4,1.5,0.4,3.2c0,1.2-0.1,2.2-0.4,2.9c-0.3,0.7-0.8,1.2-1.5,1.6
		s-1.6,0.5-2.7,0.5c-1.2,0-2.2-0.2-2.9-0.6c-0.7-0.4-1.2-0.9-1.4-1.5c-0.2-0.6-0.3-1.6-0.3-3.1v-1.2h3.9v2.5c0,0.7,0,1.1,0.1,1.3
		c0.1,0.2,0.3,0.3,0.5,0.3c0.3,0,0.5-0.1,0.6-0.3c0.1-0.2,0.1-0.8,0.1-1.8v-1.1c0-0.6-0.1-1-0.2-1.3c-0.1-0.3-0.3-0.5-0.6-0.5
		c-0.3-0.1-0.8-0.1-1.5-0.1V9.4c0.9,0,1.5,0,1.7-0.1c0.2-0.1,0.4-0.2,0.5-0.5c0.1-0.2,0.1-0.6,0.1-1.1V6.9c0-0.5-0.1-0.9-0.2-1.1
		c-0.1-0.2-0.3-0.3-0.5-0.3c-0.3,0-0.5,0.1-0.6,0.3c-0.1,0.2-0.1,0.6-0.1,1.2v1.3h-3.9V6.9c0-1.5,0.3-2.5,1-3
		c0.7-0.5,1.8-0.8,3.3-0.8c1.9,0,3.1,0.4,3.8,1.1c0.7,0.7,1,1.7,1,3c0,0.9-0.1,1.5-0.4,1.9C187.1,9.5,186.7,9.9,186.1,10.2z"/>
	<path class="st1" d="M198.8,12.6c0,1.6,0,2.7-0.1,3.3c-0.1,0.7-0.3,1.3-0.7,1.8c-0.4,0.5-0.9,1-1.6,1.2c-0.7,0.3-1.4,0.4-2.3,0.4
		c-0.8,0-1.6-0.1-2.3-0.4c-0.7-0.3-1.2-0.7-1.6-1.2c-0.4-0.5-0.6-1.1-0.7-1.8c-0.1-0.6-0.1-1.8-0.1-3.4V9.9c0-1.6,0-2.7,0.1-3.3
		c0.1-0.7,0.3-1.3,0.7-1.8c0.4-0.5,0.9-1,1.6-1.2c0.7-0.3,1.4-0.4,2.3-0.4c0.8,0,1.6,0.1,2.3,0.4c0.7,0.3,1.2,0.7,1.6,1.2
		c0.4,0.5,0.6,1.1,0.7,1.8c0.1,0.6,0.1,1.8,0.1,3.4V12.6z M194.8,7.4c0-0.7,0-1.2-0.1-1.4c-0.1-0.2-0.2-0.3-0.5-0.3
		c-0.2,0-0.4,0.1-0.5,0.2c-0.1,0.2-0.2,0.6-0.2,1.5v7.3c0,0.9,0,1.5,0.1,1.7c0.1,0.2,0.2,0.3,0.5,0.3c0.3,0,0.5-0.1,0.5-0.4
		c0.1-0.2,0.1-0.8,0.1-1.7V7.4z"/>
	<path class="st1" d="M200.5,3.4h4.1c1.3,0,2.3,0.1,2.9,0.3c0.7,0.2,1.2,0.6,1.6,1.2c0.4,0.6,0.6,1.6,0.6,2.9c0,0.9-0.1,1.6-0.4,1.9
		c-0.3,0.4-0.9,0.6-1.7,0.8c0.9,0.2,1.6,0.6,1.9,1.1c0.3,0.5,0.5,1.2,0.5,2.3v1.4c0,1.1-0.1,1.8-0.4,2.3c-0.2,0.5-0.6,0.9-1.2,1
		c-0.5,0.2-1.6,0.3-3.2,0.3h-4.7V3.4z M204.6,6.1v3.5c0.2,0,0.3,0,0.4,0c0.4,0,0.7-0.1,0.8-0.3s0.2-0.8,0.2-1.7c0-0.5,0-0.8-0.1-1
		c-0.1-0.2-0.2-0.3-0.4-0.4C205.3,6.1,205,6.1,204.6,6.1z M204.6,12v4.4c0.6,0,0.9-0.1,1.1-0.3c0.2-0.2,0.2-0.6,0.2-1.2v-1.5
		c0-0.7-0.1-1.1-0.2-1.2C205.6,12.1,205.2,12,204.6,12z"/>
	<path class="st0" d="M0,25.6h4.1l0,6.6c0.8,0,1.2-0.4,1.2-1.3l0.1-3.1c0-1.1,0.2-1.9,0.7-2.3h3.8C9.4,26,9.2,26.8,9.2,28l0,2.7
		c0,1.6-0.9,2.5-2.7,2.8c1.8,0.2,2.8,1.2,2.7,2.8l0,2.5c0,1.2,0.2,2,0.5,2.5H6c-0.4-0.4-0.7-1.2-0.7-2.3V36c0-0.4-0.1-0.7-0.4-0.9
		c-0.2-0.2-0.5-0.4-0.9-0.4l0,6.6H0V25.6z"/>
	<path class="st0" d="M17.8,25.7l2.3,15.6H16l-0.2-2.8h-1.5l-0.2,2.8H9.9L12,25.7H17.8z M15.7,35.7c-0.2-1.8-0.4-4-0.6-6.6
		c-0.4,3-0.7,5.2-0.8,6.6H15.7z"/>
	<path class="st0" d="M25.5,34.6c-0.9,0-1.3,0.4-1.3,1.1v4.1c0,0.5-0.1,0.9-0.2,1.2c-0.1,0.2-0.2,0.3-0.3,0.3h-3.4
		c0.3-0.4,0.4-1,0.4-1.9v-3.5c0-0.7,0.2-1.3,0.6-1.7c0.4-0.4,1.1-0.7,2.1-0.8v0c-1.8-0.1-2.7-0.9-2.7-2.5v-3.3
		c0-0.8-0.1-1.4-0.4-1.8h3.4c0.1,0,0.2,0.2,0.3,0.4s0.1,0.6,0.1,1.1V31c0,0.7,0.4,1.1,1.3,1.1v-6.5h4.1v6.5c0.9,0,1.3-0.4,1.3-1.1
		v-3.9c0-0.5,0.1-0.9,0.2-1.1c0.1-0.2,0.2-0.3,0.3-0.3h3.4c-0.3,0.4-0.4,1-0.4,1.8v3.3c0,1.6-0.9,2.5-2.8,2.5v0
		c1,0.2,1.7,0.4,2.1,0.8c0.4,0.4,0.6,1,0.6,1.7v3.5c0,0.8,0.1,1.4,0.4,1.9h-3.4c-0.1,0-0.2-0.2-0.3-0.4c-0.1-0.2-0.1-0.6-0.1-1.1
		v-4.1c0-0.7-0.4-1.1-1.3-1.1v6.7h-4.1V34.6z"/>
	<path class="st0" d="M47.5,44h-2.8v-2.7h-6.6V44h-2.8v-6h0.8c0.4-1.3,0.8-3,1.1-5.1c0.3-2.1,0.4-4.4,0.4-6.9v-0.5h9V38h0.8V44z
		 M42.6,38v-9.3h-1.2v0.1c0,3-0.3,6-1,9.2H42.6z"/>
	<path class="st0" d="M58.4,37.6c0,1.2-0.2,2-0.5,2.5c-0.3,0.5-0.8,0.8-1.4,1c-0.6,0.1-1.6,0.2-2.9,0.2H49V25.6H53V31h0.6
		c1.3,0,2.2,0.1,2.8,0.2c0.6,0.1,1.1,0.5,1.4,1c0.3,0.5,0.5,1.3,0.5,2.4V37.6z M54.4,37.2v-2.3c0-0.7-0.1-1.1-0.2-1.2
		c-0.1-0.1-0.5-0.2-1.1-0.2v5.1c0.5,0,0.9-0.1,1-0.2C54.3,38.3,54.4,37.9,54.4,37.2z M63.9,41.3h-4.1V25.6h4.1V41.3z"/>
	<path class="st0" d="M74.7,41.3h-3.4v-7.1l-2.1,7.1h-3.6V25.6H69v7.1l2.3-7.1h3.4V41.3z M71.2,22.2h1.6c0,0.9-0.3,1.6-0.8,2.1
		c-0.5,0.5-1.1,0.8-2,0.8c-0.8,0-1.5-0.3-2-0.8c-0.5-0.5-0.7-1.2-0.8-2.1H69c0.1,0.9,0.4,1.3,1.1,1.3C70.8,23.6,71.1,23.1,71.2,22.2
		z"/>
	<path class="st0" d="M91.8,44H89v-2.7h-6.6V44h-2.8v-6h0.8c0.4-1.3,0.8-3,1.1-5.1c0.3-2.1,0.4-4.4,0.4-6.9v-0.5h9V38h0.8V44z
		 M86.9,38v-9.3h-1.2v0.1c0,3-0.3,6-1,9.2H86.9z"/>
	<path class="st0" d="M93.2,25.7h6.8v3.1h-2.7v3h2.5v3h-2.5v3.4h3v3.1h-7V25.7z"/>
	<path class="st0" d="M111,25.7v15.6h-4.1v-6.6h-1.2v6.6h-4.1V25.7h4.1v5.6h1.2v-5.6H111z"/>
	<path class="st0" d="M122.3,37.6c0,1.2-0.2,2-0.5,2.5c-0.3,0.5-0.8,0.8-1.4,1c-0.6,0.1-1.6,0.2-2.9,0.2h-4.7V25.6h4.1V31h0.6
		c1.3,0,2.2,0.1,2.8,0.2c0.6,0.1,1.1,0.5,1.4,1c0.3,0.5,0.5,1.3,0.5,2.4V37.6z M118.2,37.2v-2.3c0-0.7-0.1-1.1-0.2-1.2
		c-0.1-0.1-0.5-0.2-1.1-0.2v5.1c0.5,0,0.9-0.1,1-0.2C118.1,38.3,118.2,37.9,118.2,37.2z"/>
	<path class="st0" d="M128.1,25.7l-0.6,11.8h-3l-0.6-11.8H128.1z M127.8,38.2v3.1h-3.6v-3.1H127.8z"/>
</g>
</svg>
