<?xml version="1.0" encoding="utf-8"?>
<!-- Generator: Adobe Illustrator 19.2.1, SVG Export Plug-In . SVG Version: 6.00 Build 0)  -->
<svg version="1.1" id="Layer_1" xmlns="http://www.w3.org/2000/svg" xmlns:xlink="http://www.w3.org/1999/xlink" x="0px" y="0px"
	 width="324px" height="150px" viewBox="0 0 324 150" style="enable-background:new 0 0 324 150;" xml:space="preserve">
<style type="text/css">
	.st0{fill:#FAAE19;}
</style>
<g>
	<path class="st0" d="M33.3,28.5h-14v-9.3c0-2.7-0.2-4.4-0.4-5.1s-1-1-2-1c-1.1,0-1.9,0.4-2.2,1.2s-0.5,2.6-0.5,5.3v25
		c0,2.6,0.2,4.3,0.5,5.1s1,1.2,2.1,1.2c1,0,1.7-0.4,2-1.2s0.5-2.7,0.5-5.6v-6.8h14v2.1c0,5.6-0.4,9.5-1.2,11.8
		c-0.8,2.3-2.5,4.4-5.2,6.1c-2.7,1.8-6,2.6-9.9,2.6c-4.1,0-7.5-0.7-10.1-2.2c-2.7-1.5-4.4-3.5-5.3-6.2c-0.9-2.6-1.3-6.6-1.3-11.8
		V24.1c0-3.9,0.1-6.8,0.4-8.7c0.3-1.9,1.1-3.8,2.4-5.6C4.4,8,6.2,6.6,8.6,5.6c2.3-1,5-1.5,8-1.5c4.1,0,7.5,0.8,10.2,2.4
		s4.4,3.6,5.3,6s1.3,6.1,1.3,11.1v4.9H33.3z"/>
	<path class="st0" d="M71.1,5.1v53.7h-14V36.3h-4.2v22.6h-14V5.1h14v19.2h4.2V5.1H71.1z"/>
	<path class="st0" d="M108.6,58.9H96.9V34.4l-7.3,24.5H77.4V5.1h11.7v24.3l7.8-24.3h11.7V58.9z"/>
	<path class="st0" d="M114.9,5.1h14l0.1,22.7c2.6-0.1,4-1.5,4.1-4.4l0.3-10.5c0.1-3.9,0.8-6.5,2.3-7.8h12.9c-1.3,1.3-1.9,4-1.9,8.1
		l0.1,9.2c0,5.6-3.1,8.8-9.4,9.5c6.3,0.8,9.5,4,9.4,9.7l-0.1,8.6c0,4.1,0.6,7,1.9,8.7h-12.9c-1.5-1.3-2.3-4-2.3-7.8V40.5
		c0-1.3-0.4-2.4-1.2-3.2s-1.9-1.2-3.1-1.2L129,58.9h-14V5.1H114.9z"/>
	<path class="st0" d="M152,5.1h23.3v10.8H166v10.2h8.7v10.2H166v11.8h10.3v10.8h-24.2V5.1H152z"/>
	<path class="st0" d="M180.9,5.1H195c3.8,0,6.7,0.3,8.8,0.9c2,0.6,3.6,1.5,4.6,2.6s1.7,2.5,2.1,4.1c0.4,1.6,0.5,4.1,0.5,7.5v4.7
		c0,3.4-0.4,5.9-1.1,7.5c-0.7,1.6-2,2.8-3.9,3.6s-4.4,1.3-7.4,1.3h-3.8v21.6h-14L180.9,5.1L180.9,5.1z M194.9,14.3V28
		c0.4,0,0.7,0,1,0c1.3,0,2.2-0.3,2.7-0.9s0.7-1.9,0.7-3.9v-4.4c0-1.8-0.3-3-0.9-3.6C197.9,14.6,196.7,14.3,194.9,14.3z"/>
	<path class="st0" d="M248.4,28.5h-14v-9.3c0-2.7-0.2-4.4-0.4-5.1s-1-1-2-1c-1.1,0-1.9,0.4-2.2,1.2c-0.3,0.8-0.5,2.6-0.5,5.3v25
		c0,2.6,0.2,4.3,0.5,5.1s1,1.2,2.1,1.2c1,0,1.7-0.4,2-1.2s0.5-2.7,0.5-5.6v-6.8h14v2.1c0,5.6-0.4,9.5-1.2,11.8
		c-0.8,2.3-2.5,4.4-5.2,6.1c-2.7,1.8-6,2.6-9.9,2.6c-4.1,0-7.5-0.7-10.1-2.2c-2.7-1.5-4.4-3.5-5.3-6.2c-0.9-2.6-1.3-6.6-1.3-11.8
		V24.1c0-3.9,0.1-6.8,0.4-8.7c0.3-1.9,1.1-3.8,2.4-5.6c1.3-1.8,3.1-3.2,5.5-4.2c2.3-1,5-1.5,8-1.5c4.1,0,7.5,0.8,10.2,2.4
		s4.4,3.6,5.3,6c0.8,2.4,1.3,6.1,1.3,11.1L248.4,28.5L248.4,28.5z"/>
	<path class="st0" d="M286.2,5.1v53.7h-14V36.3H268v22.6h-14V5.1h14v19.2h4.2V5.1H286.2z"/>
	<path class="st0" d="M323.7,58.9H312V34.4l-7.3,24.5h-12.2V5.1h11.7v24.3L312,5.1h11.7V58.9z"/>
</g>
<g>
	<path class="st0" d="M47.1,150.7H26.7V87.9h-6v62.8H0.3V72.2h46.8V150.7z"/>
	<path class="st0" d="M102.9,118.1c0,7.9-0.1,13.4-0.6,16.8c-0.4,3.2-1.6,6.3-3.5,9c-1.9,2.8-4.5,4.8-7.9,6.3
		c-3.4,1.5-7.2,2.2-11.7,2.2c-4.2,0-8-0.7-11.4-2c-3.4-1.3-6-3.4-8-6.1c-2-2.8-3.2-5.7-3.6-8.9c-0.4-3.2-0.6-8.9-0.6-16.9V105
		c0-7.9,0.1-13.4,0.6-16.8c0.4-3.2,1.6-6.3,3.5-9c1.9-2.8,4.5-4.8,7.9-6.3c3.4-1.5,7.2-2.2,11.7-2.2c4.2,0,8,0.7,11.4,2
		c3.4,1.3,6,3.5,8,6.1c2,2.8,3.2,5.7,3.6,8.9c0.4,3.2,0.6,8.9,0.6,16.9V118.1z M82.5,92.3c0-3.6-0.1-6-0.6-7c-0.4-1-1.2-1.5-2.5-1.5
		c-1,0-1.9,0.4-2.5,1.2c-0.6,0.9-0.9,3.2-0.9,7.3v36.6c0,4.5,0.1,7.3,0.6,8.5c0.4,1,1.2,1.6,2.6,1.6c1.5,0,2.3-0.6,2.6-1.9
		c0.4-1.2,0.6-4.1,0.6-8.8L82.5,92.3L82.5,92.3z"/>
	<path class="st0" d="M176.9,150.7h-20.4V87.9h-6v62.8H130V72.2h47v78.5H176.9z"/>
	<path class="st0" d="M226.4,72.2l-5.5,52c-0.9,8.2-1.8,14-2.8,17.2c-1,3.4-2.9,5.7-5.8,7.2c-2.9,1.5-7.6,2.2-14.2,2.2h-12v-10.1
		h1.2c2.6,0,4.4-0.1,5-0.6c0.6-0.4,0.9-1.2,0.9-2c0,0-0.4-2.3-1.2-6.6l-10.5-59.3h17.7l6.4,48.9l3.2-48.9
		C208.7,72.2,226.4,72.2,226.4,72.2z"/>
	<path class="st0" d="M272.6,72.2v15.8h-12.1v62.8h-20.4V87.9H228V72.2H272.6z"/>
	<path class="st0" d="M323.7,150.7h-17.1v-35.8L296,150.7h-17.8V72.2h17.1v35.5l11.4-35.5h17.1V150.7z"/>
</g>
</svg>
