<?xml version="1.0" encoding="utf-8"?>
<!-- Generator: Adobe Illustrator 19.2.1, SVG Export Plug-In . SVG Version: 6.00 Build 0)  -->
<svg version="1.1" id="Layer_1" xmlns="http://www.w3.org/2000/svg" xmlns:xlink="http://www.w3.org/1999/xlink" x="0px" y="0px"
	 width="246px" height="70px" viewBox="0 0 246 70" style="enable-background:new 0 0 246 70;" xml:space="preserve">
<style type="text/css">
	.st0{fill:#ED1C25;}
	.st1{fill:#FFFFFF;}
	.st2{fill:#2F3191;}
	.st3{fill-rule:evenodd;clip-rule:evenodd;fill:#FFFFFF;}
	.st4{fill-rule:evenodd;clip-rule:evenodd;fill:#FF0004;}
	.st5{fill:#FF0004;}
</style>
<g>
	<g>
		<path class="st0" d="M42.4,0C27.6,0,21.6,10.1,19.4,16.3L0.1,69.9h203.4c14.9,0,21-10.2,23.1-16.3L245.9,0H42.4z"/>
		<g>
			<path class="st1" d="M42.4,6.4c-7,0-13.8,3-17.1,12L9.2,63.5h194.4c7,0,13.8-3,17.1-12l16.2-45.1H42.4z"/>
		</g>
		<g>
			<path class="st2" d="M213.3,27.3h10.6l5.4-14.8c0,0-1-0.4-2.9-0.8c-1.8-0.4-4.6-0.8-8.1-0.8c-10.8,0-13.4,2.9-16.8,12.5
				c-2.7,7.7-1,10.4,2.5,13.9c2.4,2.4,4.4,3.9,2.8,7.8l-1.9,5c-0.5,1.2-0.9,1.7-1.6,1.7c-1.2,0-1.2-0.7-0.7-2l3-7.8l-10.5,0
				l-5.8,15.7c0,0,1.5,0.4,3.6,0.7c2.1,0.4,4.9,0.7,7.9,0.7c10.9,0,13.1-3.1,16.2-11.9c2.9-8.1,1.9-11.3-2.4-15.6
				c-2.9-2.9-3.7-4.2-2.5-7.3l1.2-3.3c0.5-1.3,0.9-1.7,1.8-1.7c0.7,0,1.1,0.4,0.6,1.8L213.3,27.3z M191.5,38.1
				c-0.3-0.7-0.7-1.4-1.2-1.9c0.1,0,0.4-0.1,0.6-0.2c2.8-1.1,4.9-3.4,6-6.2l2.6-7c2.5-6.9-0.1-11.3-6.7-11.3h-12.5l-17.1,46.9h10.5
				l7-19.5l0.1,0c1.2,0,1.6,1.3,0.7,3.8l-5.3,15.7h10.3l4.9-14.2C192.4,41.5,192.1,39.5,191.5,38.1z M189.3,22.3l-2.4,6.8
				c-0.6,1.7-1.5,2.6-2.9,2.6l-0.7,0l4.4-12l0.4,0C189.4,19.6,190.1,20.2,189.3,22.3z M157.4,11.5h-11.2l-10.1,14.3l5.5-14.3h-11.1
				l-17.1,46.9h11.2l5.5-16.6l-0.3,16.6h10.9l-0.5-23.6L157.4,11.5z M107.6,37.4l-4.5,12.3c-0.5,1.3-0.8,2-2,2
				c-1.1,0-0.9-0.8-0.5-1.9l10.5-28.9c0.5-1.4,0.8-1.8,1.9-1.8c0.9,0,0.9,0.6,0.5,1.9l-3.9,10.6l10.5,0l7-19.1c0,0-0.9-0.4-2.7-0.8
				c-1.8-0.4-4.5-0.7-8.2-0.8c-10.7,0-13,2.3-16,10.7l-9.8,27.1c-2.2,6-0.5,10.4,8.6,10.4c9.8,0,12.3-3.1,14.4-9.1l4.6-12.6
				L107.6,37.4z M89.2,11.5L72.2,58.4h11.6l17.1-46.9H89.2z M77.4,11.5l-7.6,22.1l2.1-22.1H59.9L42.8,58.4h8.4l7.8-22l-2,22h11.8
				l16.9-46.9H77.4z M41.9,31.5c-2.9-2.9-3.7-4.2-2.5-7.3l1.2-3.3c0.5-1.3,0.9-1.7,1.8-1.7c0.7,0,1.1,0.4,0.6,1.8l-2.3,6.3l10.6,0
				l5.3-14.8c0,0-1-0.4-2.8-0.8c-1.8-0.4-4.6-0.8-8.1-0.8c-10.8,0-13.4,2.9-16.8,12.5c-2.7,7.7-1,10.4,2.5,13.9
				c2.4,2.4,4.4,3.9,2.8,7.8l-1.9,5c-0.5,1.2-0.9,1.7-1.6,1.7c-1.1,0-1.2-0.7-0.7-2l3-7.8l-10.5,0l-5.8,15.7c0,0,1.5,0.4,3.6,0.7
				c2.1,0.4,5,0.7,7.9,0.7c10.9,0,13.1-3,16.2-11.9C47.2,39.1,46.2,35.8,41.9,31.5z M160,38.7l6.4,0l2.9-8l-6.4,0l4-11.3l8.2,0
				l3-7.9h-19.3l-17.1,46.9H161l2.8-7.8h-8.1L160,38.7z"/>
			<path class="st3" d="M195.6,42.7L190.3,57l0.7,0.1l5.3-14.5H195.6z M215.7,18.4c-0.1,0-0.3,0-0.4,0c1.4,0.2,1.6,1.4,1.1,2.6
				l-2,5.4h0.7l2-5.4C217.7,19.7,217.4,18.4,215.7,18.4z M207,38.5c-5-5.1-7-6.7-4.1-14.9c3.2-9.2,5.5-11.9,15.6-11.9l-0.3,0
				c-10.4,0-12.7,2.6-16,11.9c-2.9,8.2-0.9,9.7,4.1,14.8c2,2.1,2.4,3.9,1.2,6.9l-1.7,4.5c-0.6,1.5-1.1,2.5-2.3,2.6
				c0.1,0,0.3,0,0.4,0c1.4,0,2-1,2.6-2.7l1.7-4.5C209.4,42.4,209.1,40.5,207,38.5z M180.8,12.3l-16.5,45.3h0.7l16.5-45.3H180.8z
				 M181.4,38.1l-0.5,0c2.4,0.1,2.4,2.4,1.4,5.1l-4.9,14.4h0.7l4.9-14.4C184,40.4,184,38.1,181.4,38.1z M188.8,18.8l-0.7,0
				c1.9,0,2.9,1.1,2,3.8l-2.4,6.8c-0.7,1.9-1.8,3.1-3.6,3.1h0.7c1.8,0,2.9-1.2,3.6-3.1l2.4-6.8C191.8,19.9,190.7,18.8,188.8,18.8z
				 M130.9,39.6l-0.2,18h0.7l0.3-20.3L130.9,39.6z M146.6,12.3l-11.7,16.3l-0.8,2.2l13.2-18.5H146.6z M114.6,57.6h0.7l16.5-45.3
				h-0.7L114.6,57.6z M113.8,18.3c-0.1,0-0.3,0-0.4,0c1.3,0.2,1.5,1.3,1,2.6l-3.6,9.9l0.7,0l3.6-9.8
				C115.6,19.6,115.3,18.3,113.8,18.3z M103.8,50c-0.5,1.3-1,2.4-2.3,2.5c0.1,0,0.2,0,0.4,0c1.7,0,2.2-1.1,2.7-2.5l4.3-11.8l-0.7,0
				L103.8,50z M100.9,22L91.1,49c-2,5.5-0.7,9.3,7.9,9.3h0.4c-8.2-0.1-9.5-3.8-7.5-9.3l9.8-27c2.9-8,4.8-10.1,14.9-10.2l-0.4,0
				C105.8,11.8,103.9,13.9,100.9,22z M73.3,57.6H74l16.5-45.3h-0.7L73.3,57.6z M57.9,57.6h0.7l2.3-26.5l-1,2.7L57.9,57.6z
				 M43.9,57.6l0.7,0l16.6-45.3h-0.7L43.9,57.6z M78,12.3l-8.6,24.2l-0.3,2.8l9.6-27.1H78z M23,42.7L17.7,57l0.7,0.2l5.3-14.5
				L23,42.7z M43.1,18.4c-0.1,0-0.3,0-0.4,0c1.4,0.2,1.6,1.4,1.1,2.6l-2,5.4l0.7,0l2-5.4C45.1,19.7,44.8,18.4,43.1,18.4z M29.6,23.6
				c-2.9,8.2-0.9,9.7,4.1,14.9c2,2.1,2.4,3.9,1.2,6.9l-1.7,4.5c-0.6,1.5-1.1,2.5-2.3,2.6c0.1,0,0.3,0,0.4,0c1.4,0,2-1,2.6-2.7
				l1.7-4.5c1.1-3,0.8-4.8-1.2-6.9c-5-5.1-7-6.7-4.1-14.9c3.2-9.2,5.5-11.9,15.6-11.9l-0.3,0C35.2,11.7,32.9,14.3,29.6,23.6z
				 M142.8,57.6h0.7L160,12.3h-0.7L142.8,57.6z"/>
		</g>
		<g>
			<path class="st4" d="M223.7,63.4c-1.8,0-3.3,1.4-3.3,3.3c0,1.9,1.4,3.3,3.3,3.3c1.8,0,3.3-1.4,3.3-3.3
				C226.9,64.9,225.5,63.4,223.7,63.4z M223.7,69.3c-1.5,0-2.6-1.1-2.6-2.6c0-1.5,1.2-2.6,2.6-2.6c1.5,0,2.6,1.1,2.6,2.6
				C226.3,68.2,225.1,69.3,223.7,69.3z"/>
			<path class="st5" d="M222.3,65h1.4c0.4,0,0.7,0.1,0.9,0.3c0.2,0.2,0.3,0.4,0.3,0.7v0c0,0.6-0.3,0.9-0.8,1l0.9,1.3h-0.7l-0.8-1.2
				h0h-0.7v1.2h-0.6V65z M223.7,66.7c0.4,0,0.7-0.2,0.7-0.6v0c0-0.4-0.2-0.6-0.7-0.6h-0.8v1.1H223.7z"/>
		</g>
	</g>
</g>
</svg>
