<?xml version="1.0" encoding="utf-8"?>
<!-- Generator: Adobe Illustrator 19.2.1, SVG Export Plug-In . SVG Version: 6.00 Build 0)  -->
<svg version="1.1" id="Layer_1" xmlns="http://www.w3.org/2000/svg" xmlns:xlink="http://www.w3.org/1999/xlink" x="0px" y="0px"
	 width="543.3px" height="96.3px" viewBox="0 0 543.3 96.3" style="enable-background:new 0 0 543.3 96.3;" xml:space="preserve">
<style type="text/css">
	.st0{fill:#FFFFFF;}
</style>
<g>
	<path class="st0" d="M41.8,42.4c3.3,1.1,5.7,2.9,7.3,5.4c1.6,2.5,2.4,8.4,2.4,17.7c0,6.9-0.8,12.2-2.3,16c-1.6,3.8-4.3,6.7-8.1,8.7
		c-3.8,2-8.8,3-14.8,3c-6.8,0-12.2-1.1-16.1-3.4c-3.9-2.3-6.5-5.1-7.7-8.4c-1.2-3.3-1.8-9.1-1.8-17.3V57h21.6v14
		c0,3.7,0.2,6.1,0.7,7.1c0.4,1,1.4,1.5,3,1.5c1.7,0,2.8-0.6,3.3-1.9c0.5-1.3,0.8-4.6,0.8-10v-6c0-3.3-0.4-5.7-1.1-7.3
		c-0.7-1.5-1.9-2.5-3.3-3s-4.3-0.8-8.5-0.8V38.1c5.1,0,8.3-0.2,9.5-0.6c1.2-0.4,2.1-1.2,2.6-2.6c0.5-1.3,0.8-3.4,0.8-6.2V24
		c0-3-0.3-5-0.9-6c-0.6-1-1.6-1.4-2.9-1.4c-1.5,0-2.5,0.5-3.1,1.5c-0.6,1-0.8,3.2-0.8,6.5v7.1H0.6v-7.4c0-8.3,1.9-13.8,5.7-16.7
		c3.8-2.9,9.8-4.4,18-4.4c10.3,0,17.3,2,20.9,6s5.5,9.6,5.5,16.8c0,4.8-0.7,8.3-2,10.5C47.4,38.6,45.1,40.6,41.8,42.4z"/>
	<path class="st0" d="M98.8,4.9l12.9,86.5h-23l-1.2-15.5h-8l-1.4,15.5H54.8L66.3,4.9H98.8z M86.9,60.5c-1.1-9.8-2.3-21.9-3.4-36.3
		c-2.3,16.6-3.7,28.7-4.3,36.3H86.9z"/>
	<path class="st0" d="M170.4,91.4h-22.5V22.2h-6.6v49c0,6.4-0.8,11.1-2.5,13.9c-1.7,2.8-4.2,4.6-7.6,5.3c-3.4,0.7-8.8,1.1-16.2,1.1
		h-3.5V76.5c2.7,0,4.6-0.3,5.7-1c1-0.7,1.5-3,1.5-6.9V4.9h51.6V91.4z"/>
	<path class="st0" d="M229.5,91.4h-18.8V52L199,91.4h-19.7V4.9h18.8v39l12.6-39h18.8V91.4z"/>
	<path class="st0" d="M290.3,91.4h-22.5V22.2H261v69.2h-22.5V4.9h51.7V91.4z"/>
	<path class="st0" d="M338.1,4.9L351,91.4h-23l-1.2-15.5h-8l-1.4,15.5h-23.2l11.5-86.5H338.1z M326.2,60.5
		c-1.1-9.8-2.3-21.9-3.4-36.3c-2.3,16.6-3.7,28.7-4.3,36.3H326.2z"/>
	<path class="st0" d="M354.8,4.9h37.5v17.3h-15v16.4h14v16.4h-14v19h16.5v17.3h-39V4.9z"/>
	<path class="st0" d="M481.3,91.4h-81.1V4.9h22.5v69.2h6.7V4.9H452v69.2h6.7V4.9h22.6V91.4z"/>
	<path class="st0" d="M542.7,71.1c0,6.4-0.8,11.1-2.5,13.9c-1.7,2.8-4.2,4.6-7.6,5.3c-3.4,0.7-8.8,1.1-16.3,1.1h-26V4.9h22.5v29.6
		h3.5c6.9,0,12.2,0.4,15.8,1.2c3.6,0.8,6.2,2.6,8,5.4c1.8,2.8,2.6,7.2,2.6,13.2V71.1z M520.1,68.5V56c0-3.6-0.4-5.8-1.1-6.6
		c-0.7-0.8-2.8-1.2-6.2-1.3v28.4c2.8,0,4.8-0.4,5.8-1.1C519.6,74.7,520.1,72.4,520.1,68.5z"/>
</g>
</svg>
