<?xml version="1.0" encoding="utf-8"?>
<!-- Generator: Adobe Illustrator 19.2.1, SVG Export Plug-In . SVG Version: 6.00 Build 0)  -->
<svg version="1.1" id="Layer_1" xmlns="http://www.w3.org/2000/svg" xmlns:xlink="http://www.w3.org/1999/xlink" x="0px" y="0px"
	 width="595px" height="74px" viewBox="0 0 595 74" style="enable-background:new 0 0 595 74;" xml:space="preserve">
<style type="text/css">
	.st0{fill:#F0A91F;}
</style>
<g>
	<path class="st0" d="M0.3,28.1h11.3l2.9-13.9h6.8l-2.9,13.9h12.8l2.9-13.9H41l-2.9,13.9h6.1v6.9h-7.5l-2.3,10.9h9.7v6.8H33
		l-2.8,13.7h-6.9l2.9-13.7H13.3l-2.9,13.7H3.6l2.9-13.7H0.3v-6.8h7.5l2.3-10.9H0.3V28.1z M17,34.9l-2.3,10.9h12.8l2.3-10.9H17z"/>
	<path class="st0" d="M81.8,33.4H66.6V23.2c0-3-0.2-4.8-0.5-5.5c-0.3-0.7-1-1.1-2.2-1.1c-1.3,0-2.1,0.4-2.4,1.3
		c-0.3,0.9-0.5,2.8-0.5,5.8v27.2c0,2.8,0.2,4.7,0.5,5.6c0.3,0.9,1.1,1.3,2.3,1.3c1.1,0,1.9-0.4,2.2-1.3c0.3-0.9,0.5-2.9,0.5-6.1V43
		h15.2v2.3c0,6.1-0.4,10.4-1.3,12.9c-0.9,2.5-2.7,4.8-5.7,6.7c-2.9,1.9-6.5,2.9-10.8,2.9c-4.5,0-8.1-0.8-11-2.4
		c-2.9-1.6-4.8-3.9-5.8-6.7c-0.9-2.9-1.4-7.2-1.4-12.9V28.5c0-4.2,0.1-7.4,0.4-9.5c0.3-2.1,1.2-4.1,2.6-6.1c1.4-2,3.4-3.5,6-4.6
		c2.5-1.1,5.5-1.7,8.8-1.7c4.5,0,8.2,0.9,11.1,2.6c2.9,1.7,4.8,3.9,5.8,6.5c0.9,2.6,1.4,6.6,1.4,12.1V33.4z"/>
	<path class="st0" d="M120.1,7.9v58.6h-15.2V41.9h-4.6v24.6H85.1V7.9h15.2v20.9h4.6V7.9H120.1z"/>
	<path class="st0" d="M158,66.5h-12.7V39.8l-7.9,26.7H124V7.8h12.7v26.4l8.5-26.4H158V66.5z"/>
	<path class="st0" d="M161.8,7.8h15.3l0.1,24.7c2.9-0.1,4.4-1.7,4.4-4.8l0.3-11.4c0.1-4.2,0.9-7.1,2.5-8.5h14.1
		c-1.4,1.4-2,4.4-2,8.8l0.1,10.1c0,6.1-3.4,9.5-10.3,10.4c6.9,0.8,10.3,4.4,10.3,10.5l-0.1,9.3c0,4.4,0.7,7.6,2,9.5h-14.1
		c-1.6-1.5-2.5-4.3-2.5-8.5V46.5c0-1.4-0.4-2.6-1.3-3.5c-0.9-0.9-2-1.3-3.4-1.4l-0.1,24.8h-15.3V7.8z"/>
	<path class="st0" d="M199.3,7.9h25.4v11.7h-10.2v11.1h9.5v11.1h-9.5v12.9h11.2v11.7h-26.4V7.9z"/>
	<path class="st0" d="M227.9,7.9h15.3c4.1,0,7.3,0.3,9.6,1c2.2,0.7,3.9,1.6,5,2.8c1.1,1.2,1.9,2.7,2.3,4.5c0.4,1.7,0.6,4.5,0.6,8.1
		v5.1c0,3.7-0.4,6.5-1.2,8.2c-0.8,1.7-2.2,3-4.3,3.9c-2.1,0.9-4.8,1.4-8.1,1.4h-4.1v23.6h-15.2V7.9z M243.1,17.9v14.9
		c0.4,0,0.8,0,1.1,0c1.4,0,2.4-0.3,2.9-1c0.5-0.7,0.8-2.1,0.8-4.3v-4.8c0-2-0.3-3.3-0.9-3.9C246.4,18.2,245.1,17.9,243.1,17.9z"/>
	<path class="st0" d="M298.4,33.4h-15.2V23.2c0-3-0.2-4.8-0.5-5.5c-0.3-0.7-1-1.1-2.2-1.1c-1.3,0-2.1,0.4-2.4,1.3
		c-0.3,0.9-0.5,2.8-0.5,5.8v27.2c0,2.8,0.2,4.7,0.5,5.6c0.3,0.9,1.1,1.3,2.3,1.3c1.1,0,1.9-0.4,2.2-1.3c0.3-0.9,0.5-2.9,0.5-6.1V43
		h15.2v2.3c0,6.1-0.4,10.4-1.3,12.9c-0.9,2.5-2.7,4.8-5.7,6.7c-2.9,1.9-6.5,2.9-10.8,2.9c-4.5,0-8.1-0.8-11-2.4
		c-2.9-1.6-4.8-3.9-5.8-6.7c-0.9-2.9-1.4-7.2-1.4-12.9V28.5c0-4.2,0.1-7.4,0.4-9.5c0.3-2.1,1.2-4.1,2.6-6.1c1.4-2,3.4-3.5,6-4.6
		c2.5-1.1,5.5-1.7,8.8-1.7c4.5,0,8.2,0.9,11.1,2.6c2.9,1.7,4.8,3.9,5.8,6.5c0.9,2.6,1.4,6.6,1.4,12.1V33.4z"/>
	<path class="st0" d="M336.7,7.9v58.6h-15.2V41.9h-4.6v24.6h-15.2V7.9h15.2v20.9h4.6V7.9H336.7z"/>
	<path class="st0" d="M374.6,66.5h-12.7V39.8l-7.9,26.7h-13.3V7.8h12.7v26.4l8.5-26.4h12.7V66.5z"/>
	<path class="st0" d="M413.5,66.5h-15.3V19.6h-4.5v46.9h-15.3V7.8h35.1V66.5z"/>
	<path class="st0" d="M452.1,42.2c0,5.9-0.1,10.1-0.4,12.5c-0.3,2.4-1.1,4.7-2.6,6.7c-1.5,2-3.4,3.6-5.9,4.7
		c-2.5,1.1-5.4,1.6-8.7,1.6c-3.1,0-6-0.5-8.4-1.5c-2.5-1-4.5-2.6-6-4.6c-1.5-2-2.4-4.3-2.7-6.7c-0.3-2.4-0.4-6.6-0.4-12.7v-10
		c0-5.9,0.1-10.1,0.4-12.5c0.3-2.4,1.1-4.7,2.6-6.7c1.5-2,3.4-3.6,5.9-4.7c2.5-1.1,5.4-1.6,8.7-1.6c3.1,0,6,0.5,8.4,1.5
		c2.5,1,4.5,2.6,6,4.6s2.4,4.3,2.7,6.7c0.3,2.4,0.4,6.6,0.4,12.7V42.2z M436.9,22.9c0-2.7-0.2-4.5-0.5-5.2c-0.3-0.8-0.9-1.1-1.9-1.1
		c-0.8,0-1.4,0.3-1.8,0.9c-0.4,0.6-0.6,2.4-0.6,5.4v27.3c0,3.4,0.1,5.5,0.4,6.3c0.3,0.8,0.9,1.2,1.9,1.2c1,0,1.7-0.5,2-1.4
		c0.3-0.9,0.4-3.1,0.4-6.5V22.9z"/>
	<path class="st0" d="M490.7,66.5h-15.3V19.6h-4.5v46.9h-15.3V7.8h35.1V66.5z"/>
	<path class="st0" d="M525.7,7.8l-4.1,38.8c-0.7,6.1-1.4,10.4-2.1,12.9c-0.7,2.5-2.2,4.2-4.3,5.3c-2.1,1.1-5.7,1.6-10.6,1.6h-8.9
		v-7.6h0.9c2,0,3.2-0.2,3.7-0.5c0.5-0.3,0.7-0.8,0.7-1.5c0,0-0.3-1.7-0.9-5l-8-44.1h13.2l4.8,36.5l2.3-36.5H525.7z"/>
	<path class="st0" d="M559.8,7.9v11.7h-9v46.8h-15.2V19.6h-9V7.9H559.8z"/>
	<path class="st0" d="M595.1,66.5h-12.7V39.8l-7.9,26.7h-13.3V7.8h12.7v26.4l8.5-26.4h12.7V66.5z"/>
</g>
</svg>
