<?xml version="1.0" encoding="utf-8"?>
<!-- Generator: Adobe Illustrator 19.2.1, SVG Export Plug-In . SVG Version: 6.00 Build 0)  -->
<svg version="1.1" id="Layer_1" xmlns="http://www.w3.org/2000/svg" xmlns:xlink="http://www.w3.org/1999/xlink" x="0px" y="0px"
	 width="377.5px" height="57px" viewBox="0 0 377.5 57" style="enable-background:new 0 0 377.5 57;" xml:space="preserve">
<style type="text/css">
	.st0{fill:#FFFFFF;}
</style>
<g>
	<path class="st0" d="M27.2,2.8v45H15.5V28.9H12v18.9H0.3v-45H12v16.1h3.5V2.8H27.2z"/>
	<path class="st0" d="M52.1,2.8l6.7,45h-12l-0.6-8.1H42l-0.7,8.1H29.2l6-45H52.1z M45.9,31.8c-0.6-5.1-1.2-11.4-1.8-18.9
		c-1.2,8.6-1.9,14.9-2.2,18.9H45.9z"/>
	<path class="st0" d="M70.8,2.8h11.7c3.7,0,6.5,0.3,8.4,0.9c1.9,0.6,3.4,1.7,4.6,3.5c1.2,1.8,1.8,4.6,1.8,8.5c0,2.6-0.4,4.5-1.2,5.5
		c-0.8,1-2.5,1.8-4.9,2.4c2.7,0.6,4.5,1.6,5.5,3c1,1.4,1.4,3.6,1.4,6.5v4.2c0,3-0.3,5.3-1,6.8c-0.7,1.5-1.8,2.5-3.3,3
		c-1.5,0.5-4.6,0.8-9.3,0.8H70.8V2.8z M82.6,10.5v10c0.5,0,0.9,0,1.2,0c1.1,0,1.9-0.3,2.2-0.8c0.3-0.6,0.5-2.2,0.5-4.9
		c0-1.4-0.1-2.4-0.4-3c-0.3-0.6-0.6-0.9-1-1.1C84.6,10.6,83.8,10.5,82.6,10.5z M82.6,27.6v12.6c1.7-0.1,2.7-0.3,3.2-0.8
		c0.5-0.5,0.7-1.6,0.7-3.4v-4.2c0-1.9-0.2-3.1-0.6-3.5C85.4,27.8,84.3,27.6,82.6,27.6z"/>
	<path class="st0" d="M128.5,47.9h-9.8V27.4l-6.1,20.5h-10.3V2.8h9.8v20.3l6.6-20.3h9.8V47.9z"/>
	<path class="st0" d="M166.6,55.6h-8.1v-7.8h-18.9v7.8h-8.1V38.5h2.4c1.3-3.7,2.3-8.5,3.1-14.6c0.8-6,1.2-12.6,1.2-19.7V2.8h26v35.6
		h2.4V55.6z M152.5,38.4V11.7H149V12c0,8.6-0.9,17.4-2.8,26.4H152.5z"/>
	<path class="st0" d="M197,29.2c0,4.5-0.1,7.7-0.3,9.6c-0.2,1.9-0.9,3.6-2,5.2c-1.1,1.6-2.6,2.8-4.5,3.6c-1.9,0.8-4.1,1.3-6.7,1.3
		c-2.4,0-4.6-0.4-6.5-1.2c-1.9-0.8-3.5-2-4.6-3.5c-1.2-1.6-1.9-3.3-2.1-5.1c-0.2-1.9-0.3-5.1-0.3-9.7v-7.7c0-4.5,0.1-7.7,0.3-9.6
		c0.2-1.9,0.9-3.6,2-5.2c1.1-1.6,2.6-2.8,4.5-3.6c1.9-0.8,4.1-1.3,6.7-1.3c2.4,0,4.6,0.4,6.5,1.2c1.9,0.8,3.5,2,4.6,3.5
		c1.2,1.6,1.9,3.3,2.1,5.1c0.2,1.9,0.3,5.1,0.3,9.7V29.2z M185.3,14.4c0-2.1-0.1-3.4-0.3-4c-0.2-0.6-0.7-0.9-1.4-0.9
		c-0.6,0-1.1,0.2-1.4,0.7c-0.3,0.5-0.5,1.9-0.5,4.2v21c0,2.6,0.1,4.2,0.3,4.8c0.2,0.6,0.7,0.9,1.5,0.9c0.8,0,1.3-0.4,1.5-1.1
		c0.2-0.7,0.3-2.4,0.3-5V14.4z"/>
	<path class="st0" d="M228.7,22.4H217v-7.8c0-2.3-0.1-3.7-0.4-4.3c-0.2-0.6-0.8-0.8-1.7-0.8c-1,0-1.6,0.3-1.8,1
		c-0.3,0.7-0.4,2.2-0.4,4.5v20.9c0,2.2,0.1,3.6,0.4,4.3c0.3,0.7,0.8,1,1.8,1c0.9,0,1.4-0.3,1.7-1c0.3-0.7,0.4-2.2,0.4-4.7v-5.7h11.7
		v1.8c0,4.7-0.3,8-1,9.9c-0.7,1.9-2.1,3.7-4.4,5.1c-2.3,1.5-5,2.2-8.3,2.2c-3.4,0-6.3-0.6-8.5-1.9c-2.2-1.2-3.7-3-4.4-5.2
		c-0.7-2.2-1.1-5.5-1.1-9.9V18.7c0-3.2,0.1-5.7,0.3-7.3c0.2-1.6,0.9-3.2,2-4.7c1.1-1.5,2.6-2.7,4.6-3.5c2-0.9,4.2-1.3,6.7-1.3
		c3.4,0,6.3,0.7,8.5,2s3.7,3,4.4,5c0.7,2,1.1,5.1,1.1,9.3V22.4z"/>
	<path class="st0" d="M259.1,47.9h-9.8V27.4l-6.1,20.5h-10.3V2.8h9.8v20.3l6.6-20.3h9.8V47.9z"/>
	<path class="st0" d="M263.8,2.8h11.7l0.1,19c2.2-0.1,3.3-1.3,3.4-3.7l0.2-8.8c0.1-3.2,0.7-5.4,1.9-6.6h10.8
		c-1.1,1.1-1.6,3.4-1.6,6.8l0.1,7.7c0,4.7-2.6,7.3-7.9,8c5.3,0.6,7.9,3.3,7.9,8.1l-0.1,7.2c0,3.4,0.5,5.8,1.6,7.3h-10.8
		c-1.3-1.1-1.9-3.3-1.9-6.6v-8.8c0-1.1-0.3-2-1-2.7c-0.7-0.7-1.6-1-2.6-1l-0.1,19.1h-11.7V2.8z"/>
	<path class="st0" d="M314.5,2.8l6.7,45h-12l-0.6-8.1h-4.2l-0.7,8.1h-12.1l6-45H314.5z M308.3,31.8c-0.6-5.1-1.2-11.4-1.8-18.9
		c-1.2,8.6-1.9,14.9-2.2,18.9H308.3z"/>
	<path class="st0" d="M347,2.8l-4.1,19.9l6.2,25.1h-10.8c-1.3-4.5-2.5-10-3.6-16.4c-0.3,2.9-0.7,5.9-1.2,9.1l-1.1,7.3h-11.4
		l4.3-25.1l-4.3-19.9h11.3c0.2,1.2,0.6,3.3,1.2,6.2c0.5,2.2,0.9,4.2,1.2,6.1l2.5-12.3H347z"/>
	<path class="st0" d="M362,17.3h-11.2c0-4,0.4-6.8,1-8.7c0.6-1.8,2-3.4,4.1-4.8c2.1-1.4,4.8-2,8.1-2c2.4,0,4.4,0.4,6.2,1.1
		c1.8,0.7,3.2,1.8,4.2,3.1c1,1.3,1.8,2.8,2.3,4.3c0.5,1.5,0.7,4,0.7,7.2v5.5c0,2.5-0.2,4.5-0.7,6c-0.5,1.5-1.5,2.9-3,4
		c-1.6,1.1-3.4,1.7-5.5,1.7c-2.7,0-4.8-1.1-6.1-3.2v4.8h-10.5V24.2h10.2c0,1.7,0.6,2.6,1.8,2.6c0.9,0,1.5-0.4,1.8-1.1
		c0.2-0.8,0.4-2.6,0.4-5.5v-7.5c0-1.7-0.1-2.8-0.3-3.3c-0.2-0.6-0.7-0.8-1.4-0.8c-0.9,0-1.4,0.4-1.6,1.1c-0.2,0.8-0.4,2.4-0.4,5.1
		V17.3z M362,38.8v9h-10.5v-9H362z"/>
</g>
</svg>
