<?xml version="1.0" encoding="utf-8"?>
<!-- Generator: Adobe Illustrator 19.2.1, SVG Export Plug-In . SVG Version: 6.00 Build 0)  -->
<svg version="1.1" id="Layer_1" xmlns="http://www.w3.org/2000/svg" xmlns:xlink="http://www.w3.org/1999/xlink" x="0px" y="0px"
	 width="260px" height="60px" viewBox="0 0 260 60" style="enable-background:new 0 0 260 60;" xml:space="preserve">
<style type="text/css">
	.st0{fill:#FFFFFF;}
</style>
<g>
	<path class="st0" d="M49.1,43.3h-5.3V29.4l-2.9,9.1h-2.7l-2.8-9.1v13.8H30V16.7h4.7l4.9,13l4.9-13h4.7V43.3z"/>
	<path class="st0" d="M72.2,43.3h-5.3V29.4L64,38.5h-2.7l-2.8-9.1v13.8h-5.3V16.7h4.7l4.9,13l4.9-13h4.7V43.3z"/>
	<path class="st0" d="M90.5,35.7c0,2.8-0.6,4.8-1.7,5.9c-1.4,1.3-3.3,2-5.8,2c-2.5,0-4.5-0.6-5.7-1.9c-1.2-1.2-1.8-3.1-1.8-5.9h5.3
		c0,1.2,0.2,2,0.6,2.4c0.4,0.4,0.9,0.6,1.6,0.6c0.8,0,1.3-0.2,1.7-0.7c0.3-0.4,0.5-1.2,0.5-2.2c0-1.2-0.1-2.1-0.4-2.5
		c-0.3-0.4-0.9-0.9-1.9-1.2l-3.4-1.4c-1.4-0.6-2.4-1.3-2.9-2.3c-0.6-0.9-0.9-2.4-0.9-4.4c0-2.6,0.8-4.5,2.4-5.9
		c1.3-1.1,2.9-1.7,4.9-1.7c2.3,0,4,0.6,5.2,1.7c1.4,1.3,2.1,3.3,2.1,6.2H85c0-1.2-0.1-2-0.4-2.4c-0.3-0.4-0.8-0.7-1.5-0.7
		c-0.7,0-1.2,0.2-1.5,0.7c-0.3,0.4-0.4,1-0.4,1.9c0,0.8,0.1,1.4,0.3,1.8c0.2,0.3,0.7,0.7,1.5,1l3.3,1.3c1.7,0.7,2.8,1.6,3.4,2.6
		C90.2,31.6,90.5,33.3,90.5,35.7z"/>
	<path class="st0" d="M107.1,18.9c1.1,1.4,1.7,3.5,1.7,6.3c0,2.8-0.6,4.9-1.7,6.3c-1.1,1.4-3,2.1-5.8,2.1h-2.2v9.6h-5.3V16.7h7.5
		C104.1,16.7,106,17.4,107.1,18.9z M103.4,26.5c0-0.3,0.1-0.8,0.1-1.3c0-0.5,0-1-0.1-1.3c0-0.3-0.1-0.7-0.3-1.1
		c-0.1-0.4-0.4-0.7-0.7-0.9c-0.3-0.2-0.8-0.3-1.3-0.3h-2.1v7.4h2.1c0.5,0,1-0.1,1.3-0.3c0.3-0.2,0.6-0.5,0.7-0.9
		C103.3,27.2,103.4,26.8,103.4,26.5z"/>
	<path class="st0" d="M127.8,43.3h-5.5L119,32.9h-1.8v10.3H112V16.7h7.6c2.8,0,4.7,0.7,5.8,2c1.1,1.3,1.6,3.4,1.6,6.1
		c0,1.6-0.2,3-0.6,4.2c-0.4,1.1-1.2,2.1-2.4,2.8L127.8,43.3z M121.7,24.8c0-0.6,0-1.2-0.1-1.6c-0.1-0.4-0.3-0.8-0.6-1.2
		c-0.3-0.4-0.8-0.6-1.4-0.6h-2.2v6.7h2.2c0.5,0,0.9-0.1,1.2-0.3c0.3-0.2,0.5-0.5,0.7-0.8c0.1-0.4,0.2-0.7,0.2-1
		C121.6,25.7,121.7,25.3,121.7,24.8z"/>
	<path class="st0" d="M145.1,23.1c0.2,1.6,0.4,3.9,0.4,6.9s-0.1,5.3-0.4,6.9c-0.2,1.6-0.8,2.9-1.6,4c-1.4,1.8-3.4,2.7-5.8,2.7
		s-4.4-0.9-5.8-2.7c-0.8-1-1.4-2.4-1.6-4c-0.2-1.6-0.4-3.9-0.4-6.9s0.1-5.3,0.4-6.9c0.2-1.6,0.8-2.9,1.6-4c1.4-1.8,3.4-2.7,5.8-2.7
		s4.4,0.9,5.8,2.7C144.3,20.1,144.8,21.5,145.1,23.1z M140.1,30c0-4.3-0.2-6.8-0.7-7.8c-0.3-0.7-0.9-1-1.8-1c-0.8,0-1.4,0.3-1.8,1
		c-0.5,0.9-0.7,3.5-0.7,7.8s0.2,6.8,0.7,7.8c0.3,0.7,0.9,1,1.8,1c0.8,0,1.4-0.3,1.8-1C139.9,36.8,140.1,34.3,140.1,30z"/>
	<path class="st0" d="M167.8,43.3h-5.3V29.4l-2.9,9.1h-2.7l-2.8-9.1v13.8h-5.3V16.7h4.7l4.9,13l4.9-13h4.7V43.3z"/>
	<path class="st0" d="M186.4,23.1c0.2,1.6,0.4,3.9,0.4,6.9s-0.1,5.3-0.4,6.9c-0.2,1.6-0.8,2.9-1.6,4c-1.4,1.8-3.4,2.7-5.8,2.7
		c-2.4,0-4.4-0.9-5.8-2.7c-0.8-1-1.4-2.4-1.6-4c-0.2-1.6-0.4-3.9-0.4-6.9s0.1-5.3,0.4-6.9c0.2-1.6,0.8-2.9,1.6-4
		c1.4-1.8,3.4-2.7,5.8-2.7c2.4,0,4.4,0.9,5.8,2.7C185.6,20.1,186.2,21.5,186.4,23.1z M181.4,30c0-4.3-0.2-6.8-0.7-7.8
		c-0.3-0.7-0.9-1-1.8-1c-0.8,0-1.4,0.3-1.8,1c-0.5,0.9-0.7,3.5-0.7,7.8s0.2,6.8,0.7,7.8c0.3,0.7,0.9,1,1.8,1c0.8,0,1.4-0.3,1.8-1
		C181.2,36.8,181.4,34.3,181.4,30z"/>
	<path class="st0" d="M195.6,43.3H190v-5.6h5.6V43.3z"/>
	<path class="st0" d="M216,43.3h-5.7l-3.8-9.7l-1.7,3.6v6.1h-5.3V16.7h5.3v11.4l5-11.4h5.3l-5.3,11L216,43.3z"/>
	<path class="st0" d="M230,43.3h-12.5v-3.9l7-17.9h-6.6v-4.8H230v3.9l-7,17.9h7V43.3z"/>
</g>
</svg>
