<?xml version="1.0" encoding="utf-8"?>
<!-- Generator: Adobe Illustrator 19.2.1, SVG Export Plug-In . SVG Version: 6.00 Build 0)  -->
<svg version="1.1" id="Layer_1" xmlns="http://www.w3.org/2000/svg" xmlns:xlink="http://www.w3.org/1999/xlink" x="0px" y="0px"
	 width="300px" height="600px" viewBox="0 0 300 600" style="enable-background:new 0 0 300 600;" xml:space="preserve">
<style type="text/css">
	.st0{fill:#552100;}
</style>
<g>
	<path class="st0" d="M48.2,74.6h-7.1V45.3h-4.9v15c0,2.5-0.2,4.6-0.5,6.4c-0.4,1.8-0.8,3.2-1.3,4.2c-0.5,1-1.3,1.8-2.2,2.4
		c-0.9,0.6-1.8,1-2.7,1.1c-0.9,0.2-1.9,0.3-3.2,0.3h-2.2v-6.4h0.6c0.7,0,1.3-0.1,1.8-0.3c0.5-0.2,0.9-0.5,1.4-1.1
		c0.5-0.6,0.8-1.4,1-2.6c0.2-1.2,0.3-2.7,0.3-4.6V38.8h18.9V74.6z"/>
	<path class="st0" d="M73.2,47.4c0.3,2.2,0.5,5.3,0.5,9.3c0,4-0.2,7.2-0.5,9.3c-0.3,2.2-1,3.9-2.2,5.3c-1.9,2.4-4.6,3.6-7.8,3.6
		c-3.3,0-5.9-1.2-7.8-3.6c-1.1-1.4-1.9-3.2-2.2-5.3c-0.3-2.2-0.5-5.3-0.5-9.3c0-4,0.2-7.2,0.5-9.3c0.3-2.2,1-3.9,2.2-5.3
		c1.9-2.4,4.6-3.6,7.8-3.6c3.3,0,5.9,1.2,7.8,3.6C72.1,43.5,72.9,45.2,73.2,47.4z M66.5,56.7c0-5.7-0.3-9.2-1-10.4
		c-0.5-0.9-1.3-1.4-2.4-1.4c-1.1,0-1.9,0.5-2.4,1.4c-0.6,1.2-1,4.7-1,10.4c0,5.7,0.3,9.2,1,10.4c0.5,0.9,1.3,1.4,2.4,1.4
		c1.1,0,1.9-0.5,2.4-1.4C66.2,65.9,66.5,62.4,66.5,56.7z"/>
	<path class="st0" d="M98.3,64.1c0,2.1-0.2,3.7-0.5,4.9c-0.4,1.2-1,2.3-1.9,3.2c-1.5,1.6-4,2.4-7.4,2.4H78.1V38.8h10.3
		c3.4,0,5.9,0.8,7.5,2.3c0.9,0.8,1.5,1.8,1.8,2.9c0.4,1.1,0.5,2.6,0.5,4.5c0,2.7-0.7,4.7-2,6c-0.5,0.5-1.1,0.9-1.7,1.2
		c0.7,0.4,1.3,0.8,1.7,1.3C97.7,58.4,98.3,60.7,98.3,64.1z M91.2,49.1c0-1.4-0.3-2.4-0.8-2.9c-0.5-0.6-1.4-0.9-2.8-0.9h-2.4v7.6h2.4
		c1.3,0,2.3-0.3,2.8-0.9C90.9,51.4,91.2,50.4,91.2,49.1z M90.4,67.1c0.5-0.7,0.8-1.9,0.8-3.6c0-1.7-0.3-2.9-0.8-3.6
		c-0.5-0.7-1.5-1.1-2.9-1.1h-2.3v9.2h2.3C88.9,68.2,89.9,67.8,90.4,67.1z"/>
	<path class="st0" d="M123.9,74.6h-7.1V56.1l-6.9,18.5h-6.5V38.8h7.1v18.5l7-18.5h6.3V74.6z"/>
	<path class="st0" d="M163.6,74.6h-7.1V56l-3.9,12.2h-3.7L145.1,56v18.6h-7.1V38.8h6.3l6.5,17.5l6.5-17.5h6.3V74.6z"/>
	<path class="st0" d="M191.7,74.6h-6.9l-1.6-2.5c-1.9,1.9-4.1,2.9-6.8,2.9c-2.6,0-4.7-0.8-6.3-2.5c-1.6-1.7-2.4-4-2.4-6.9
		c0-3.5,1.6-7.1,4.9-10.5c-2.2-3-3.4-5.7-3.4-8.1c0-2.8,0.7-5,2.1-6.4c1.4-1.4,3.2-2.1,5.2-2.1c2.4,0,4.3,0.7,5.6,2.2
		c1.3,1.5,1.9,3.4,1.9,5.7c0,3.3-1.4,6.6-4.1,9.6l3,4.7c0.4-1.2,0.7-3,0.9-5.5h5.6c-0.1,4-1.1,7.9-2.9,11.5L191.7,74.6z M180.1,67
		l-4.1-6.5c-1.3,1.4-1.9,3-1.9,4.7c0,1.2,0.3,2.2,0.9,2.8c0.6,0.7,1.3,1,2.1,1C178.2,69,179.2,68.3,180.1,67z M178.4,46.5
		c0-0.6-0.2-1.1-0.5-1.5c-0.3-0.4-0.7-0.6-1.1-0.6c-1,0-1.5,0.7-1.5,2.2c0,0.6,0.2,1.3,0.5,2.1s0.7,1.4,1.1,1.9
		C177.9,49.4,178.4,48,178.4,46.5z"/>
	<path class="st0" d="M220.1,74.6H213V56l-3.9,12.2h-3.7L201.6,56v18.6h-7.1V38.8h6.3l6.5,17.5l6.5-17.5h6.3V74.6z"/>
	<path class="st0" d="M232.8,46l-7.1,5.3V38.8h7.1V46z"/>
	<path class="st0" d="M251.7,66.3c0,2.5-0.9,4.7-2.6,6.4c-1.5,1.5-3.6,2.3-6.3,2.3c-2.8,0-4.9-0.8-6.4-2.4c-1.7-1.8-2.5-3.8-2.6-6.2
		h6.6c0.1,0.8,0.3,1.4,0.7,1.8c0.4,0.5,1,0.7,1.7,0.7c0.7,0,1.2-0.2,1.6-0.6c0.4-0.3,0.6-0.8,0.6-1.5c0-0.6-0.2-1.1-0.5-1.5
		c-0.4-0.4-1-0.8-1.8-1.2l-3.8-1.5c-2-0.8-3.4-1.8-4.2-3.1c-0.6-1-0.9-2.3-0.9-3.8c0-2.4,0.8-4.5,2.5-6.2c1.6-1.6,3.7-2.5,6.4-2.5
		c2.5,0,4.6,0.7,6.1,2.2c1.7,1.6,2.5,3.6,2.5,6.1h-6.6c0-0.7-0.2-1.3-0.6-1.7c-0.4-0.4-0.9-0.7-1.5-0.7c-0.6,0-1.2,0.2-1.6,0.6
		c-0.4,0.3-0.6,0.8-0.6,1.5c0,0.5,0.1,0.9,0.4,1.2c0.3,0.5,0.9,0.9,1.7,1.2l3.7,1.4c1.9,0.7,3.2,1.7,4.1,2.9
		C251.3,63,251.7,64.5,251.7,66.3z"/>
	<path class="st0" d="M272.7,40c2.1,2.1,3.1,4.6,3.1,7.5s-1,5.4-3.1,7.5c-2.1,2.1-4.6,3.1-7.5,3.1c-2.9,0-5.4-1-7.5-3.1
		c-2.1-2.1-3.1-4.6-3.1-7.5s1-5.4,3.1-7.5c2.1-2.1,4.6-3.1,7.5-3.1C268.2,36.9,270.7,37.9,272.7,40z M271,53.4
		c1.5-1.6,2.3-3.5,2.3-6c0-2.4-0.8-4.4-2.3-6c-1.5-1.6-3.5-2.3-5.8-2.3c-2.3,0-4.2,0.8-5.8,2.3c-1.5,1.6-2.3,3.5-2.3,6
		c0,2.4,0.8,4.4,2.3,6c1.5,1.6,3.5,2.3,5.8,2.3C267.6,55.7,269.5,55,271,53.4z M269,53.2h-2.3l-1.3-4.4h-0.7v4.4h-2.3V41.7h3.2
		c1,0,1.8,0.3,2.3,0.8c0.5,0.5,0.8,1.5,0.8,2.8c0,1.2-0.2,2-0.7,2.6c-0.2,0.1-0.3,0.3-0.5,0.4L269,53.2z M266.4,45.3
		c0-0.6-0.1-0.9-0.2-1.1c-0.2-0.2-0.4-0.3-0.6-0.3h-0.9v2.8h0.9c0.3,0,0.5-0.1,0.6-0.2C266.3,46.2,266.4,45.8,266.4,45.3z"/>
	<path class="st0" d="M81.7,122.7h-7.1v-18.5l-6.9,18.5h-6.5V86.9h7.1v18.5l7-18.5h6.3V122.7z"/>
	<path class="st0" d="M115.9,122.7h-7.1V93.4h-5.9v29.3h-7.1V86.9h20.2V122.7z"/>
	<path class="st0" d="M139.3,89.8c1.5,1.9,2.3,4.8,2.3,8.5c0,3.7-0.8,6.6-2.3,8.5c-1.5,1.9-4.1,2.9-7.8,2.9h-3v13h-7.1V86.9h10.1
		C135.2,86.9,137.8,87.9,139.3,89.8z M134.4,100.1c0-0.5,0.1-1.1,0.1-1.8c0-0.7,0-1.3-0.1-1.8c-0.1-0.5-0.2-1-0.3-1.5
		c-0.2-0.6-0.5-1-0.9-1.3c-0.4-0.3-0.9-0.4-1.6-0.4h-3v9.9h3c0.6,0,1.2-0.1,1.6-0.4c0.4-0.3,0.7-0.7,0.9-1.3
		C134.2,101.1,134.3,100.6,134.4,100.1z"/>
	<path class="st0" d="M166.4,122.7h-7.1v-18.5l-6.9,18.5h-6.5V86.9h7.1v18.5l7-18.5h6.3V122.7z"/>
	<path class="st0" d="M190.9,112.4c0,3.4-0.8,6-2.3,7.6c-1.8,2-4.4,3.1-7.8,3.1c-3.2,0-5.7-0.8-7.4-2.5c-1.7-1.8-2.7-4.5-2.8-8.1
		h7.1c0,1.4,0.3,2.4,0.8,3.2c0.5,0.7,1.2,1,2.2,1c0.9,0,1.6-0.3,2.1-0.9c0.6-0.7,0.9-1.9,0.9-3.7c0-1.9-0.3-3.2-1-3.9
		c-0.5-0.5-1.2-0.7-2-0.7H178v-6h2.7c0.9,0,1.5-0.2,2-0.7c0.7-0.7,1-1.9,1-3.6c0-1.5-0.3-2.7-0.9-3.4c-0.5-0.6-1.2-0.9-2-0.9
		c-0.9,0-1.7,0.3-2.2,1c-0.5,0.7-0.7,1.8-0.8,3.1h-7.1c0-3.4,1-6.1,2.9-8c1.7-1.7,4.1-2.6,7.2-2.6c3.3,0,5.8,1,7.6,2.9
		c0.9,0.9,1.5,1.9,1.9,3.1c0.4,1.1,0.6,2.6,0.6,4.5c0,2.2-0.5,4-1.6,5.3c-0.7,0.9-1.5,1.6-2.5,2.1c1,0.5,1.8,1.2,2.5,2.1
		C190.4,107.6,190.9,109.7,190.9,112.4z"/>
	<path class="st0" d="M213.8,102.8c1.5,1.9,2.3,4.8,2.3,8.5c0,3.7-0.8,6.6-2.3,8.5c-1.5,1.9-4.1,2.9-7.8,2.9H196V86.9h7.1v13h3
		C209.7,99.9,212.3,100.9,213.8,102.8z M208.9,113.1c0.1-0.5,0.1-1,0.1-1.8c0-0.7,0-1.3-0.1-1.8c0-0.5-0.2-1-0.4-1.5
		c-0.2-0.6-0.5-1-1-1.3c-0.5-0.3-1-0.4-1.7-0.4h-2.8v9.9h2.8c0.7,0,1.3-0.1,1.7-0.4c0.5-0.3,0.8-0.7,1-1.3S208.8,113.5,208.9,113.1z
		 M226,122.7h-7.1V86.9h7.1V122.7z"/>
	<path class="st0" d="M239.9,122.7h-7.5v-7.5h7.5V122.7z M239.5,112.3h-6.7V86.9h6.7V112.3z"/>
</g>
</svg>
