<?xml version="1.0" encoding="utf-8"?>
<!-- Generator: Adobe Illustrator 19.2.1, SVG Export Plug-In . SVG Version: 6.00 Build 0)  -->
<svg version="1.1" id="Layer_1" xmlns="http://www.w3.org/2000/svg" xmlns:xlink="http://www.w3.org/1999/xlink" x="0px" y="0px"
	 width="257px" height="200px" viewBox="0 0 257 200" style="enable-background:new 0 0 257 200;" xml:space="preserve">
<style type="text/css">
	.st0{fill:#FFFFFF;}
</style>
<g>
	<path class="st0" d="M25.2,71.4c-0.7,0-1.4-0.3-1.9-0.9l-12.5-15c-0.8-1-0.7-2.5,0.3-3.4c1-0.8,2.5-0.7,3.4,0.3l12.5,15
		c0.8,1,0.7,2.5-0.3,3.4C26.3,71.2,25.7,71.4,25.2,71.4z"/>
	<path class="st0" d="M47.2,64c-0.9,0-1.8-0.6-2.2-1.5l-9.2-22.2c-0.5-1.2,0.1-2.6,1.3-3.1c1.2-0.5,2.6,0.1,3.1,1.3l9.2,22.2
		c0.5,1.2-0.1,2.6-1.3,3.1C47.8,64,47.5,64,47.2,64z"/>
	<g>
		<path class="st0" d="M70.1,199.5h86.6c0.6,0,1.2-0.2,1.6-0.7c0.4-0.4,0.7-1,0.7-1.6l-0.1-93.5c0-1.2-1-2.2-2.2-2.2h0
			c-1.2,0-2.2,1-2.2,2.2l0.1,91.3H70.1c-1.2,0-2.2,1-2.2,2.2S68.9,199.5,70.1,199.5"/>
		<path class="st0" d="M31.1,105.3h55.8c1.2,0,2.2-1,2.2-2.2c0-1.2-1-2.2-2.2-2.2H33.4v-20h128.1v20h-53.6c-1.2,0-2.2,1-2.2,2.2
			c0,1.2,1,2.2,2.2,2.2h55.8c1.2,0,2.2-1,2.2-2.2V78.7c0-1.2-1-2.2-2.2-2.2H31.1c-1.2,0-2.2,1-2.2,2.2v24.4
			C28.9,104.3,29.9,105.3,31.1,105.3"/>
		<path class="st0" d="M95.8,80.2c-0.5-0.5-0.7-1.2-0.6-1.9c0.1-0.8,3.4-20.8,8-28.8c2.4-4.1,6.9-6.8,12.2-7.1
			c6.1-0.4,11.9,2.4,15.6,7.4c3,4.1,3.9,9.3,2.4,14.3c-1.6,5.3-5.8,9.6-11.4,11.6c-10.7,3.9-23.9,5.1-24.4,5.2c-0.1,0-0.1,0-0.2,0
			C96.8,80.9,96.2,80.7,95.8,80.2 M115.6,46.9c-3.7,0.2-6.9,2-8.5,4.8c-3.2,5.7-5.9,18.6-7,24.4c4.4-0.6,13.2-2,20.4-4.6
			c4.3-1.6,7.4-4.7,8.6-8.7c1.1-3.6,0.4-7.4-1.8-10.4c-2.6-3.5-6.7-5.6-11-5.6C116.2,46.8,115.9,46.8,115.6,46.9"/>
		<path class="st0" d="M97,80.9c-0.6-0.1-14.3-2.5-21.7-7.3c-3.8-2.4-6.4-6.4-7-10.7c-0.5-3.8,0.6-7.3,3-10.1
			c2.5-2.8,5.9-4.1,9.7-3.7c4.5,0.4,8.8,3.3,11.4,7.5c4.1,6.8,7.1,21,7.2,21.6c0.2,0.7-0.1,1.5-0.6,2c-0.4,0.4-1,0.7-1.6,0.7
			C97.3,80.9,97.1,80.9,97,80.9 M74.6,55.8c-2,2.3-2.2,4.8-1.9,6.5c0.4,3,2.3,5.8,5,7.6c4.6,2.9,12.4,5,16.8,6
			c-1.1-4.5-3.4-12.6-5.9-16.9c-1.8-3-4.8-5.1-8-5.4c-0.2,0-0.5,0-0.8,0C78.2,53.5,76.3,53.9,74.6,55.8"/>
		<path class="st0" d="M84.7,197.2V78.7c0-1.2,1-2.2,2.2-2.2h20.9c1.2,0,2.2,1,2.2,2.2v118.6c0,1.2-1,2.2-2.2,2.2H86.9
			C85.7,199.5,84.7,198.5,84.7,197.2 M105.6,80.9H89.1V195h16.5V80.9z"/>
		<path class="st0" d="M6.7,199.5h62.8c1.2,0,2.2-1,2.2-2.2v-34.9c0-1.2-1-2.2-2.2-2.2c-1.2,0-2.2,1-2.2,2.2V195H8.9v-32.6
			c0-1.2-1-2.2-2.2-2.2s-2.2,1-2.2,2.2v34.9C4.5,198.5,5.5,199.5,6.7,199.5"/>
		<path class="st0" d="M3.2,164.6h24.4c1.2,0,2.2-1,2.2-2.2c0-1.2-1-2.2-2.2-2.2H5.5v-16.5h65.3v16.5H45.1c-1.2,0-2.2,1-2.2,2.2
			c0,1.2,1,2.2,2.2,2.2H73c1.2,0,2.2-1,2.2-2.2v-20.9c0-1.2-1-2.2-2.2-2.2H3.2c-1.2,0-2.2,1-2.2,2.2v20.9C1,163.6,2,164.6,3.2,164.6
			"/>
		<path class="st0" d="M27.6,199.5c1.2,0,2.2-1,2.2-2.2v-55.8c0-1.2-1-2.2-2.2-2.2s-2.2,1-2.2,2.2v55.8
			C25.4,198.5,26.4,199.5,27.6,199.5"/>
		<path class="st0" d="M45.1,199.5c1.2,0,2.2-1,2.2-2.2v-55.8c0-1.2-1-2.2-2.2-2.2c-1.2,0-2.2,1-2.2,2.2v55.8
			C42.8,198.5,43.8,199.5,45.1,199.5"/>
		<path class="st0" d="M38.3,136.5L38.3,136.5c1.2,0,2.2-1,2.2-2.2l-0.2-31.2c0-1.2-1-2.2-2.2-2.2h0c-1.2,0-2.2,1-2.2,2.2l0.2,31.2
			C36.1,135.5,37.1,136.5,38.3,136.5"/>
		<path class="st0" d="M38,143.7c-0.6,0-1.2-0.3-1.6-0.7c-0.4-0.4-0.6-1-0.6-1.6c0-0.6,0.8-13.8,7.8-20.1c2.5-2.3,5.5-3.3,8.4-3.1
			c2.8,0.2,5.4,1.6,7.4,3.8c2,2.3,3.1,5,3,7.8c-0.1,3-1.5,5.7-4.1,8c-6.2,5.5-16.9,5.9-19.8,5.9C38.3,143.7,38.1,143.7,38,143.7
			 M46.7,124.6c-4.1,3.6-5.6,10.8-6.1,14.6c3.7-0.2,10.8-1.1,14.9-4.7c1.6-1.4,2.5-3.1,2.6-4.9c0.1-1.6-0.6-3.3-1.8-4.7
			c-1.3-1.4-2.8-2.2-4.4-2.4c-0.1,0-0.3,0-0.4,0C49.8,122.5,48.2,123.2,46.7,124.6"/>
		<path class="st0" d="M16.8,137.8c-2.5-2.3-4-5-4.1-8c-0.1-2.8,0.9-5.6,3-7.8c2-2.3,4.7-3.6,7.4-3.8c3-0.2,5.9,0.9,8.4,3.1
			c7,6.2,8.7,19.4,8.8,19.9c0.1,0.6-0.1,1.2-0.5,1.7c-0.4,0.5-1,0.8-1.6,0.8c-0.1,0-0.3,0-0.7,0C34.4,143.7,23,143.3,16.8,137.8
			 M23.5,122.6c-1.6,0.1-3.2,1-4.4,2.4c-1.3,1.4-1.9,3.1-1.8,4.7c0.1,1.7,1,3.4,2.6,4.9c4.1,3.6,11.7,4.5,15.7,4.7
			c-0.8-3.8-2.8-11-6.8-14.6c-1.5-1.3-3.1-2-4.7-2C23.7,122.5,23.6,122.6,23.5,122.6"/>
		<path class="st0" d="M254.1,67.2c-0.9,0-1.7-0.6-1.8-1.6c-0.8-5.2-2.8-9.5-5.9-12.6c-0.7-0.7-0.7-1.9,0-2.6c0.7-0.7,1.9-0.7,2.6,0
			c3.6,3.7,5.9,8.6,6.9,14.6c0.2,1-0.5,2-1.5,2.1C254.3,67.2,254.2,67.2,254.1,67.2"/>
		<path class="st0" d="M244,47.5c0-1-0.8-1.8-1.8-1.8c-1,0-1.8,0.8-1.8,1.8s0.8,1.8,1.8,1.8C243.2,49.3,244,48.5,244,47.5"/>
		<path class="st0" d="M215.9,76.7c0.6,0,1.1,0.1,1.6,0.4c1.1,0.6,1.7,1.7,1.7,2.9c0,0.3-0.1,0.7-0.2,1l0,0.1l0,0.1
			c-0.4,1.9-4,5.2-7.5,7.6c-4.3-2.9-7.2-6.1-7.5-7.6l0-0.1l0-0.1c-0.1-0.3-0.2-0.7-0.2-1c0-1.2,0.7-2.3,1.7-2.9
			c0.5-0.3,1-0.4,1.6-0.4c0.8,0,1.6,0.3,2.2,0.8l2.3,2l2.3-2C214.3,77,215.1,76.7,215.9,76.7 M215.9,73.3c-1.7,0-3.2,0.6-4.5,1.7
			c-1.2-1.1-2.8-1.7-4.5-1.7c-1.1,0-2.3,0.3-3.2,0.8c-2.1,1.2-3.5,3.4-3.5,5.9c0,0.7,0.1,1.4,0.3,2c1.1,4.8,10,10.4,10.4,10.6
			c0.2,0.1,0.3,0.1,0.5,0.1c0.2,0,0.3,0,0.5-0.1c0.4-0.2,9.3-5.9,10.4-10.6c0.2-0.7,0.3-1.3,0.3-2c0-2.4-1.3-4.7-3.5-5.9
			C218.1,73.6,217,73.3,215.9,73.3"/>
		<path class="st0" d="M231.3,124.5h6.7c3.9,0,7.1-3,7.1-6.7V73.3c0-10.3-7.7-19.3-18.6-21.7c-0.7-0.2-1.4,0-2,0.4
			c-3.9,3-8.5,4.6-13.2,4.6c-4.7,0-9.3-1.6-13.2-4.6c-0.6-0.4-1.3-0.6-2-0.4c-11.4,2.6-17.3,9.4-18.6,21.5c0,0.1,0,0.2,0,0.3v13.6
			c0,1.3,1.1,2.4,2.4,2.4c1.3,0,2.4-1.1,2.4-2.4V73.4c1.1-9.7,5.1-14.7,13.8-16.9c4.5,3.2,9.8,4.9,15.2,4.9c5.4,0,10.6-1.7,15.2-4.9
			c8.2,2.3,13.9,9,13.9,16.8v44.5c0,1-1.1,1.9-2.3,1.9h-4.3v-8.2c0-1.3-1.1-2.4-2.4-2.4c-1.3,0-2.4,1.1-2.4,2.4v10.6
			C228.9,123.5,230,124.5,231.3,124.5"/>
		<path class="st0" d="M191.3,124.5h-6.7c-3.9,0-7.1-3-7.1-6.7V73.3c0-10.3,7.7-19.3,18.6-21.7c0.7-0.2,1.4,0,2,0.4
			c3.9,3,8.5,4.6,13.2,4.6c4.7,0,9.3-1.6,13.2-4.6c0.6-0.4,1.3-0.6,2-0.4c11.4,2.6,17.3,9.4,18.6,21.5c0,0.1,0,0.2,0,0.3v13.6
			c0,1.3-1.1,2.4-2.4,2.4c-1.3,0-2.4-1.1-2.4-2.4V73.4c-1.1-9.7-5.1-14.7-13.8-16.9c-4.5,3.2-9.8,4.9-15.2,4.9
			c-5.4,0-10.6-1.7-15.2-4.9c-8.2,2.3-13.9,9-13.9,16.8v44.5c0,1,1.1,1.9,2.3,1.9h4.3v-8.2c0-1.3,1.1-2.4,2.4-2.4
			c1.3,0,2.4,1.1,2.4,2.4v10.6C193.7,123.5,192.7,124.5,191.3,124.5"/>
		<path class="st0" d="M211.3,52.9c10.5,0,19-9.4,19.5-21.3c0-0.4,0-0.7,0-1.1V30c0-1.3-1.1-2.4-2.4-2.4c-1.3,0-2.4,1.1-2.4,2.4v0.5
			c0,0.2,0,0.5,0,0.7c0,0,0,0.1,0,0.1c-0.4,9.4-6.8,16.8-14.7,16.8c-6.3,0-13.6-6.9-13.9-16.8c0-1.3-1.2-2.4-2.5-2.3
			c-1.3,0-2.4,1.1-2.3,2.5C193,43,201.5,52.9,211.3,52.9"/>
		<path class="st0" d="M231.3,160.1c1.3,0,2.4-1.1,2.4-2.4v-41.4c0-1.3-1.1-2.4-2.4-2.4c-1.3,0-2.4,1.1-2.4,2.4v41.4
			C228.9,159,230,160.1,231.3,160.1"/>
		<path class="st0" d="M191.3,118.1c1.3,0,2.4-1.1,2.4-2.4V78.8c0-1.3-1.1-2.4-2.4-2.4c-1.3,0-2.4,1.1-2.4,2.4v36.9
			C188.9,117,190,118.1,191.3,118.1"/>
		<path class="st0" d="M231.3,121.4c1.3,0,2.4-1.1,2.4-2.4V78.8c0-1.3-1.1-2.4-2.4-2.4c-1.3,0-2.4,1.1-2.4,2.4V119
			C228.9,120.3,230,121.4,231.3,121.4"/>
		<path class="st0" d="M211.3,149.5c1.3,0,2.4-1.1,2.4-2.4v-18.9c0-1.3-1.1-2.4-2.4-2.4c-1.3,0-2.4,1.1-2.4,2.4v18.9
			C208.9,148.4,210,149.5,211.3,149.5"/>
		<path class="st0" d="M180.6,113.7h62.1c1.3,0,2.4-1.1,2.4-2.4c0-1.3-1.1-2.4-2.4-2.4h-62.1c-1.3,0-2.4,1.1-2.4,2.4
			C178.2,112.6,179.3,113.7,180.6,113.7"/>
		<path class="st0" d="M228.4,37.2c1,0,1.9-0.6,2.3-1.7l3.6-11.1c0-0.1,0-0.2,0.1-0.2c1-4.8,0.2-9.1-2.1-12.4
			c-1.8-2.5-4.4-4.1-7.5-4.7c-1.7-1.9-6.7-6.6-14.1-6.6c-4.9,0-11.9,2.6-16.4,8.3c-2.7,3.4-5.5,9.3-3.3,17.8c0,0,0,0.1,0,0.1
			l1.3,4.3c0.4,1.3,1.7,2,3,1.6c1.3-0.4,2-1.7,1.6-3l-1.3-4.2c-1.3-5.3-0.5-9.9,2.5-13.6c3.5-4.5,9-6.5,12.6-6.5
			c6.7,0,10.9,5.4,11,5.5c0.4,0.5,1,0.9,1.6,0.9c2.2,0.3,4,1.3,5.1,2.9c1.5,2.1,2,5.1,1.3,8.5l-3.5,11c-0.4,1.3,0.3,2.6,1.5,3
			C227.9,37.1,228.1,37.2,228.4,37.2"/>
		<path class="st0" d="M228.5,35.3c0.3,0,0.6-0.1,0.9-0.2c1.2-0.5,1.8-1.9,1.3-3.1l-5-12.1c-0.3-0.7-0.9-1.2-1.6-1.4
			c-0.7-0.2-1.5,0-2.1,0.5c0,0-2.9,2.4-9.8,5.6c-1.2,0.6-1.7,2-1.2,3.2c0.6,1.2,2,1.7,3.2,1.2c3.8-1.8,6.5-3.3,8.3-4.5l3.9,9.3
			C226.7,34.7,227.6,35.3,228.5,35.3"/>
		<path class="st0" d="M194.7,32.7c0.4,0,0.7-0.1,1.1-0.3c0,0,4.6-2.3,9-4.8c4.4-2.4,10.3-6.3,10.6-6.5c1.1-0.7,1.4-2.2,0.7-3.3
			c-0.7-1.1-2.2-1.4-3.3-0.7c-0.1,0-6,4-10.2,6.3c-4.4,2.4-8.9,4.7-8.9,4.7c-1.2,0.6-1.6,2-1,3.2C193,32.2,193.8,32.7,194.7,32.7"/>
		<path class="st0" d="M181.8,198.1c1.1,0,2-0.8,2.2-1.9c0.1-0.7,1.6-1.7,2.9-2.1c0.9-0.3,1.4-1.1,1.5-2c0.8-17.8,0.3-18.8-0.1-19.4
			c-0.2-0.3-0.5-0.8-0.9-1.3c-0.7-1-2.5-3.6-2.3-4.7c0.1-0.5,0.3-1.2,0.5-1.9c0.9-2.9,2.2-7.4,0.7-12c-1-3.1-3.3-5.2-6.5-5.9
			c-0.8-0.2-1.5-0.7-1.8-1.4l-0.3-0.6l7.5-4.8c0.3-0.2,0.6-0.5,0.8-0.8l1.4-2.6c0.6,1.2,1.4,2.3,2.5,3.3c2.6,2.4,2.9,4.5,3.3,6.9
			c0.3,2.2,0.7,4.7,2.9,6.9c1.3,1.3,3.4,3,5.8,5c4.1,3.3,10.2,8.4,11.3,10.9c1.6,3.7,2.3,13.9,2.6,19.3c0.2,3.1,0.3,4.1,0.4,4.7
			c0.8,2.8,3.2,4.6,6.1,4.4c2.9-0.1,5.4-2,5.9-4.5c0.1-0.3,0.1-0.9,0.2-2.1c1.7-24.4,6.9-27.9,9.8-27.9h0c1.2,0,2.2-1,2.2-2.2
			c0-1.2-1-2.2-2.2-2.2h-0.1c-10.7,0-13.2,18.3-14.2,32c-0.1,0.7-0.1,1.5-0.1,1.6c-0.1,0.3-0.8,0.8-1.7,0.9c-1.3,0-1.6-0.9-1.7-1.2
			c-0.1-0.3-0.2-2.1-0.3-3.8c-0.4-6.1-1.1-16.3-3-20.7c-1.4-3.2-6.1-7.2-12.5-12.5c-2.2-1.8-4.3-3.6-5.5-4.7
			c-1.2-1.2-1.4-2.5-1.7-4.4c-0.4-2.7-0.9-6-4.6-9.5c-2.3-2.1-2.9-5.8-2.9-5.9c-0.1-0.9-0.9-1.7-1.8-1.8c-0.9-0.2-1.9,0.3-2.3,1.1
			l-3.5,6.5l-8.7,5.5c-0.9,0.6-1.3,1.8-0.8,2.8l1.1,2.4c0.9,2,2.8,3.4,4.9,3.9c1.6,0.3,2.7,1.3,3.2,2.9c1.1,3.4,0,6.9-0.7,9.4
			c-0.3,0.9-0.5,1.7-0.6,2.4c-0.5,2.9,1.6,6,3.1,8c0.2,0.3,0.4,0.5,0.5,0.7c0.2,1.7,0,9-0.3,15.9c-1.6,0.8-4,2.4-4.4,5.1
			c-0.2,1.2,0.7,2.3,1.9,2.5C181.6,198.1,181.7,198.1,181.8,198.1"/>
		<path class="st0" d="M193.2,198.5h18.8c1.2,0,2.2-1,2.2-2.2c0-1.2-1-2.2-2.2-2.2h-18.8c-1.2,0-2.2,1-2.2,2.2
			C191,197.5,192,198.5,193.2,198.5"/>
		<path class="st0" d="M193.4,197.9c1.1,0,2.1-0.9,2.2-2c0.3-3.1,3.1-3.3,4-3.2c1.2,0,2.2-0.9,2.3-2.1c0.2-5.5,2.3-8.5,6.6-9.7
			c1.2-0.3,1.9-1.5,1.6-2.7c-0.3-1.2-1.5-1.9-2.7-1.6c-5.6,1.5-8.9,5.5-9.7,11.8c-2.9,0.6-6.1,2.7-6.4,7.1c-0.1,1.2,0.8,2.3,2,2.4
			C193.3,197.9,193.3,197.9,193.4,197.9"/>
		<path class="st0" d="M17.1,89.9c-0.1,0-0.3,0-0.4,0L4.2,87.7c-1.3-0.2-2.2-1.5-2-2.8c0.2-1.3,1.5-2.2,2.8-2l12.5,2.2
			c1.3,0.2,2.2,1.5,2,2.8C19.2,89.1,18.2,89.9,17.1,89.9z"/>
	</g>
</g>
</svg>
