<?xml version="1.0" encoding="utf-8"?>
<!-- Generator: Adobe Illustrator 19.2.1, SVG Export Plug-In . SVG Version: 6.00 Build 0)  -->
<svg version="1.1" id="Layer_1" xmlns="http://www.w3.org/2000/svg" xmlns:xlink="http://www.w3.org/1999/xlink" x="0px" y="0px"
	 width="150px" height="43.6px" viewBox="0 0 150 43.6" style="enable-background:new 0 0 150 43.6;" xml:space="preserve">
<style type="text/css">
	.st0{fill:#FFFFFF;}
</style>
<g>
	<path class="st0" d="M2.2,1.7c0-0.9,0.6-1.6,1.6-1.6c0.9,0,1.6,0.6,1.6,1.6v4.6l5.2-5.5c0.2-0.3,0.6-0.6,1.2-0.6
		c0.8,0,1.6,0.6,1.6,1.5c0,0.5-0.3,1-1,1.7l-4,3.9l4.9,5.1c0.5,0.5,0.9,1,0.9,1.6c0,1-0.8,1.5-1.6,1.5c-0.6,0-1-0.4-1.6-1L5.4,8.5
		v5.4c0,0.8-0.6,1.5-1.6,1.5c-0.9,0-1.6-0.6-1.6-1.5V1.7z"/>
	<path class="st0" d="M14,7.8C14,3.4,17,0,21.3,0c4.2,0,7.3,3.5,7.3,7.8c0,4.4-2.9,7.8-7.3,7.8C17,15.6,14,12.2,14,7.8z M25.2,7.8
		c0-2.6-1.3-4.9-4-4.9s-4,2.3-4,4.9c0,2.6,1.3,4.9,4,4.9S25.2,10.4,25.2,7.8z"/>
	<path class="st0" d="M31.8,3.2h-2.3c-1,0-1.4-0.7-1.4-1.5c0-0.7,0.5-1.5,1.4-1.5h7.8c0.9,0,1.4,0.7,1.4,1.5c0,0.7-0.4,1.5-1.4,1.5
		h-2.3v10.6c0,1.1-0.7,1.6-1.6,1.6s-1.6-0.6-1.6-1.6V3.2z"/>
	<path class="st0" d="M49.2,6L49.2,6l-6.1,7.8c-1,1.3-1.3,1.6-2.2,1.6c-0.9,0-1.6-0.5-1.6-1.7V1.8c0-1.1,0.7-1.7,1.6-1.7
		c0.9,0,1.6,0.6,1.6,1.7v7.8h0l6-7.8c1-1.3,1.3-1.6,2.2-1.6c0.9,0,1.6,0.6,1.6,1.7v11.9c0,1.1-0.7,1.7-1.6,1.7
		c-0.9,0-1.6-0.6-1.6-1.7V6z"/>
	<path class="st0" d="M54.2,1.7c0-0.9,0.6-1.6,1.6-1.6c0.9,0,1.6,0.6,1.6,1.6v4.6l5.2-5.5c0.2-0.3,0.6-0.6,1.2-0.6
		c0.8,0,1.6,0.6,1.6,1.5c0,0.5-0.3,1-1,1.7l-4,3.9l4.9,5.1c0.5,0.5,0.9,1,0.9,1.6c0,1-0.8,1.5-1.6,1.5c-0.6,0-1-0.4-1.6-1l-5.5-5.9
		v5.4c0,0.8-0.6,1.5-1.6,1.5c-0.9,0-1.6-0.6-1.6-1.5V1.7z"/>
	<path class="st0" d="M76.9,6L76.9,6l-6.1,7.8c-1,1.3-1.3,1.6-2.2,1.6c-0.9,0-1.6-0.5-1.6-1.7V1.8c0-1.1,0.7-1.7,1.6-1.7
		c0.9,0,1.6,0.6,1.6,1.7v7.8h0l6-7.8c1-1.3,1.3-1.6,2.2-1.6c0.9,0,1.6,0.6,1.6,1.7v11.9c0,1.1-0.7,1.7-1.6,1.7
		c-0.9,0-1.6-0.6-1.6-1.7V6z"/>
	<path class="st0" d="M103.6,1c0.7-0.7,1-0.8,1.5-0.8c0.7,0,1.6,0.7,1.6,1.5c0,0.4-0.3,0.9-0.6,1.3l-4.4,4.4l4.8,5.1
		c0.5,0.5,0.9,1,0.9,1.5c0,1-0.8,1.5-1.6,1.5c-0.8,0-1.4-0.7-1.9-1.3l-5.1-5.6v5.2c0,1.1-0.7,1.7-1.6,1.7c-0.9,0-1.6-0.6-1.6-1.7
		V8.5l-5.1,5.6c-0.5,0.6-1.1,1.3-1.9,1.3c-0.9,0-1.6-0.5-1.6-1.5c0-0.6,0.4-1,0.9-1.5l4.8-5.1L88,2.9c-0.4-0.4-0.6-0.8-0.6-1.3
		c0-0.8,0.8-1.5,1.6-1.5c0.5,0,0.8,0.1,1.5,0.8l5,5.3V1.8c0-1.1,0.7-1.7,1.6-1.7c0.9,0,1.6,0.6,1.6,1.7v4.4L103.6,1z"/>
	<path class="st0" d="M110.5,15.3v2.1c0,1-0.6,1.6-1.5,1.6c-0.9,0-1.5-0.6-1.5-1.6v-3.5c0-0.9,0.6-1.5,1.6-1.5h0.4
		c0.4-0.6,0.8-1.6,1.1-3.4l1.1-7.2c0.1-1,0.7-1.6,1.6-1.6h7c0.8,0,1.6,0.6,1.6,1.6v10.6h0.8c1,0,1.6,0.5,1.6,1.5v3.5
		c0,1-0.5,1.6-1.5,1.6c-0.9,0-1.5-0.6-1.5-1.6v-2.1H110.5z M113.7,9.6c-0.2,1.1-0.5,2.1-0.8,2.8h5.8V3.2h-4L113.7,9.6z"/>
	<path class="st0" d="M134.3,1.6c0.3-0.7,0.6-1.4,1.8-1.4c0.9,0,1.5,0.7,1.5,1.5c0,0.4-0.2,0.8-0.4,1.3l-3.9,8.2
		c-1.4,3-2.8,4.2-5.6,4.2c-1.5,0-2.5-0.6-2.5-1.5c0-0.8,0.4-1.6,1.2-1.6c0.5,0,0.8,0.2,1.5,0.2s1.3-0.2,1.6-0.8l0.2-0.3L125.1,3
		c-0.2-0.4-0.4-0.9-0.4-1.3c0-0.8,0.6-1.5,1.7-1.5c1,0,1.3,0.6,1.7,1.4l3.2,6.6L134.3,1.6z"/>
	<path class="st0" d="M142,3.2h-2.3c-1,0-1.4-0.7-1.4-1.5c0-0.7,0.5-1.5,1.4-1.5h7.8c0.9,0,1.4,0.7,1.4,1.5c0,0.7-0.4,1.5-1.4,1.5
		h-2.3v10.6c0,1.1-0.7,1.6-1.6,1.6s-1.6-0.6-1.6-1.6V3.2z"/>
	<path class="st0" d="M26.2,27.6v10.2c0,1.2-0.7,1.8-1.7,1.8c-1,0-1.7-0.6-1.7-1.8V26.1c0-1.1,0.8-1.7,1.7-1.7h9.6
		c0.9,0,1.7,0.6,1.7,1.7v11.6c0,1.2-0.7,1.8-1.7,1.8s-1.7-0.6-1.7-1.8V27.6H26.2z"/>
	<path class="st0" d="M44.4,39.8c-4.5,0-7.4-3.1-7.4-7.9s2.9-7.9,7.4-7.9c4.5,0,7.4,3.1,7.4,7.9S48.9,39.8,44.4,39.8z M44.4,27.2
		c-2.6,0-3.7,2.3-3.7,4.7s1.1,4.7,3.7,4.7c2.6,0,3.7-2.3,3.7-4.7S47.1,27.2,44.4,27.2z"/>
	<path class="st0" d="M55.7,39.5v2c0,1.1-0.6,1.7-1.6,1.7c-1,0-1.6-0.6-1.6-1.7v-3.6c0-1,0.6-1.6,1.7-1.6h0.3c0.4-0.6,0.7-1.6,1-3.2
		l1.1-7c0.2-1.1,0.8-1.7,1.7-1.7h7.1c0.9,0,1.7,0.6,1.7,1.7v10.2h0.7c1.1,0,1.7,0.6,1.7,1.6v3.6c0,1.1-0.6,1.7-1.6,1.7
		c-1,0-1.6-0.6-1.6-1.7v-2H55.7z M58.8,33.6c-0.2,1.1-0.4,2-0.7,2.7h5.5v-8.7h-3.8L58.8,33.6z"/>
	<path class="st0" d="M73.6,36.6l-0.4,1.4c-0.3,1-0.7,1.7-1.8,1.7c-1,0-1.6-0.6-1.6-1.4c0-0.5,0.1-0.9,0.5-2.1l3.3-8.9
		c0.6-1.7,1.1-3.1,2.9-3.1c1.8,0,2.3,1.4,2.9,3.1l3.3,8.9c0.4,1.2,0.5,1.6,0.5,2.1c0,0.8-0.7,1.4-1.6,1.4c-1.1,0-1.5-0.7-1.8-1.7
		l-0.4-1.4H73.6z M76.5,27.9L76.5,27.9l-1.9,5.5h3.6L76.5,27.9z"/>
	<path class="st0" d="M87.3,37.8c0,1.2-0.7,1.8-1.7,1.8c-1,0-1.7-0.6-1.7-1.8V26.1c0-1.1,0.8-1.7,1.7-1.7h4.2c2.6,0,5.2,1.7,5.2,5.1
		c0,2.9-1.8,5.1-5.1,5.1h-2.6V37.8z M87.3,31.6h1.8c1.5,0,2.3-1,2.3-2.1c0-1.4-0.9-2.1-2.3-2.1h-1.8V31.6z"/>
	<path class="st0" d="M104.1,25.1c0.7-0.8,1.1-0.9,1.6-0.9c0.8,0,1.7,0.7,1.7,1.6c0,0.5-0.3,1-0.7,1.4l-4.1,4.1l4.5,4.8
		c0.5,0.6,1,1,1,1.6c0,1.1-0.8,1.7-1.8,1.7c-0.9,0-1.6-0.8-2.1-1.4l-4.8-5.4v5c0,1.2-0.7,1.8-1.7,1.8c-1,0-1.7-0.6-1.7-1.8V26.1
		c0-1.2,0.7-1.8,1.7-1.8c1,0,1.7,0.6,1.7,1.8v4.2L104.1,25.1z"/>
	<path class="st0" d="M118.3,30.6L118.3,30.6l-5.7,7.1c-1.1,1.4-1.5,1.8-2.4,1.8c-1,0-1.7-0.6-1.7-1.8V26.1c0-1.2,0.7-1.8,1.7-1.8
		c1,0,1.7,0.6,1.7,1.8v7.1h0l5.7-7.1c1.1-1.4,1.5-1.8,2.4-1.8c1,0,1.7,0.6,1.7,1.8v11.7c0,1.2-0.7,1.8-1.7,1.8c-1,0-1.7-0.6-1.7-1.8
		V30.6z"/>
	<path class="st0" d="M125.3,36.1c1,0,1.8,0.8,1.8,1.8c0,1-0.8,1.8-1.8,1.8s-1.8-0.8-1.8-1.8C123.5,37,124.3,36.1,125.3,36.1z
		 M127,33.3c0,1-0.6,1.9-1.6,1.9s-1.6-0.9-1.6-1.9v-7.4c0-1,0.6-1.9,1.6-1.9s1.6,0.9,1.6,1.9V33.3z"/>
</g>
</svg>
