<?xml version="1.0" encoding="utf-8"?>
<!-- Generator: Adobe Illustrator 19.2.1, SVG Export Plug-In . SVG Version: 6.00 Build 0)  -->
<svg version="1.1" id="Layer_1" xmlns="http://www.w3.org/2000/svg" xmlns:xlink="http://www.w3.org/1999/xlink" x="0px" y="0px"
	 width="260px" height="35px" viewBox="0 0 260 35" style="enable-background:new 0 0 260 35;" xml:space="preserve">
<style type="text/css">
	.st0{fill:#FFFFFF;}
</style>
<g>
	<path class="st0" d="M0.5,13.1C0.2,12.1,0,11.5,0,10.8c0-1,1-1.9,2.4-1.9c1.1,0,2,0.8,2.2,1.9l2.7,9h0.1l2.7-8.8
		c0.4-1.3,1-2.1,2.4-2.1c1.4,0,2,0.8,2.4,2.1l2.7,8.8h0.1l2.7-9c0.3-1.1,1.1-1.9,2.2-1.9c1.4,0,2.4,0.8,2.4,2.3c0,0.5-0.2,1-0.5,1.8
		l-4,11.3c-0.5,1.4-1.3,2.4-2.8,2.4c-1.4,0-2.3-0.8-2.7-2.2l-2.4-7.6h-0.1L10,24.5c-0.4,1.4-1.3,2.2-2.7,2.2c-1.5,0-2.4-1-2.8-2.4
		L0.5,13.1z"/>
	<path class="st0" d="M26.5,4c0-1.6,1-2.6,2.4-2.6c1.4,0,2.4,1,2.4,2.6v6.4h0.1c1-1.2,2.8-1.6,4.3-1.6c3.7,0,6.4,2.4,6.4,6.3v9
		c0,1.6-1,2.6-2.4,2.6c-1.4,0-2.4-1-2.4-2.6v-8.2c0-2.2-1.4-3.2-3.1-3.2c-1.9,0-3,1.4-3,3.2v8.2c0,1.6-1,2.6-2.4,2.6
		c-1.4,0-2.4-1-2.4-2.6V4z"/>
	<path class="st0" d="M49.6,4.5c0,1.5-1.2,2.7-2.6,2.7c-1.4,0-2.6-1.3-2.6-2.7c0-1.3,1.2-2.6,2.6-2.6S49.6,3.1,49.6,4.5z M44.6,11.6
		c0-1.6,1-2.6,2.4-2.6s2.4,1,2.4,2.6v12.5c0,1.6-1,2.6-2.4,2.6s-2.4-1-2.4-2.6V11.6z"/>
	<path class="st0" d="M61.9,14.2c-0.9,0-2.7-1.4-4.2-1.4c-0.8,0-1.6,0.4-1.6,1.3c0,2.2,8.2,1.9,8.2,7.2c0,3.1-2.6,5.5-6.7,5.5
		c-2.6,0-6.6-1.5-6.6-3.6c0-0.7,0.7-2.1,2-2.1c1.8,0,2.6,1.6,4.9,1.6c1.4,0,1.9-0.5,1.9-1.3c0-2.2-8.2-1.8-8.2-7.2
		c0-3.3,2.6-5.5,6.4-5.5c2.3,0,5.9,1.1,5.9,3.4C63.8,13.2,63,14.2,61.9,14.2z"/>
	<path class="st0" d="M65.9,4c0-1.6,1-2.6,2.4-2.6s2.4,1,2.4,2.6v11l5.2-5c0.8-0.7,1.5-1,2.1-1c1.2,0,2,1.1,2,2.1
		c0,0.7-0.2,1.2-0.9,1.9l-4.2,3.7l5.5,6.5c0.4,0.5,0.6,1,0.6,1.6c0,1.2-1,2.2-2.2,2.2c-0.8,0-1.5-0.5-2.3-1.4l-5.8-7.1h-0.1v5.7
		c0,1.6-1,2.6-2.4,2.6s-2.4-1-2.4-2.6V4z"/>
	<path class="st0" d="M98.3,23.6c0,1.2,0,3.1-2.3,3.1c-1.4,0-1.9-0.8-2.3-2c-1.2,1.4-2.7,2.2-4.5,2.2c-4.4,0-7.8-3.8-7.8-9.1
		c0-5.2,3.5-9.1,7.8-9.1c1.7,0,3.4,0.7,4.5,2.2c0.1-1.1,1.1-2,2.3-2c2.3,0,2.3,1.9,2.3,3.1V23.6z M90,22.6c2.5,0,3.6-2.5,3.6-4.7
		c0-2.3-1.1-4.8-3.6-4.8c-2.6,0-3.7,2.5-3.7,4.8C86.3,20.1,87.4,22.6,90,22.6z"/>
	<path class="st0" d="M110.9,14.2c-0.9,0-2.7-1.4-4.2-1.4c-0.8,0-1.6,0.4-1.6,1.3c0,2.2,8.2,1.9,8.2,7.2c0,3.1-2.6,5.5-6.7,5.5
		c-2.6,0-6.6-1.5-6.6-3.6c0-0.7,0.7-2.1,2-2.1c1.8,0,2.6,1.6,4.9,1.6c1.4,0,1.9-0.5,1.9-1.3c0-2.2-8.2-1.8-8.2-7.2
		c0-3.3,2.6-5.5,6.4-5.5c2.3,0,5.9,1.1,5.9,3.4C112.8,13.2,112,14.2,110.9,14.2z"/>
	<path class="st0" d="M123.4,15c1.2,0.1,1.9,0.9,1.9,2.1c0,1.1-0.7,1.9-1.9,2h-7c-1.2-0.1-1.9-0.9-1.9-2c0-1.2,0.7-2,1.9-2.1H123.4z
		"/>
	<path class="st0" d="M127.6,11.6c0-1.6,1-2.6,2.4-2.6c1.3,0,2.1,0.7,2.4,2c0.9-1.4,2.7-2.2,4.5-2.2c5.1,0,7.6,4.7,7.6,9.3
		c0,4.4-3,8.9-7.7,8.9c-1.5,0-3.1-0.6-4.3-1.6V31c0,1.6-1,2.6-2.4,2.6c-1.4,0-2.4-1-2.4-2.6V11.6z M136,22.6c2.5,0,3.7-2.5,3.7-4.7
		c0-2.2-1.2-4.8-3.7-4.8c-2.5,0-3.7,2.4-3.7,4.6S133.4,22.6,136,22.6z"/>
	<path class="st0" d="M146.3,11.3c0-1.6,1.2-2.4,2.4-2.4c1.2,0,2.3,0.5,2.3,2h0.1c0.9-1.3,1.8-2,3.3-2c1.1,0,2.3,0.8,2.3,2.5
		c0,1.5-1.4,1.6-2.8,2.3c-1.4,0.7-2.8,1.3-2.8,3.1v7.2c0,1.6-1,2.6-2.4,2.6c-1.4,0-2.4-1-2.4-2.6V11.3z"/>
	<path class="st0" d="M172.9,17.9c0,4.9-3.4,9.1-8.4,9.1c-5.1,0-8.4-4.2-8.4-9.1c0-4.8,3.5-9.1,8.4-9.1S172.9,13.1,172.9,17.9z
		 M160.7,17.9c0,2.3,1.2,4.7,3.7,4.7s3.7-2.5,3.7-4.7c0-2.3-1.1-4.8-3.7-4.8C161.9,13.1,160.7,15.6,160.7,17.9z"/>
	<path class="st0" d="M174.9,11.6c0-1.6,1-2.6,2.4-2.6c1.2,0,2,0.7,2.2,1.8c1.1-1.2,2.6-2,4.4-2c2,0,3.6,0.8,4.9,2.4
		c1.3-1.5,3.4-2.4,5-2.4c3.8,0,6.4,2.2,6.4,6.3v9c0,1.6-1,2.6-2.4,2.6c-1.4,0-2.4-1-2.4-2.6v-8.2c0-1.9-1-3.2-2.7-3.2
		c-1.7,0-2.8,1.3-2.8,3.2v8.2c0,1.6-1,2.6-2.4,2.6c-1.4,0-2.4-1-2.4-2.6v-8.2c0-1.9-1-3.2-2.7-3.2c-1.9,0-2.8,1.3-2.8,3.2v8.2
		c0,1.6-1,2.6-2.4,2.6c-1.4,0-2.4-1-2.4-2.6V11.6z"/>
	<path class="st0" d="M218.9,17.9c0,4.9-3.4,9.1-8.4,9.1c-5.1,0-8.4-4.2-8.4-9.1c0-4.8,3.5-9.1,8.4-9.1S218.9,13.1,218.9,17.9z
		 M206.7,17.9c0,2.3,1.2,4.7,3.7,4.7s3.7-2.5,3.7-4.7c0-2.3-1.1-4.8-3.7-4.8S206.7,15.6,206.7,17.9z"/>
	<path class="st0" d="M223.9,21.8c1.4,0,2.5,1.1,2.5,2.5c0,1.4-1.1,2.5-2.5,2.5c-1.4,0-2.5-1.1-2.5-2.5
		C221.4,23,222.5,21.8,223.9,21.8z"/>
	<path class="st0" d="M229.6,4c0-1.6,1-2.6,2.4-2.6c1.4,0,2.4,1,2.4,2.6v11l5.2-5c0.8-0.7,1.5-1,2.1-1c1.2,0,2,1.1,2,2.1
		c0,0.7-0.2,1.2-0.9,1.9l-4.2,3.7l5.5,6.5c0.4,0.5,0.6,1,0.6,1.6c0,1.2-1,2.2-2.2,2.2c-0.8,0-1.5-0.5-2.3-1.4l-5.8-7.1h-0.1v5.7
		c0,1.6-1,2.6-2.4,2.6c-1.4,0-2.4-1-2.4-2.6V4z"/>
	<path class="st0" d="M252.8,13.3h-5.5c-1.2,0-2.1-0.8-2.1-2.1s0.9-2.1,2.1-2.1H258c0.4,0,1.5,0.2,1.5,1.5c0,0.6-0.1,0.9-0.5,1.4
		l-7.4,10.4h6.2c1.2,0,2.1,0.8,2.1,2.1c0,1.3-0.9,2.1-2.1,2.1h-10.9c-1,0-1.9-0.5-1.9-1.6c0-0.5,0.3-1,0.4-1.3L252.8,13.3z"/>
</g>
</svg>
