<?xml version="1.0" encoding="utf-8"?>
<!-- Generator: Adobe Illustrator 19.2.1, SVG Export Plug-In . SVG Version: 6.00 Build 0)  -->
<svg version="1.1" id="Layer_1" xmlns="http://www.w3.org/2000/svg" xmlns:xlink="http://www.w3.org/1999/xlink" x="0px" y="0px"
	 width="254px" height="72px" viewBox="0 0 254 72" style="enable-background:new 0 0 254 72;" xml:space="preserve">
<style type="text/css">
	.st0{fill:#FFFFFF;}
</style>
<g>
	<path class="st0" d="M7.9,12c-2.5,0-3,1.6-4.7,1.6c-1.4,0-2.2-1-2.2-2.4c0-1.6,2.3-4,7.6-4c4.9,0,7.5,2.9,7.5,6.4
		c0,2.8-1.5,4.6-3.5,5.4c3.1,0.8,4.6,2.7,4.6,5.7c0,5-4,7.6-9.1,7.6c-3.5,0-8-1.5-8-3.9c0-1.4,0.8-2.6,2.4-2.6
		c1.4,0,2.8,1.6,5.7,1.6c2.5,0,3.6-1.2,3.6-2.6c0-2.1-1.7-3-5.4-3c-1.8,0-2.8-0.8-2.8-2.2c0-1.6,1-2.4,2.6-2.4
		c3.1,0,4.4-1.3,4.4-2.7C10.6,12.9,9.5,12,7.9,12z"/>
	<path class="st0" d="M24.8,10.1c0.6-1.6,1.9-2.8,3.6-2.8c1.8,0,3.1,1.2,3.6,2.8l6.7,18.5c0.2,0.5,0.3,1,0.3,1.3
		c0,1.3-1.1,2.2-2.3,2.2c-1.4,0-2.1-0.7-2.5-1.8l-1-3.2h-9.4l-1,3.2c-0.3,1.1-1.1,1.8-2.4,1.8c-1.4,0-2.5-1-2.5-2.4
		c0-0.5,0.2-0.9,0.2-1.1L24.8,10.1z M25.2,22.4h6.4l-3.2-9.8h-0.1L25.2,22.4z"/>
	<path class="st0" d="M40.6,10.3c0-1.6,1-2.6,2.6-2.6h6c5,0,8.7,3.3,8.7,8.1c0,5-3.8,8-8.5,8h-3.8v5.6c0,1.7-1.1,2.6-2.5,2.6
		c-1.5,0-2.5-1-2.5-2.6V10.3z M45.7,19.3h3.5c2.1,0,3.5-1.6,3.5-3.6c0-2-1.4-3.6-3.5-3.6h-3.5V19.3z"/>
	<path class="st0" d="M59.4,10.6c0-1.7,0.8-3,2.6-3h8.4c1.6,0,2.4,1.2,2.4,2.3c0,1.2-0.8,2.3-2.4,2.3h-6v5h5.6
		c1.7,0,2.5,1.2,2.5,2.3c0,1.2-0.8,2.3-2.5,2.3h-5.6v5.2h6.3c1.6,0,2.4,1.2,2.4,2.3c0,1.2-0.8,2.3-2.4,2.3h-8.8
		c-1.5,0-2.6-1-2.6-2.5V10.6z"/>
	<path class="st0" d="M80.2,29.3c0,1.8-1.1,2.7-2.5,2.7c-1.5,0-2.5-0.9-2.5-2.7V10.2c0-1.6,1.2-2.5,2.5-2.5h8.7c1.6,0,2.5,1,2.5,2.3
		c0,1.5-1,2.3-2.5,2.3h-6.1V29.3z"/>
	<path class="st0" d="M105.7,16.8L105.7,16.8L96,29.4c-1.6,2.1-2.1,2.6-3.5,2.6C91,32,90,31.1,90,29.3V10.2c0-1.8,1.1-2.7,2.5-2.7
		c1.5,0,2.5,0.9,2.5,2.7v12.5h0.1l9.7-12.5c1.6-2.1,2.1-2.6,3.5-2.6c1.5,0,2.5,0.9,2.5,2.7v19.1c0,1.8-1.1,2.7-2.5,2.7
		c-1.5,0-2.5-0.9-2.5-2.7V16.8z"/>
	<path class="st0" d="M124.6,7.2c2.5,0,7.3,0.8,7.3,3.8c0,1.2-0.8,2.3-2.1,2.3c-1.4,0-2.3-1.2-5.2-1.2c-4.2,0-6.4,3.6-6.4,7.7
		c0,4,2.2,7.5,6.4,7.5c2.9,0,4-1.4,5.4-1.4c1.5,0,2.2,1.5,2.2,2.3c0,3.3-5.1,4-7.6,4c-6.9,0-11.7-5.5-11.7-12.5
		C112.9,12.7,117.6,7.2,124.6,7.2z"/>
	<path class="st0" d="M138.6,12.3h-3.7c-1.6,0-2.3-1.2-2.3-2.3c0-1.2,0.8-2.3,2.3-2.3h12.5c1.5,0,2.3,1.2,2.3,2.3
		c0,1.2-0.7,2.3-2.3,2.3h-3.7v17c0,1.7-1.1,2.6-2.5,2.6c-1.5,0-2.5-1-2.5-2.6V12.3z"/>
	<path class="st0" d="M150.8,10.3c0-1.6,0.9-2.6,2.6-2.6h6c5,0,8.7,3.3,8.7,8.1c0,5-3.8,8-8.5,8h-3.8v5.6c0,1.7-1.1,2.6-2.5,2.6
		c-1.5,0-2.5-1-2.5-2.6V10.3z M155.9,19.3h3.5c2.1,0,3.5-1.6,3.5-3.6c0-2-1.4-3.6-3.5-3.6h-3.5V19.3z"/>
	<path class="st0" d="M185.4,16.8L185.4,16.8l-9.7,12.6c-1.6,2.1-2.1,2.6-3.5,2.6c-1.5,0-2.5-0.9-2.5-2.7V10.2
		c0-1.8,1.1-2.7,2.5-2.7c1.5,0,2.5,0.9,2.5,2.7v12.5h0.1l9.7-12.5c1.6-2.1,2.1-2.6,3.5-2.6c1.5,0,2.5,0.9,2.5,2.7v19.1
		c0,1.8-1.1,2.7-2.5,2.7c-1.5,0-2.5-0.9-2.5-2.7V16.8z"/>
	<path class="st0" d="M193.6,10.3c0-1.6,0.9-2.6,2.6-2.6h6c5,0,8.7,3.3,8.7,8.1c0,5-3.8,8-8.5,8h-3.8v5.6c0,1.7-1.1,2.6-2.5,2.6
		c-1.5,0-2.5-1-2.5-2.6V10.3z M198.7,19.3h3.5c2.1,0,3.5-1.6,3.5-3.6c0-2-1.4-3.6-3.5-3.6h-3.5V19.3z"/>
	<path class="st0" d="M226.5,9.8c0.5-1.2,1-2.3,2.9-2.3c1.5,0,2.5,1.2,2.5,2.4c0,0.6-0.3,1.4-0.6,2.1l-6.3,13.2
		c-2.3,4.8-4.5,6.8-9,6.8c-2.3,0-4-1-4-2.4c0-1.4,0.7-2.5,1.9-2.5c0.7,0,1.3,0.3,2.4,0.3c1.2,0,2-0.4,2.6-1.3l0.3-0.5L211.8,12
		c-0.3-0.6-0.6-1.5-0.6-2.1c0-1.3,1-2.5,2.7-2.5c1.6,0,2.1,0.9,2.7,2.2l5.2,10.5L226.5,9.8z"/>
	<path class="st0" d="M248.9,16.8L248.9,16.8l-9.7,12.6c-1.6,2.1-2.1,2.6-3.5,2.6c-1.5,0-2.5-0.9-2.5-2.7V10.2
		c0-1.8,1.1-2.7,2.5-2.7c1.5,0,2.5,0.9,2.5,2.7v12.5h0.1l9.7-12.5c1.6-2.1,2.1-2.6,3.5-2.6c1.5,0,2.5,0.9,2.5,2.7v19.1
		c0,1.8-1.1,2.7-2.5,2.7c-1.5,0-2.5-0.9-2.5-2.7V16.8z M239.9,0.5c2.1,0,1.6,2.3,3.7,2.3c1.8,0,1.5-2.3,3.7-2.3c0.9,0,1.5,1.2,1.5,2
		c0,2.4-3.2,3.5-5.3,3.5c-2.1,0-5.3-1-5.3-3.5C238.4,1.6,238.8,0.5,239.9,0.5z"/>
	<path class="st0" d="M24.2,62.2c-7,0-9.9-4.3-9.9-10.1v-3.2c0-1.8,1.1-2.7,2.5-2.7c1.5,0,2.5,0.9,2.5,2.7v2.8
		c0,3.9,1.7,5.8,5.2,5.8h3.8v-8.6c0-1.8,1.1-2.7,2.5-2.7c1.5,0,2.5,0.9,2.5,2.7v19.1c0,1.8-1.1,2.7-2.5,2.7c-1.5,0-2.5-0.9-2.5-2.7
		v-5.9H24.2z"/>
	<path class="st0" d="M36.6,49.4c0-1.7,0.8-3,2.6-3h8.4c1.6,0,2.4,1.2,2.4,2.3c0,1.2-0.8,2.3-2.4,2.3h-6v5h5.6
		c1.7,0,2.5,1.2,2.5,2.3c0,1.2-0.8,2.3-2.5,2.3h-5.6v5.2h6.3c1.6,0,2.4,1.2,2.4,2.3c0,1.2-0.8,2.3-2.4,2.3h-8.8
		c-1.5,0-2.6-1-2.6-2.5V49.4z"/>
	<path class="st0" d="M52.3,48.7c0-1.4,1-2.5,2.5-2.5c1.5,0,2.5,0.9,2.5,2.5v7.3l8.3-8.9c0.4-0.4,1-0.9,2-0.9c1.3,0,2.5,1,2.5,2.4
		c0,0.9-0.5,1.6-1.7,2.7l-6.4,6.3l7.8,8.2c0.8,0.8,1.4,1.6,1.4,2.6c0,1.6-1.3,2.3-2.6,2.3c-1,0-1.6-0.6-2.6-1.6l-8.8-9.5v8.7
		c0,1.3-1,2.4-2.5,2.4c-1.5,0-2.5-1-2.5-2.4V48.7z"/>
	<path class="st0" d="M82.1,48.9c0-1.7,1.1-2.6,2.5-2.6s2.5,0.9,2.5,2.6v7.2h10.7v-7.2c0-1.7,1.1-2.6,2.5-2.6c1.5,0,2.5,0.9,2.5,2.6
		v19.3c0,1.7-1.1,2.6-2.5,2.6c-1.5,0-2.5-1-2.5-2.6v-7.4H87.2v7.4c0,1.7-1.1,2.6-2.5,2.6s-2.5-1-2.5-2.6V48.9z"/>
	<path class="st0" d="M111.6,48.8c0.6-1.6,1.9-2.8,3.6-2.8c1.8,0,3.1,1.2,3.6,2.8l6.7,18.5c0.2,0.5,0.3,1,0.3,1.3
		c0,1.3-1.1,2.2-2.3,2.2c-1.4,0-2.1-0.7-2.5-1.8l-1-3.2h-9.4l-1,3.2c-0.3,1.1-1.1,1.8-2.4,1.8c-1.4,0-2.5-1-2.5-2.4
		c0-0.5,0.2-0.9,0.2-1.1L111.6,48.8z M112,61.2h6.4l-3.2-9.8h-0.1L112,61.2z"/>
	<path class="st0" d="M147.2,46c2.5,0,7.3,0.8,7.3,3.8c0,1.2-0.8,2.3-2.1,2.3c-1.4,0-2.3-1.2-5.2-1.2c-4.2,0-6.4,3.6-6.4,7.7
		c0,4,2.2,7.5,6.4,7.5c2.9,0,4-1.4,5.4-1.4c1.5,0,2.2,1.5,2.2,2.3c0,3.3-5.1,4-7.6,4c-6.9,0-11.7-5.5-11.7-12.5
		C135.5,51.5,140.3,46,147.2,46z"/>
	<path class="st0" d="M162.8,48.8c0.6-1.6,1.9-2.8,3.6-2.8c1.8,0,3.1,1.2,3.6,2.8l6.7,18.5c0.2,0.5,0.3,1,0.3,1.3
		c0,1.3-1.1,2.2-2.3,2.2c-1.4,0-2.1-0.7-2.5-1.8l-1-3.2h-9.4l-1,3.2c-0.3,1.1-1.1,1.8-2.4,1.8c-1.4,0-2.5-1-2.5-2.4
		c0-0.5,0.2-0.9,0.2-1.1L162.8,48.8z M163.2,61.2h6.4l-3.2-9.8h-0.1L163.2,61.2z"/>
	<path class="st0" d="M194.3,55.6L194.3,55.6l-9.7,12.6c-1.6,2.1-2.1,2.6-3.5,2.6c-1.5,0-2.5-0.9-2.5-2.7V48.9
		c0-1.8,1.1-2.7,2.5-2.7c1.5,0,2.5,0.9,2.5,2.7v12.5h0.1l9.7-12.5c1.6-2.1,2.1-2.6,3.5-2.6c1.5,0,2.5,0.9,2.5,2.7v19.1
		c0,1.8-1.1,2.7-2.5,2.7c-1.5,0-2.5-0.9-2.5-2.7V55.6z M185.3,39.3c2.1,0,1.6,2.3,3.7,2.3c1.8,0,1.5-2.3,3.7-2.3
		c0.9,0,1.5,1.2,1.5,2c0,2.4-3.2,3.5-5.3,3.5c-2.1,0-5.3-1-5.3-3.5C183.8,40.4,184.2,39.3,185.3,39.3z"/>
	<path class="st0" d="M206.5,51.1h-3.7c-1.6,0-2.3-1.2-2.3-2.3c0-1.2,0.8-2.3,2.3-2.3h12.5c1.5,0,2.3,1.2,2.3,2.3
		c0,1.2-0.7,2.3-2.3,2.3h-3.7v17c0,1.7-1.1,2.6-2.5,2.6s-2.5-1-2.5-2.6V51.1z"/>
	<path class="st0" d="M218.7,49.4c0-1.7,0.8-3,2.6-3h8.4c1.6,0,2.4,1.2,2.4,2.3c0,1.2-0.8,2.3-2.4,2.3h-6v5h5.6
		c1.7,0,2.5,1.2,2.5,2.3c0,1.2-0.8,2.3-2.5,2.3h-5.6v5.2h6.3c1.6,0,2.4,1.2,2.4,2.3c0,1.2-0.8,2.3-2.4,2.3h-8.8
		c-1.5,0-2.6-1-2.6-2.5V49.4z"/>
</g>
</svg>
