<?xml version="1.0" encoding="utf-8"?>
<!-- Generator: Adobe Illustrator 19.2.1, SVG Export Plug-In . SVG Version: 6.00 Build 0)  -->
<svg version="1.1" id="Layer_1" xmlns="http://www.w3.org/2000/svg" xmlns:xlink="http://www.w3.org/1999/xlink" x="0px" y="0px"
	 width="254px" height="45px" viewBox="0 0 254 45" style="enable-background:new 0 0 254 45;" xml:space="preserve">
<style type="text/css">
	.st0{fill:#FFFFFF;}
</style>
<g>
	<path class="st0" d="M16.8,23L16.8,23L6.4,36.4c-1.7,2.2-2.3,2.8-3.7,2.8c-1.6,0-2.7-0.9-2.7-2.9V15.9C0,13.9,1.1,13,2.7,13
		c1.6,0,2.7,1,2.7,2.9v13.3h0.1l10.4-13.4c1.7-2.2,2.3-2.8,3.7-2.8c1.6,0,2.7,1,2.7,2.9v20.5c0,1.9-1.1,2.9-2.7,2.9
		c-1.6,0-2.7-1-2.7-2.9V23z"/>
	<path class="st0" d="M35.3,15.9c0-1.7,1.2-2.7,2.9-2.7h7c3.8,0,6.8,2.5,6.8,6.4c0,2.5-1.1,4.2-3.4,5.3V25c3.1,0.4,5.5,3,5.5,6.2
		c0,5.1-3.4,7.9-8.4,7.9h-7.5c-1.7,0-2.9-1.1-2.9-2.8V15.9z M40.7,23.4h2.8c1.8,0,2.9-1.1,2.9-2.9c0-1.7-1.3-2.6-2.9-2.6h-2.8V23.4z
		 M40.7,34.3H45c2,0,3.4-1.1,3.4-3.2c0-1.7-1.3-2.9-3.9-2.9h-3.8V34.3z"/>
	<path class="st0" d="M66.6,22.9c5.8,0,8.5,3.8,8.5,7.9c0,4.4-2.7,8.2-8.9,8.2h-7.3c-1.5,0-2.8-1-2.8-2.7V15.9
		c0-1.9,1.1-2.9,2.7-2.9c1.6,0,2.7,1,2.7,2.9v7H66.6z M61.5,34.2h4.1c2.2,0,3.9-1,3.9-3.2c0-2.1-1.5-3.1-3.9-3.1h-4.1V34.2z
		 M82.7,36.4c0,1.9-1.1,2.9-2.7,2.9c-1.6,0-2.7-1-2.7-2.9V15.9c0-1.9,1.1-2.9,2.7-2.9c1.6,0,2.7,1,2.7,2.9V36.4z"/>
	<path class="st0" d="M102.8,23L102.8,23L92.4,36.4c-1.7,2.2-2.3,2.8-3.7,2.8c-1.6,0-2.7-0.9-2.7-2.9V15.9c0-1.9,1.1-2.9,2.7-2.9
		c1.6,0,2.7,1,2.7,2.9v13.3h0.1l10.4-13.4c1.7-2.2,2.3-2.8,3.7-2.8c1.6,0,2.7,1,2.7,2.9v20.5c0,1.9-1.1,2.9-2.7,2.9
		c-1.6,0-2.7-1-2.7-2.9V23z"/>
	<path class="st0" d="M116.9,36.4c0,1.9-1.1,2.9-2.7,2.9c-1.6,0-2.7-1-2.7-2.9V15.9c0-1.7,1.3-2.7,2.7-2.7h9.3c1.7,0,2.7,1,2.7,2.5
		c0,1.6-1,2.5-2.7,2.5h-6.5V36.4z"/>
	<path class="st0" d="M127.4,16c0-1.7,1-2.8,2.8-2.8h6.4c5.3,0,9.3,3.5,9.3,8.7c0,5.3-4.1,8.6-9.1,8.6h-4v6c0,1.8-1.2,2.8-2.7,2.8
		c-1.6,0-2.7-1-2.7-2.8V16z M132.8,25.7h3.7c2.3,0,3.7-1.7,3.7-3.9c0-2.2-1.5-3.9-3.7-3.9h-3.7V25.7z"/>
	<path class="st0" d="M158.1,22.9c5.8,0,8.5,3.8,8.5,7.9c0,4.4-2.7,8.2-8.9,8.2h-7.3c-1.5,0-2.8-1-2.8-2.7V15.9
		c0-1.9,1.1-2.9,2.7-2.9c1.6,0,2.7,1,2.7,2.9v7H158.1z M153,34.2h4.1c2.2,0,3.9-1,3.9-3.2c0-2.1-1.5-3.1-3.9-3.1H153V34.2z
		 M174.2,36.4c0,1.9-1.1,2.9-2.7,2.9s-2.7-1-2.7-2.9V15.9c0-1.9,1.1-2.9,2.7-2.9s2.7,1,2.7,2.9V36.4z"/>
	<path class="st0" d="M177.5,15.9c0-1.7,1.2-2.7,2.9-2.7h7c3.8,0,6.8,2.5,6.8,6.4c0,2.5-1.1,4.2-3.4,5.3V25c3.1,0.4,5.5,3,5.5,6.2
		c0,5.1-3.4,7.9-8.4,7.9h-7.5c-1.7,0-2.9-1.1-2.9-2.8V15.9z M182.9,23.4h2.8c1.8,0,2.9-1.1,2.9-2.9c0-1.7-1.3-2.6-2.9-2.6h-2.8V23.4
		z M182.9,34.3h4.3c2,0,3.4-1.1,3.4-3.2c0-1.7-1.3-2.9-3.9-2.9h-3.8V34.3z"/>
	<path class="st0" d="M204.3,15.8c0.6-1.7,2-3,3.9-3c1.9,0,3.3,1.3,3.9,3l7.1,19.8c0.2,0.6,0.3,1.1,0.3,1.3c0,1.4-1.2,2.4-2.5,2.4
		c-1.5,0-2.3-0.8-2.7-1.9l-1.1-3.4h-10.1l-1.1,3.4c-0.4,1.1-1.1,1.9-2.6,1.9c-1.5,0-2.7-1.1-2.7-2.5c0-0.6,0.2-1,0.3-1.2L204.3,15.8
		z M204.7,28.9h6.9l-3.4-10.5h-0.1L204.7,28.9z"/>
	<path class="st0" d="M238,23L238,23l-10.4,13.4c-1.7,2.2-2.3,2.8-3.7,2.8c-1.6,0-2.7-0.9-2.7-2.9V15.9c0-1.9,1.1-2.9,2.7-2.9
		c1.6,0,2.7,1,2.7,2.9v13.3h0.1L237,15.8c1.7-2.2,2.3-2.8,3.7-2.8c1.6,0,2.7,1,2.7,2.9v20.5c0,1.9-1.1,2.9-2.7,2.9
		c-1.6,0-2.7-1-2.7-2.9V23z M228.4,5.5c2.3,0,1.7,2.5,4,2.5c2,0,1.6-2.5,4-2.5c0.9,0,1.6,1.2,1.6,2.2c0,2.6-3.5,3.8-5.6,3.8
		c-2.2,0-5.6-1.1-5.6-3.8C226.8,6.7,227.2,5.5,228.4,5.5z"/>
	<path class="st0" d="M248.3,36.6c0-1.6,1.3-2.8,2.8-2.8c1.6,0,2.8,1.3,2.8,2.8s-1.3,2.8-2.8,2.8C249.6,39.5,248.3,38.2,248.3,36.6z
		 M248.6,15.2c0-1.5,1.1-2.5,2.6-2.5c1.5,0,2.6,1,2.6,2.5v14c0,1.5-1.2,2.5-2.6,2.5c-1.5,0-2.6-0.9-2.6-2.5V15.2z"/>
</g>
</svg>
