<?xml version="1.0" encoding="utf-8"?>
<!-- Generator: Adobe Illustrator 19.2.1, SVG Export Plug-In . SVG Version: 6.00 Build 0)  -->
<svg version="1.1" id="Layer_1" xmlns="http://www.w3.org/2000/svg" xmlns:xlink="http://www.w3.org/1999/xlink" x="0px" y="0px"
	 width="150px" height="68px" viewBox="0 0 150 68" style="enable-background:new 0 0 150 68;" xml:space="preserve">
<g>
	<g>
		<path d="M24.4,0.6h7.5V10H30V2.2h-3.7V10h-1.9V0.6z"/>
		<path d="M33.4,5.4c0-1,0.1-1.8,0.4-2.4c0.2-0.5,0.5-0.9,0.9-1.3c0.4-0.4,0.8-0.7,1.2-0.8c0.6-0.2,1.3-0.4,2-0.4
			c1.4,0,2.5,0.4,3.3,1.3c0.8,0.9,1.2,2,1.2,3.6c0,1.5-0.4,2.7-1.2,3.6c-0.8,0.9-1.9,1.3-3.3,1.3c-1.4,0-2.5-0.4-3.3-1.3
			C33.8,8,33.4,6.9,33.4,5.4z M35.4,5.3c0,1.1,0.2,1.9,0.7,2.4c0.5,0.5,1.1,0.8,1.9,0.8c0.8,0,1.4-0.3,1.9-0.8
			c0.5-0.5,0.7-1.4,0.7-2.4c0-1.1-0.2-1.9-0.7-2.4c-0.5-0.5-1.1-0.8-1.9-0.8c-0.8,0-1.4,0.3-1.9,0.8C35.6,3.4,35.4,4.2,35.4,5.3z"/>
		<path d="M44.6,0.6h6.5v7.8h0.8v3.6h-1.6v-2h-5.9v2h-1.6V8.4h0.8c0.4-0.8,0.6-1.7,0.8-2.8s0.2-2.4,0.2-4V0.6z M46.4,2.2
			c0,2.8-0.3,4.9-0.8,6.2h3.6V2.2H46.4z"/>
		<path d="M53.1,10V0.6h3c1.2,0,1.9,0,2.3,0.1c0.5,0.1,1,0.4,1.3,0.9c0.4,0.5,0.5,1.1,0.5,1.8c0,0.6-0.1,1.1-0.3,1.5
			c-0.2,0.4-0.5,0.7-0.8,0.9c-0.3,0.2-0.6,0.4-1,0.4c-0.5,0.1-1.1,0.1-2,0.1H55V10H53.1z M55,2.2v2.7h1c0.7,0,1.2,0,1.5-0.1
			c0.3-0.1,0.4-0.3,0.6-0.5c0.1-0.2,0.2-0.5,0.2-0.7c0-0.3-0.1-0.6-0.3-0.8c-0.2-0.2-0.5-0.4-0.8-0.4c-0.2,0-0.7-0.1-1.4-0.1H55z"/>
		<path d="M61.3,5.4c0-1,0.1-1.8,0.4-2.4c0.2-0.5,0.5-0.9,0.9-1.3C63,1.3,63.4,1,63.8,0.8c0.6-0.2,1.3-0.4,2-0.4
			c1.4,0,2.5,0.4,3.3,1.3c0.8,0.9,1.2,2,1.2,3.6c0,1.5-0.4,2.7-1.2,3.6c-0.8,0.9-1.9,1.3-3.3,1.3c-1.4,0-2.5-0.4-3.3-1.3
			C61.7,8,61.3,6.9,61.3,5.4z M63.3,5.3c0,1.1,0.2,1.9,0.7,2.4s1.1,0.8,1.9,0.8c0.8,0,1.4-0.3,1.9-0.8c0.5-0.5,0.7-1.4,0.7-2.4
			c0-1.1-0.2-1.9-0.7-2.4c-0.5-0.5-1.1-0.8-1.9-0.8c-0.8,0-1.4,0.3-1.9,0.8C63.5,3.4,63.3,4.2,63.3,5.3z"/>
		<path d="M71.9,0.6h7v1.6h-5.1v2.2h2.5c0.7,0,1.3,0.1,1.7,0.3c0.5,0.2,0.9,0.5,1.2,0.9c0.3,0.5,0.5,1,0.5,1.6
			c0,0.6-0.2,1.2-0.5,1.6c-0.3,0.5-0.7,0.8-1.1,0.9c-0.4,0.2-1,0.2-1.8,0.2h-4.4V0.6z M73.8,8.4h1.8c0.6,0,1,0,1.2-0.1
			c0.2-0.1,0.4-0.2,0.6-0.4c0.2-0.2,0.3-0.5,0.3-0.8c0-0.4-0.2-0.8-0.5-0.9C77,6.1,76.5,6,75.8,6h-1.9V8.4z"/>
		<path d="M81.3,10V0.6h1.9v3.7h3.7V0.6h1.9V10h-1.9V5.9h-3.7V10H81.3z"/>
		<path d="M90.4,5.4c0-1,0.1-1.8,0.4-2.4c0.2-0.5,0.5-0.9,0.9-1.3s0.8-0.7,1.2-0.8c0.6-0.2,1.3-0.4,2-0.4c1.4,0,2.5,0.4,3.3,1.3
			c0.8,0.9,1.2,2,1.2,3.6c0,1.5-0.4,2.7-1.2,3.6c-0.8,0.9-1.9,1.3-3.3,1.3c-1.4,0-2.5-0.4-3.3-1.3S90.4,6.9,90.4,5.4z M92.3,5.3
			c0,1.1,0.2,1.9,0.7,2.4c0.5,0.5,1.1,0.8,1.9,0.8c0.8,0,1.4-0.3,1.9-0.8c0.5-0.5,0.7-1.4,0.7-2.4c0-1.1-0.2-1.9-0.7-2.4
			c-0.5-0.5-1.1-0.8-1.9-0.8c-0.8,0-1.4,0.3-1.9,0.8C92.6,3.4,92.3,4.2,92.3,5.3z"/>
		<path d="M107,6.6l1.8,0.6c-0.3,1-0.7,1.8-1.4,2.3c-0.7,0.5-1.5,0.7-2.5,0.7c-1.2,0-2.3-0.4-3.1-1.3c-0.8-0.9-1.2-2-1.2-3.5
			c0-1.6,0.4-2.8,1.2-3.6c0.8-0.9,1.9-1.3,3.2-1.3c1.1,0,2.1,0.3,2.8,1c0.4,0.4,0.7,1,1,1.7l-1.9,0.4c-0.1-0.5-0.3-0.9-0.7-1.2
			c-0.4-0.3-0.8-0.4-1.3-0.4c-0.7,0-1.3,0.2-1.7,0.7s-0.6,1.3-0.6,2.4c0,1.2,0.2,2,0.6,2.5s1,0.8,1.7,0.8c0.5,0,0.9-0.2,1.3-0.5
			C106.6,7.7,106.8,7.2,107,6.6z"/>
		<path d="M112.2,10V2.2h-2.8V0.6h7.5v1.6h-2.8V10H112.2z"/>
		<path d="M118.1,0.6h1.8v6.2l3.8-6.2h1.9V10h-1.8V3.9L120,10h-1.9V0.6z"/>
	</g>
	<g>
		<path d="M0.8,27.5v-9.4h1.9v3.7h3.7v-3.7h1.9v9.4H6.4v-4.1H2.7v4.1H0.8z"/>
		<path d="M18.7,27.5h-2.1l-0.8-2.1h-3.7l-0.8,2.1h-2l3.7-9.4h2L18.7,27.5z M15.2,23.8l-1.3-3.5l-1.3,3.5H15.2z"/>
		<path d="M31.8,27.5h-2.1l-0.8-2.1h-3.7l-0.8,2.1h-2l3.7-9.4h2L31.8,27.5z M28.3,23.8L27,20.3l-1.3,3.5H28.3z"/>
		<path d="M34.1,20.7l-1.8-0.4c0.4-1.5,1.5-2.3,3.4-2.3c1.1,0,1.9,0.2,2.5,0.7c0.6,0.5,0.8,1.1,0.8,1.7c0,0.4-0.1,0.9-0.4,1.2
			c-0.3,0.4-0.6,0.7-1.2,0.9c0.6,0.2,1.1,0.5,1.4,0.9c0.3,0.4,0.5,0.9,0.5,1.4c0,0.8-0.3,1.5-0.9,2c-0.6,0.5-1.5,0.8-2.7,0.8
			c-1,0-1.8-0.2-2.3-0.5c-0.6-0.3-1-0.9-1.3-1.8l1.7-0.6c0.2,0.6,0.4,0.9,0.7,1.1c0.3,0.2,0.7,0.2,1.1,0.2c0.6,0,1-0.1,1.3-0.4
			c0.3-0.3,0.4-0.6,0.4-0.9c0-0.4-0.2-0.7-0.5-0.9c-0.3-0.2-0.8-0.4-1.4-0.4h-0.4v-1.4h0.2c0.6,0,1-0.1,1.3-0.4
			c0.3-0.3,0.5-0.6,0.5-1c0-0.3-0.1-0.6-0.4-0.9c-0.2-0.2-0.6-0.4-1.1-0.4C34.9,19.5,34.4,19.9,34.1,20.7z"/>
		<path d="M46.7,24l1.8,0.6c-0.3,1-0.7,1.8-1.4,2.3c-0.7,0.5-1.5,0.7-2.5,0.7c-1.2,0-2.3-0.4-3.1-1.3c-0.8-0.9-1.2-2-1.2-3.5
			c0-1.6,0.4-2.8,1.2-3.6c0.8-0.9,1.9-1.3,3.2-1.3c1.1,0,2.1,0.3,2.8,1c0.4,0.4,0.7,1,1,1.7l-1.9,0.4c-0.1-0.5-0.3-0.9-0.7-1.2
			c-0.4-0.3-0.8-0.4-1.3-0.4c-0.7,0-1.3,0.2-1.7,0.7c-0.4,0.5-0.6,1.3-0.6,2.4c0,1.2,0.2,2,0.6,2.5c0.4,0.5,1,0.8,1.7,0.8
			c0.5,0,0.9-0.2,1.3-0.5C46.3,25.2,46.5,24.7,46.7,24z"/>
		<path d="M53.8,18.1h1.9v4c0.4,0,0.7-0.2,0.9-0.3c0.1-0.2,0.4-0.7,0.7-1.5c0.4-1,0.8-1.6,1.2-1.9c0.4-0.2,1-0.4,1.9-0.4
			c0,0,0.1,0,0.3,0v1.4l-0.3,0c-0.4,0-0.7,0-0.9,0.1s-0.3,0.2-0.4,0.4c-0.1,0.2-0.3,0.6-0.5,1.2c-0.1,0.3-0.2,0.6-0.4,0.8
			c-0.1,0.2-0.4,0.4-0.7,0.6c0.4,0.1,0.8,0.4,1,0.7c0.3,0.4,0.6,0.9,0.9,1.5l1.3,2.6h-2.2L57.4,25c0,0-0.1-0.1-0.1-0.2
			c0,0-0.1-0.2-0.2-0.4c-0.2-0.5-0.4-0.7-0.6-0.9c-0.2-0.1-0.4-0.2-0.7-0.2v4.1h-1.9V18.1z"/>
		<path d="M70.2,27.5h-2.1l-0.8-2.1h-3.7l-0.8,2.1h-2l3.7-9.4h2L70.2,27.5z M66.8,23.8l-1.3-3.5l-1.3,3.5H66.8z"/>
		<path d="M72.6,20.7l-1.8-0.4c0.4-1.5,1.5-2.3,3.4-2.3c1.1,0,1.9,0.2,2.5,0.7c0.6,0.5,0.8,1.1,0.8,1.7c0,0.4-0.1,0.9-0.4,1.2
			c-0.3,0.4-0.6,0.7-1.2,0.9c0.6,0.2,1.1,0.5,1.4,0.9c0.3,0.4,0.5,0.9,0.5,1.4c0,0.8-0.3,1.5-0.9,2c-0.6,0.5-1.5,0.8-2.7,0.8
			c-1,0-1.8-0.2-2.3-0.5c-0.6-0.3-1-0.9-1.3-1.8l1.7-0.6c0.2,0.6,0.4,0.9,0.7,1.1c0.3,0.2,0.7,0.2,1.1,0.2c0.6,0,1-0.1,1.3-0.4
			c0.3-0.3,0.4-0.6,0.4-0.9c0-0.4-0.2-0.7-0.5-0.9c-0.3-0.2-0.8-0.4-1.4-0.4h-0.4v-1.4h0.2c0.6,0,1-0.1,1.3-0.4
			c0.3-0.3,0.5-0.6,0.5-1c0-0.3-0.1-0.6-0.4-0.9c-0.2-0.2-0.6-0.4-1.1-0.4C73.3,19.5,72.8,19.9,72.6,20.7z"/>
		<path d="M79.4,27.5v-9.4h2.8l1.7,6.4l1.7-6.4h2.8v9.4h-1.8v-7.4l-1.9,7.4H83l-1.9-7.4v7.4H79.4z"/>
		<path d="M89.4,18.1h2.1l2.2,4.9l1.9-4.9h2l-3.2,7.1C94,26,93.7,26.6,93.3,27c-0.4,0.4-0.8,0.6-1.4,0.6c-0.6,0-1,0-1.3-0.1v-1.4
			c0.3,0,0.5,0,0.7,0c0.4,0,0.8-0.1,0.9-0.2c0.2-0.2,0.4-0.5,0.5-1L89.4,18.1z"/>
		<path d="M98.5,27.5v-9.4h1.9v3.7h3.7v-3.7h1.9v9.4h-1.9v-4.1h-3.7v4.1H98.5z"/>
		<path d="M116.4,27.5h-2.1l-0.8-2.1h-3.7l-0.8,2.1h-2l3.7-9.4h2L116.4,27.5z M112.9,23.8l-1.3-3.5l-1.3,3.5H112.9z"/>
		<path d="M117.5,18.1h1.8v6.2l3.8-6.2h1.9v9.4h-1.8v-6.1l-3.8,6.1h-1.9V18.1z M122.3,15.8h0.9c-0.1,0.6-0.3,1-0.6,1.4
			c-0.4,0.3-0.8,0.5-1.4,0.5c-0.6,0-1-0.2-1.4-0.5c-0.4-0.3-0.6-0.8-0.6-1.4h0.9c0,0.3,0.1,0.5,0.3,0.7c0.2,0.2,0.5,0.2,0.8,0.2
			c0.3,0,0.6-0.1,0.8-0.2C122.2,16.3,122.3,16.1,122.3,15.8z"/>
		<path d="M126.9,18.1h6.4v1.6h-4.5v7.8h-1.9V18.1z"/>
		<path d="M141.9,27.5h-2.1l-0.8-2.1h-3.7l-0.8,2.1h-2l3.7-9.4h2L141.9,27.5z M138.4,23.8l-1.3-3.5l-1.3,3.5H138.4z"/>
		<path d="M144.3,20.7l-1.8-0.4c0.4-1.5,1.5-2.3,3.4-2.3c1.1,0,1.9,0.2,2.5,0.7c0.6,0.5,0.8,1.1,0.8,1.7c0,0.4-0.1,0.9-0.4,1.2
			c-0.3,0.4-0.6,0.7-1.2,0.9c0.6,0.2,1.1,0.5,1.4,0.9c0.3,0.4,0.5,0.9,0.5,1.4c0,0.8-0.3,1.5-0.9,2c-0.6,0.5-1.5,0.8-2.7,0.8
			c-1,0-1.8-0.2-2.3-0.5c-0.6-0.3-1-0.9-1.3-1.8l1.7-0.6c0.2,0.6,0.4,0.9,0.7,1.1c0.3,0.2,0.7,0.2,1.1,0.2c0.6,0,1-0.1,1.3-0.4
			c0.3-0.3,0.4-0.6,0.4-0.9c0-0.4-0.2-0.7-0.5-0.9c-0.3-0.2-0.8-0.4-1.4-0.4h-0.4v-1.4h0.2c0.6,0,1-0.1,1.3-0.4
			c0.3-0.3,0.5-0.6,0.5-1c0-0.3-0.1-0.6-0.4-0.9c-0.2-0.2-0.6-0.4-1.1-0.4C145,19.5,144.5,19.9,144.3,20.7z"/>
	</g>
	<g>
		<path d="M35.8,35.4h1.8v6.2l3.8-6.2h1.9v9.4h-1.8v-6.1l-3.8,6.1h-1.9V35.4z"/>
		<path d="M48.8,44.8v-9.4h1.9v3.7h3.7v-3.7h1.9v9.4h-1.9v-4.1h-3.7v4.1H48.8z"/>
		<path d="M66.7,44.8h-2.1l-0.8-2.1h-3.7l-0.8,2.1h-2l3.7-9.4h2L66.7,44.8z M63.3,41.1L62,37.6l-1.3,3.5H63.3z"/>
		<path d="M77.4,41.3l1.8,0.6c-0.3,1-0.7,1.8-1.4,2.3c-0.7,0.5-1.5,0.7-2.5,0.7c-1.2,0-2.3-0.4-3.1-1.3c-0.8-0.9-1.2-2-1.2-3.5
			c0-1.6,0.4-2.8,1.2-3.6c0.8-0.9,1.9-1.3,3.2-1.3c1.1,0,2.1,0.3,2.8,1c0.4,0.4,0.7,1,1,1.7l-1.9,0.4c-0.1-0.5-0.3-0.9-0.7-1.2
			c-0.4-0.3-0.8-0.4-1.3-0.4c-0.7,0-1.3,0.2-1.7,0.7C73.2,38.1,73,38.9,73,40c0,1.2,0.2,2,0.6,2.5c0.4,0.5,1,0.8,1.7,0.8
			c0.5,0,0.9-0.2,1.3-0.5S77.2,42,77.4,41.3z"/>
		<path d="M89,44.8h-2.1l-0.8-2.1h-3.7l-0.8,2.1h-2l3.7-9.4h2L89,44.8z M85.5,41.1l-1.3-3.5l-1.3,3.5H85.5z"/>
		<path d="M90,35.4h1.8v6.2l3.8-6.2h1.9v9.4h-1.8v-6.1l-3.8,6.1H90V35.4z M94.9,33.1h0.9c-0.1,0.6-0.3,1-0.6,1.4
			c-0.4,0.3-0.8,0.5-1.4,0.5c-0.6,0-1-0.2-1.4-0.5c-0.4-0.3-0.6-0.8-0.6-1.4h0.9c0,0.3,0.1,0.5,0.3,0.7c0.2,0.2,0.5,0.2,0.8,0.2
			c0.3,0,0.6-0.1,0.8-0.2C94.7,33.6,94.8,33.4,94.9,33.1z"/>
		<path d="M101.5,44.8V37h-2.8v-1.6h7.5V37h-2.8v7.8H101.5z"/>
		<path d="M107.4,44.8v-9.4h7V37h-5.1v2.1h4.7v1.6h-4.7v2.6h5.2v1.6H107.4z"/>
	</g>
	<g>
		<path d="M1.3,64.1V51.6h4c1.5,0,2.5,0.1,3,0.2C9,52,9.6,52.4,10.1,53c0.5,0.6,0.7,1.4,0.7,2.4c0,0.8-0.1,1.4-0.4,1.9
			c-0.3,0.5-0.6,0.9-1.1,1.2c-0.4,0.3-0.9,0.5-1.3,0.6c-0.6,0.1-1.5,0.2-2.6,0.2H3.8v4.7H1.3z M3.8,53.7v3.5h1.4c1,0,1.7-0.1,2-0.2
			c0.3-0.1,0.6-0.3,0.8-0.6c0.2-0.3,0.3-0.6,0.3-1c0-0.5-0.1-0.8-0.4-1.1c-0.3-0.3-0.6-0.5-1-0.6c-0.3-0.1-0.9-0.1-1.8-0.1H3.8z"/>
		<path d="M12.9,64.1V51.6h9.3v2.1h-6.7v2.8h6.3v2.1h-6.3V62h7v2.1H12.9z"/>
		<path d="M27.4,64.1V53.7h-3.7v-2.1h9.9v2.1h-3.7v10.4H27.4z"/>
		<path d="M35.2,64.1V51.6h5.3c1.3,0,2.3,0.1,2.9,0.3c0.6,0.2,1.1,0.6,1.5,1.2c0.4,0.6,0.5,1.2,0.5,2c0,0.9-0.3,1.7-0.8,2.3
			c-0.6,0.6-1.4,1-2.5,1.2c0.5,0.3,1,0.7,1.4,1c0.4,0.4,0.8,1.1,1.4,2l1.5,2.4h-3l-1.8-2.7c-0.6-1-1.1-1.6-1.3-1.8s-0.5-0.4-0.8-0.5
			c-0.3-0.1-0.7-0.1-1.3-0.1h-0.5v5.2H35.2z M37.8,56.9h1.9c1.2,0,2-0.1,2.3-0.2c0.3-0.1,0.5-0.3,0.7-0.5c0.2-0.3,0.3-0.6,0.3-0.9
			c0-0.4-0.1-0.8-0.3-1c-0.2-0.3-0.5-0.4-1-0.5c-0.2,0-0.8,0-1.8,0h-2V56.9z"/>
		<path d="M47.3,57.9c0-1.3,0.2-2.3,0.6-3.2c0.3-0.6,0.7-1.2,1.2-1.7c0.5-0.5,1-0.9,1.6-1.1c0.8-0.3,1.7-0.5,2.7-0.5
			c1.8,0,3.3,0.6,4.4,1.7c1.1,1.1,1.7,2.7,1.7,4.8c0,2-0.5,3.6-1.6,4.7c-1.1,1.1-2.6,1.7-4.4,1.7c-1.9,0-3.3-0.6-4.4-1.7
			C47.9,61.5,47.3,59.9,47.3,57.9z M49.9,57.8c0,1.4,0.3,2.5,1,3.2c0.7,0.7,1.5,1.1,2.5,1.1s1.8-0.4,2.5-1.1c0.6-0.7,1-1.8,1-3.3
			c0-1.4-0.3-2.5-0.9-3.2c-0.6-0.7-1.5-1.1-2.5-1.1s-1.9,0.4-2.5,1.1C50.2,55.3,49.9,56.4,49.9,57.8z"/>
		<path d="M61.4,64.1V51.6h5.3c1.3,0,2.3,0.1,2.9,0.3c0.6,0.2,1.1,0.6,1.5,1.2c0.4,0.6,0.5,1.2,0.5,2c0,0.9-0.3,1.7-0.8,2.3
			c-0.6,0.6-1.4,1-2.5,1.2c0.5,0.3,1,0.7,1.4,1c0.4,0.4,0.8,1.1,1.4,2l1.5,2.4h-3l-1.8-2.7c-0.6-1-1.1-1.6-1.3-1.8S66,59.1,65.7,59
			c-0.3-0.1-0.7-0.1-1.3-0.1h-0.5v5.2H61.4z M63.9,56.9h1.9c1.2,0,2-0.1,2.3-0.2c0.3-0.1,0.5-0.3,0.7-0.5C69,56,69,55.6,69,55.3
			c0-0.4-0.1-0.8-0.3-1c-0.2-0.3-0.5-0.4-1-0.5c-0.2,0-0.8,0-1.8,0h-2V56.9z"/>
		<path d="M74,64.1V51.6h9.3v2.1h-6.7v2.8h6.3v2.1h-6.3V62h7v2.1H74z"/>
		<path d="M88.5,64.1V53.7h-3.7v-2.1h9.9v2.1H91v10.4H88.5z"/>
		<path d="M106.3,64.1h-2.7l-1.1-2.8h-5l-1,2.8h-2.7l4.9-12.5h2.7L106.3,64.1z M101.7,59.2l-1.7-4.6l-1.7,4.6H101.7z"/>
		<path d="M107.6,64.1V51.6h2.5v12.5H107.6z"/>
		<path d="M112.6,64.1V51.7h2.5V62h6.3v2.1H112.6z"/>
		<path d="M123.1,64.1v-2.4h2.4v2.4H123.1z"/>
		<path d="M128,64.1V51.6h2.5v5.5l5.1-5.5h3.4l-4.7,4.9l5,7.6H136l-3.4-5.9l-2,2.1v3.8H128z"/>
		<path d="M139.5,64.1v-2.3l6.6-8.1h-5.8v-2.1h9.1v2l-6.8,8.4h7.1v2.1H139.5z"/>
		<path d="M0,67.5v-1.8h150v1.8H0z"/>
	</g>
</g>
</svg>
