<?xml version="1.0" encoding="utf-8"?>
<!-- Generator: Adobe Illustrator 19.2.1, SVG Export Plug-In . SVG Version: 6.00 Build 0)  -->
<svg version="1.1" id="Layer_1" xmlns="http://www.w3.org/2000/svg" xmlns:xlink="http://www.w3.org/1999/xlink" x="0px" y="0px"
	 width="282px" height="60px" viewBox="0 0 282 60" style="enable-background:new 0 0 282 60;" xml:space="preserve">
<style type="text/css">
	.st0{fill:#FEC20E;}
</style>
<rect x="0.5" y="29.7" class="st0" width="281.5" height="28.5"/>
<g>
	<path d="M3.9,46.2l2.8-0.3C6.8,46.5,7,47,7.4,47.4S8.3,48,8.8,48c0.6,0,1.1-0.2,1.5-0.7s0.6-1.2,0.6-2.2c0-0.9-0.2-1.6-0.6-2
		c-0.4-0.5-0.9-0.7-1.6-0.7c-0.8,0-1.5,0.4-2.2,1.1l-2.3-0.3l1.5-7.7h7.5v2.7H7.8l-0.4,2.5c0.6-0.3,1.3-0.5,1.9-0.5
		c1.3,0,2.3,0.5,3.2,1.4s1.3,2.1,1.3,3.6c0,1.2-0.4,2.3-1.1,3.3c-1,1.3-2.3,2-4,2c-1.4,0-2.5-0.4-3.3-1.1S4,47.4,3.9,46.2z"/>
	<path d="M20.1,35.1c1.4,0,2.6,0.5,3.4,1.5c1,1.2,1.4,3.2,1.4,6s-0.5,4.8-1.5,6c-0.8,1-1.9,1.5-3.4,1.5c-1.4,0-2.6-0.6-3.5-1.7
		c-0.9-1.1-1.3-3.1-1.3-5.9c0-2.8,0.5-4.8,1.5-6C17.6,35.6,18.7,35.1,20.1,35.1z M20.1,37.5c-0.3,0-0.6,0.1-0.9,0.3
		s-0.5,0.6-0.6,1.2c-0.2,0.7-0.3,2-0.3,3.7s0.1,2.9,0.3,3.6c0.2,0.6,0.4,1.1,0.7,1.3c0.3,0.2,0.6,0.3,0.9,0.3s0.6-0.1,0.9-0.3
		s0.5-0.6,0.6-1.2c0.2-0.7,0.3-2,0.3-3.7s-0.1-2.9-0.3-3.6c-0.2-0.6-0.4-1.1-0.7-1.3S20.4,37.5,20.1,37.5z"/>
	<path d="M33.9,39.3h9.5V50h-2.8v-8.4h-3.9v4.8c0,1.2-0.1,2.1-0.4,2.6c-0.3,0.5-0.6,0.8-0.9,1c-0.3,0.2-0.9,0.2-1.7,0.2
		c-0.5,0-1-0.1-1.8-0.2v-2.1c0.1,0,0.2,0,0.5,0s0.5,0,0.7,0c0.4,0,0.6-0.1,0.7-0.4c0.1-0.3,0.1-1,0.1-2.1
		C33.9,45.4,33.9,39.3,33.9,39.3z"/>
	<path d="M65.4,50h-3.2l-1.3-3.4H55L53.7,50h-3.2l5.8-14.8h3.2L65.4,50z M59.9,44.1l-2-5.5l-2,5.5H59.9z"/>
	<path d="M67,35.2h2.8v9.9l6-9.9h3V50H76v-9.7L70,50h-3V35.2z"/>
	<path d="M81.5,46.1v-2.8h5.6v2.8H81.5z"/>
	<path d="M88.2,46.6l2.7-0.3c0.1,0.6,0.2,1,0.5,1.2c0.3,0.3,0.7,0.4,1.1,0.4c0.6,0,1.1-0.3,1.5-0.8s0.7-1.7,0.8-3.4
		c-0.7,0.8-1.6,1.2-2.7,1.2c-1.2,0-2.2-0.4-3-1.3c-0.8-0.9-1.3-2.1-1.3-3.5c0-1.5,0.4-2.7,1.3-3.6c0.9-0.9,2-1.4,3.4-1.4
		c1.5,0,2.7,0.6,3.7,1.7c1,1.2,1.4,3.1,1.4,5.7c0,2.7-0.5,4.7-1.5,5.9s-2.3,1.8-3.9,1.8c-1.2,0-2.1-0.3-2.8-0.9
		C88.8,48.7,88.4,47.8,88.2,46.6z M94.6,40.4c0-0.9-0.2-1.6-0.6-2.1s-0.9-0.8-1.5-0.8c-0.5,0-1,0.2-1.3,0.6c-0.3,0.4-0.5,1.1-0.5,2
		c0,1,0.2,1.7,0.6,2.1c0.4,0.4,0.8,0.7,1.4,0.7c0.5,0,1-0.2,1.4-0.6C94.4,41.9,94.6,41.2,94.6,40.4z"/>
	<path d="M109.2,47.4V50h-9.9c0.1-1,0.4-1.9,1-2.8c0.5-0.9,1.6-2.1,3.2-3.5c1.3-1.2,2.1-2,2.4-2.4c0.4-0.6,0.6-1.2,0.6-1.7
		c0-0.6-0.2-1.1-0.5-1.5c-0.3-0.3-0.8-0.5-1.4-0.5s-1.1,0.2-1.4,0.5c-0.3,0.4-0.6,0.9-0.6,1.8l-2.8-0.3c0.2-1.6,0.7-2.7,1.6-3.4
		s2-1,3.3-1c1.5,0,2.6,0.4,3.4,1.2s1.3,1.8,1.3,2.9c0,0.7-0.1,1.3-0.4,1.9s-0.6,1.2-1.1,1.9c-0.3,0.4-1,1.1-1.9,1.9
		s-1.5,1.4-1.7,1.6c-0.2,0.3-0.4,0.5-0.6,0.8H109.2z"/>
	<path d="M117.3,39.3h2.8v4.4c0.5-0.1,0.8-0.2,1-0.4s0.4-0.8,0.7-1.5c0.4-1.1,0.8-1.7,1.2-2c0.4-0.3,1-0.4,1.7-0.4
		c0.2,0,0.6,0,1.1,0.1v1.9c-0.7,0-1.2,0.1-1.4,0.2c-0.2,0.1-0.4,0.6-0.7,1.3c-0.3,1-0.8,1.6-1.4,1.8c0.9,0.2,1.7,1,2.3,2.3
		c0,0.1,0.1,0.1,0.1,0.2l1.6,3h-3l-1.4-3.1c-0.3-0.6-0.5-1-0.8-1.2c-0.2-0.2-0.5-0.3-0.9-0.3V50h-2.8L117.3,39.3L117.3,39.3z"/>
	<path d="M129.9,42.6l-2.6-0.5c0.3-1,0.8-1.8,1.5-2.3s1.8-0.7,3.1-0.7s2.2,0.1,2.8,0.4c0.6,0.3,1.1,0.7,1.3,1.1
		c0.3,0.5,0.4,1.3,0.4,2.5v3.3c0,0.9,0,1.6,0.1,2.1c0.1,0.4,0.3,0.9,0.5,1.4h-2.8c-0.1-0.2-0.2-0.5-0.3-0.8c0-0.2-0.1-0.3-0.1-0.3
		c-0.5,0.5-1,0.8-1.6,1.1c-0.6,0.2-1.1,0.4-1.8,0.4c-1.1,0-2-0.3-2.6-0.9c-0.6-0.6-1-1.4-1-2.3c0-0.6,0.1-1.1,0.4-1.6
		s0.7-0.8,1.2-1.1s1.3-0.5,2.3-0.7c1.3-0.2,2.2-0.5,2.8-0.7v-0.3c0-0.5-0.1-0.9-0.4-1.2c-0.3-0.2-0.8-0.3-1.5-0.3
		c-0.5,0-0.9,0.1-1.2,0.3C130.3,41.7,130.1,42.1,129.9,42.6z M133.7,44.9c-0.4,0.1-0.9,0.3-1.7,0.4c-0.8,0.2-1.3,0.3-1.5,0.5
		c-0.4,0.3-0.6,0.6-0.6,1s0.1,0.7,0.4,1c0.3,0.3,0.7,0.4,1.1,0.4c0.5,0,1-0.2,1.5-0.5c0.3-0.3,0.6-0.6,0.7-0.9
		c0.1-0.2,0.1-0.7,0.1-1.4V44.9z"/>
	<path d="M143.7,50v-4.6c-0.4,0-0.6,0.1-0.8,0.2c-0.1,0.1-0.4,0.5-0.8,1.2l-1.4,3.1h-3l1.5-3c0.8-1.5,1.6-2.3,2.4-2.5
		c-0.6-0.2-1.1-0.8-1.4-1.8c-0.2-0.7-0.5-1.2-0.7-1.3s-0.7-0.2-1.4-0.2v-1.9c0.6,0,0.9-0.1,1.2-0.1c0.6,0,1.2,0.1,1.6,0.4
		c0.4,0.3,0.9,1,1.3,2.1c0.3,0.9,0.5,1.4,0.7,1.6c0.2,0.2,0.5,0.3,0.8,0.4v-4.4h2.8v4.4c0.4,0,0.6-0.1,0.8-0.4
		c0.2-0.2,0.4-0.8,0.7-1.6c0.4-1.1,0.8-1.8,1.2-2c0.4-0.3,1-0.4,1.7-0.4c0.2,0,0.6,0,1.1,0.1v1.9c-0.7,0-1.2,0.1-1.4,0.2
		c-0.2,0.1-0.4,0.6-0.7,1.3c-0.3,1-0.8,1.6-1.4,1.8c0.8,0.2,1.6,1.1,2.4,2.5l1.5,3h-3l-1.3-3.1c-0.2-0.6-0.5-0.9-0.7-1.1
		s-0.5-0.3-0.9-0.3V50H143.7z"/>
	<path d="M162.8,50h-8.1v2.8h-2.3v-5.1h1.2c0.5-0.5,0.9-1.4,1.2-2.5s0.5-3.1,0.6-5.9h8.6v8.4h1.2v5.1h-2.3L162.8,50L162.8,50z
		 M161.1,47.7v-6.1h-3.4c-0.1,3-0.6,5-1.4,6.1H161.1z"/>
	<path d="M166,39.3h3l2.6,7.6l2.5-7.6h2.9l-3.8,10.3l-0.7,1.9c-0.2,0.6-0.5,1.1-0.7,1.4c-0.2,0.3-0.5,0.6-0.8,0.8s-0.7,0.4-1.1,0.5
		c-0.4,0.1-0.9,0.2-1.4,0.2s-1.1-0.1-1.6-0.2l-0.3-2.2c0.4,0.1,0.8,0.1,1.2,0.1c0.7,0,1.1-0.2,1.5-0.6c0.3-0.4,0.6-0.9,0.7-1.5
		L166,39.3z"/>
	<path d="M178.8,39.3h2.8v4.3h2.3c0.1-1.4,0.7-2.5,1.6-3.3c0.9-0.8,2.1-1.3,3.6-1.3s2.7,0.5,3.7,1.5s1.4,2.4,1.4,4.2
		c0,1.1-0.2,2-0.5,2.8c-0.4,0.8-0.9,1.5-1.7,2c-0.7,0.5-1.7,0.7-2.9,0.7c-1.7,0-3-0.5-3.8-1.4s-1.3-1.9-1.4-3h-2.3V50h-2.8
		L178.8,39.3L178.8,39.3z M189,41.3c-0.8,0-1.4,0.3-1.7,0.8c-0.4,0.5-0.5,1.3-0.5,2.4c0,1.4,0.2,2.4,0.6,2.9c0.4,0.5,1,0.7,1.8,0.7
		c0.7,0,1.3-0.3,1.6-0.8s0.5-1.4,0.5-2.5c0-1.4-0.2-2.3-0.6-2.7C190.2,41.5,189.7,41.3,189,41.3z"/>
	<path d="M202.1,39.3h2.8v3.9h4.1v-3.9h2.8V50H209v-4.5h-4.1V50h-2.8L202.1,39.3L202.1,39.3z"/>
	<path d="M220.9,46.6l2.8,0.5c-0.4,1-0.9,1.8-1.7,2.4s-1.8,0.8-2.9,0.8c-1.9,0-3.2-0.6-4.1-1.8c-0.7-1-1.1-2.2-1.1-3.7
		c0-1.8,0.5-3.2,1.4-4.2s2.1-1.5,3.5-1.5c1.6,0,2.9,0.5,3.8,1.6c0.9,1.1,1.4,2.7,1.3,4.8h-7.1c0,0.8,0.2,1.5,0.7,2
		c0.4,0.5,1,0.7,1.6,0.7c0.4,0,0.8-0.1,1.1-0.4C220.5,47.5,220.7,47.1,220.9,46.6z M221,43.7c0-0.8-0.2-1.4-0.6-1.9
		c-0.4-0.4-0.9-0.6-1.5-0.6s-1.1,0.2-1.5,0.7s-0.6,1.1-0.6,1.8H221z"/>
	<path d="M235,50h-8.1v2.8h-2.3v-5.1h1.2c0.5-0.5,0.9-1.4,1.2-2.5s0.5-3.1,0.6-5.9h8.6v8.4h1.2v5.1H235V50z M233.4,47.7v-6.1H230
		c-0.1,3-0.6,5-1.4,6.1H233.4z"/>
	<path d="M245.5,46.6l2.8,0.5c-0.4,1-0.9,1.8-1.7,2.4c-0.8,0.5-1.8,0.8-2.9,0.8c-1.9,0-3.2-0.6-4.1-1.8c-0.7-1-1.1-2.2-1.1-3.7
		c0-1.8,0.5-3.2,1.4-4.2s2.1-1.5,3.5-1.5c1.6,0,2.9,0.5,3.8,1.6c0.9,1.1,1.4,2.7,1.3,4.8h-7.1c0,0.8,0.2,1.5,0.7,2
		c0.4,0.5,1,0.7,1.6,0.7c0.4,0,0.8-0.1,1.1-0.4C245.1,47.5,245.3,47.1,245.5,46.6z M245.7,43.7c0-0.8-0.2-1.4-0.6-1.9
		c-0.4-0.4-0.9-0.6-1.5-0.6s-1.1,0.2-1.5,0.7s-0.6,1.1-0.6,1.8H245.7z"/>
	<path d="M251.5,39.3h9.5V50h-2.8v-8.4h-3.9v4.8c0,1.2-0.1,2.1-0.4,2.6c-0.3,0.5-0.6,0.8-0.9,1c-0.3,0.2-0.9,0.2-1.7,0.2
		c-0.5,0-1-0.1-1.8-0.2v-2.1c0.1,0,0.2,0,0.5,0s0.5,0,0.7,0c0.4,0,0.6-0.1,0.7-0.4c0.1-0.3,0.1-1,0.1-2.1L251.5,39.3L251.5,39.3z"/>
	<path d="M263.9,39.3h2.8v4.3h2.3c0.1-1.4,0.7-2.5,1.6-3.3s2.1-1.3,3.6-1.3s2.7,0.5,3.7,1.5s1.4,2.4,1.4,4.2c0,1.1-0.2,2-0.5,2.8
		c-0.4,0.8-0.9,1.5-1.7,2c-0.7,0.5-1.7,0.7-2.9,0.7c-1.7,0-3-0.5-3.8-1.4s-1.3-1.9-1.4-3h-2.3V50h-2.8L263.9,39.3L263.9,39.3z
		 M274.1,41.3c-0.8,0-1.4,0.3-1.7,0.8c-0.4,0.5-0.5,1.3-0.5,2.4c0,1.4,0.2,2.4,0.6,2.9s1,0.7,1.8,0.7c0.7,0,1.3-0.3,1.6-0.8
		c0.4-0.6,0.5-1.4,0.5-2.5c0-1.4-0.2-2.3-0.6-2.7S274.8,41.3,274.1,41.3z"/>
</g>
</svg>
