<?xml version="1.0" encoding="utf-8"?>
<!-- Generator: Adobe Illustrator 19.2.1, SVG Export Plug-In . SVG Version: 6.00 Build 0)  -->
<svg version="1.1" id="Layer_1" xmlns="http://www.w3.org/2000/svg" xmlns:xlink="http://www.w3.org/1999/xlink" x="0px" y="0px"
	 width="216px" height="60px" viewBox="0 0 216 60" style="enable-background:new 0 0 216 60;" xml:space="preserve">
<style type="text/css">
	.st0{fill:#FFFFFF;}
</style>
<g>
	<path class="st0" d="M39.3,6.2h8c1.6,0,2.8,0.1,3.6,0.2s1.5,0.4,2.1,0.8c0.6,0.4,1.1,1,1.5,1.7c0.4,0.7,0.6,1.5,0.6,2.4
		c0,0.9-0.3,1.8-0.8,2.6c-0.5,0.8-1.2,1.4-2.1,1.8c1.2,0.4,2.2,1,2.8,1.8s1,1.9,1,3c0,0.9-0.2,1.8-0.6,2.7c-0.4,0.9-1,1.6-1.7,2.1
		c-0.7,0.5-1.6,0.8-2.7,1c-0.7,0.1-2.3,0.1-4.9,0.1h-6.8V6.2z M43.4,9.6v4.6H46c1.6,0,2.6,0,2.9-0.1c0.7-0.1,1.2-0.3,1.6-0.7
		c0.4-0.4,0.6-0.9,0.6-1.6c0-0.6-0.2-1.1-0.5-1.5c-0.3-0.4-0.9-0.6-1.5-0.7c-0.4,0-1.6-0.1-3.5-0.1H43.4z M43.4,17.6V23h3.8
		c1.5,0,2.4,0,2.8-0.1c0.6-0.1,1.1-0.4,1.5-0.8c0.4-0.4,0.6-1,0.6-1.7c0-0.6-0.1-1.1-0.4-1.5c-0.3-0.4-0.7-0.7-1.3-0.9
		c-0.6-0.2-1.8-0.3-3.6-0.3H43.4z"/>
	<path class="st0" d="M59.7,6.2h4.1v8h5.4c1.4,0,2.7,0.2,3.7,0.6c1,0.4,1.9,1.1,2.6,2.1c0.7,1,1,2.1,1,3.4c0,1.4-0.4,2.5-1.1,3.5
		c-0.7,1-1.5,1.6-2.4,2c-0.9,0.3-2.1,0.5-3.8,0.5h-9.5V6.2z M63.7,23h4c1.3,0,2.1-0.1,2.6-0.2c0.5-0.1,0.9-0.4,1.3-0.8
		c0.4-0.4,0.6-1,0.6-1.6c0-0.9-0.3-1.6-1-2c-0.6-0.4-1.8-0.7-3.4-0.7h-4.1V23z M78.8,6.2h4.1v20.1h-4.1V6.2z"/>
	<path class="st0" d="M87.1,6.2h3.8v13.4l8.1-13.4h4v20.1h-3.8V13.2l-8.1,13.1h-4.1V6.2z"/>
	<path class="st0" d="M107.4,6.2H121v3.4h-9.6v16.7h-4.1V6.2z"/>
	<path class="st0" d="M123.1,26.3V6.2h6.5c2.5,0,4.1,0.1,4.8,0.3c1.2,0.3,2.1,1,2.9,2c0.8,1,1.2,2.3,1.2,3.9c0,1.2-0.2,2.3-0.7,3.1
		c-0.4,0.8-1,1.5-1.7,2c-0.7,0.5-1.4,0.8-2.1,1c-1,0.2-2.4,0.3-4.2,0.3h-2.6v7.6H123.1z M127.2,9.6v5.7h2.2c1.6,0,2.7-0.1,3.2-0.3
		c0.5-0.2,1-0.5,1.3-1c0.3-0.4,0.5-1,0.5-1.6c0-0.7-0.2-1.3-0.6-1.8c-0.4-0.5-1-0.8-1.6-0.9c-0.5-0.1-1.5-0.1-2.9-0.1H127.2z"/>
	<path class="st0" d="M157.5,26.3h-4.4l-1.8-4.6h-8l-1.7,4.6h-4.3l7.8-20.1h4.3L157.5,26.3z M150,18.4l-2.8-7.5l-2.7,7.5H150z"/>
	<path class="st0" d="M159.7,6.2h3.8v13.4l8.1-13.4h4v20.1h-3.8V13.2l-8.1,13.1h-4.1V6.2z M170.1,1.2h1.9c-0.1,1.2-0.5,2.2-1.3,2.9
		c-0.8,0.7-1.8,1.1-3,1.1s-2.2-0.4-3-1.1c-0.8-0.7-1.2-1.7-1.3-2.9h1.9c0.1,0.6,0.3,1.1,0.7,1.5c0.4,0.3,1,0.5,1.7,0.5
		s1.3-0.2,1.7-0.5S170.1,1.9,170.1,1.2z"/>
	<path class="st0" d="M0,58.4V38.3h4.1v7.9H12v-7.9h4.1v20.1H12v-8.8H4.1v8.8H0z"/>
	<path class="st0" d="M19.4,48.5c0-2,0.3-3.8,0.9-5.2c0.5-1,1.1-1.9,1.9-2.8s1.7-1.4,2.6-1.8c1.3-0.5,2.7-0.8,4.3-0.8
		c3,0,5.3,0.9,7.1,2.8c1.8,1.8,2.7,4.4,2.7,7.7c0,3.2-0.9,5.8-2.6,7.6c-1.8,1.8-4.1,2.7-7.1,2.7c-3,0-5.4-0.9-7.1-2.7
		C20.3,54.2,19.4,51.7,19.4,48.5z M23.6,48.4c0,2.3,0.5,4,1.6,5.2c1.1,1.2,2.4,1.8,4,1.8c1.6,0,2.9-0.6,4-1.7c1-1.2,1.6-2.9,1.6-5.2
		c0-2.3-0.5-4-1.5-5.2c-1-1.1-2.4-1.7-4-1.7c-1.7,0-3,0.6-4,1.7C24.1,44.3,23.6,46,23.6,48.4z"/>
	<path class="st0" d="M42.1,38.3h8c1.6,0,2.8,0.1,3.6,0.2c0.8,0.1,1.5,0.4,2.1,0.8c0.6,0.4,1.1,1,1.5,1.7s0.6,1.5,0.6,2.4
		c0,0.9-0.3,1.8-0.8,2.6c-0.5,0.8-1.2,1.4-2.1,1.8c1.2,0.4,2.2,1,2.8,1.8s1,1.9,1,3c0,0.9-0.2,1.8-0.6,2.7c-0.4,0.9-1,1.6-1.7,2.1
		c-0.7,0.5-1.6,0.8-2.7,1c-0.7,0.1-2.3,0.1-4.9,0.1h-6.8V38.3z M46.2,41.7v4.6h2.7c1.6,0,2.6,0,2.9-0.1c0.7-0.1,1.2-0.3,1.6-0.7
		c0.4-0.4,0.6-0.9,0.6-1.6c0-0.6-0.2-1.1-0.5-1.5c-0.3-0.4-0.9-0.6-1.5-0.7c-0.4,0-1.6-0.1-3.5-0.1H46.2z M46.2,49.7V55h3.8
		c1.5,0,2.4,0,2.8-0.1c0.6-0.1,1.1-0.4,1.5-0.8c0.4-0.4,0.6-1,0.6-1.7c0-0.6-0.1-1.1-0.4-1.5c-0.3-0.4-0.7-0.7-1.3-0.9
		c-0.6-0.2-1.8-0.3-3.6-0.3H46.2z"/>
	<path class="st0" d="M62.5,38.3h4.1v8h5.4c1.4,0,2.7,0.2,3.7,0.6c1,0.4,1.9,1.1,2.6,2.1c0.7,1,1,2.1,1,3.4c0,1.4-0.4,2.5-1.1,3.5
		c-0.7,1-1.5,1.6-2.4,2c-0.9,0.3-2.1,0.5-3.8,0.5h-9.5V38.3z M66.5,55h4c1.3,0,2.1-0.1,2.6-0.2c0.5-0.1,0.9-0.4,1.3-0.8
		s0.6-1,0.6-1.6c0-0.9-0.3-1.6-1-2c-0.6-0.4-1.8-0.7-3.4-0.7h-4.1V55z M81.6,38.3h4.1v20.1h-4.1V38.3z"/>
	<path class="st0" d="M89.9,38.3h3.8v13.4l8.1-13.4h4v20.1h-3.8V45.3l-8.1,13.1h-4.1V38.3z M100.3,33.3h1.9
		c-0.1,1.2-0.5,2.2-1.3,2.9c-0.8,0.7-1.8,1.1-3,1.1c-1.2,0-2.2-0.4-3-1.1c-0.8-0.7-1.2-1.7-1.3-2.9h1.9c0.1,0.6,0.3,1.1,0.7,1.5
		s1,0.5,1.7,0.5c0.7,0,1.3-0.2,1.7-0.5C100,34.5,100.2,34,100.3,33.3z"/>
	<path class="st0" d="M117.8,58.4V38.3h6.5c2.5,0,4.1,0.1,4.8,0.3c1.2,0.3,2.1,1,2.9,2c0.8,1,1.2,2.3,1.2,3.9c0,1.2-0.2,2.3-0.7,3.1
		c-0.4,0.8-1,1.5-1.7,2c-0.7,0.5-1.4,0.8-2.1,1c-1,0.2-2.4,0.3-4.2,0.3h-2.6v7.6H117.8z M121.9,41.7v5.7h2.2c1.6,0,2.7-0.1,3.2-0.3
		c0.5-0.2,1-0.5,1.3-1c0.3-0.4,0.5-1,0.5-1.6c0-0.7-0.2-1.3-0.6-1.8c-0.4-0.5-1-0.8-1.6-0.9c-0.5-0.1-1.5-0.1-2.9-0.1H121.9z"/>
	<path class="st0" d="M136.5,58.4V38.3h8.5c2.1,0,3.7,0.2,4.7,0.5c1,0.4,1.8,1,2.3,1.9c0.6,0.9,0.9,2,0.9,3.2c0,1.5-0.4,2.8-1.3,3.7
		c-0.9,1-2.2,1.6-4,1.9c0.9,0.5,1.6,1.1,2.2,1.7c0.6,0.6,1.3,1.7,2.3,3.3l2.5,3.9h-4.9l-2.9-4.4c-1-1.6-1.8-2.5-2.1-3
		c-0.4-0.4-0.8-0.7-1.2-0.8c-0.4-0.2-1.1-0.2-2-0.2h-0.8v8.4H136.5z M140.6,46.8h3c1.9,0,3.2-0.1,3.6-0.2c0.5-0.2,0.9-0.4,1.1-0.8
		c0.3-0.4,0.4-0.9,0.4-1.5c0-0.7-0.2-1.2-0.5-1.6c-0.4-0.4-0.9-0.7-1.5-0.8c-0.3,0-1.3-0.1-3-0.1h-3.2V46.8z"/>
	<path class="st0" d="M174.9,58.4h-4.4l-1.8-4.6h-8l-1.7,4.6h-4.3l7.8-20.1h4.3L174.9,58.4z M167.4,50.5l-2.8-7.5l-2.7,7.5H167.4z"
		/>
	<path class="st0" d="M177,38.3h7.4c1.7,0,2.9,0.1,3.8,0.4c1.2,0.3,2.2,1,3,1.9c0.8,0.9,1.5,2,1.9,3.3c0.4,1.3,0.7,2.9,0.7,4.7
		c0,1.7-0.2,3.1-0.6,4.3c-0.5,1.5-1.2,2.6-2.2,3.5c-0.7,0.7-1.7,1.2-2.9,1.6c-0.9,0.3-2.1,0.4-3.6,0.4H177V38.3z M181.1,41.7V55h3
		c1.1,0,2-0.1,2.5-0.2c0.7-0.2,1.2-0.4,1.6-0.8c0.4-0.4,0.8-1,1.1-1.9c0.3-0.9,0.4-2.1,0.4-3.7c0-1.6-0.1-2.7-0.4-3.6
		c-0.3-0.8-0.7-1.5-1.2-1.9c-0.5-0.5-1.1-0.8-1.9-0.9c-0.6-0.1-1.7-0.2-3.3-0.2H181.1z"/>
	<path class="st0" d="M196.5,48.5c0-2,0.3-3.8,0.9-5.2c0.5-1,1.1-1.9,1.9-2.8c0.8-0.8,1.7-1.4,2.6-1.8c1.3-0.5,2.7-0.8,4.3-0.8
		c3,0,5.3,0.9,7.1,2.8c1.8,1.8,2.7,4.4,2.7,7.7c0,3.2-0.9,5.8-2.6,7.6c-1.8,1.8-4.1,2.7-7.1,2.7c-3,0-5.4-0.9-7.1-2.7
		C197.4,54.2,196.5,51.7,196.5,48.5z M200.7,48.4c0,2.3,0.5,4,1.6,5.2c1.1,1.2,2.4,1.8,4,1.8c1.6,0,2.9-0.6,4-1.7
		c1-1.2,1.6-2.9,1.6-5.2c0-2.3-0.5-4-1.5-5.2c-1-1.1-2.4-1.7-4-1.7c-1.7,0-3,0.6-4,1.7C201.2,44.3,200.7,46,200.7,48.4z"/>
</g>
</svg>
