<?xml version="1.0" encoding="utf-8"?>
<!-- Generator: Adobe Illustrator 19.2.1, SVG Export Plug-In . SVG Version: 6.00 Build 0)  -->
<svg version="1.1" id="Layer_1" xmlns="http://www.w3.org/2000/svg" xmlns:xlink="http://www.w3.org/1999/xlink" x="0px" y="0px"
	 width="282px" height="60px" viewBox="0 0 282 60" style="enable-background:new 0 0 282 60;" xml:space="preserve">
<style type="text/css">
	.st0{fill:#FFFFFF;}
</style>
<g>
	<path class="st0" d="M20.4,20.9v-6.1h-6.1v-4.2h6.1V4.6h4.1v6.1h6.1v4.2h-6.1v6.1H20.4z"/>
	<path class="st0" d="M54,24.3h-4.5V7.4c-1.6,1.5-3.6,2.7-5.8,3.4V6.7c1.2-0.4,2.4-1.1,3.8-2.2c1.4-1.1,2.3-2.3,2.8-3.7H54V24.3z"/>
	<path class="st0" d="M68.3,0.8c2.3,0,4,0.8,5.3,2.4c1.5,1.9,2.3,5.1,2.3,9.5c0,4.4-0.8,7.6-2.3,9.5c-1.3,1.6-3,2.4-5.3,2.4
		c-2.3,0-4.1-0.9-5.5-2.6c-1.4-1.8-2.1-4.9-2.1-9.4c0-4.4,0.8-7.6,2.3-9.5C64.2,1.6,66,0.8,68.3,0.8z M68.3,4.5
		c-0.5,0-1,0.2-1.5,0.5c-0.4,0.3-0.8,1-1,1.9c-0.3,1.2-0.5,3.1-0.5,5.9c0,2.7,0.1,4.6,0.4,5.7c0.3,1,0.6,1.7,1,2.1
		c0.4,0.3,0.9,0.5,1.4,0.5c0.5,0,1-0.2,1.5-0.5c0.4-0.3,0.8-1,1-1.9c0.3-1.1,0.5-3.1,0.5-5.8c0-2.7-0.1-4.6-0.4-5.7
		c-0.3-1-0.6-1.7-1-2.1C69.3,4.7,68.8,4.5,68.3,4.5z"/>
	<path class="st0" d="M86.5,0.8c2.3,0,4,0.8,5.3,2.4c1.5,1.9,2.3,5.1,2.3,9.5c0,4.4-0.8,7.6-2.3,9.5c-1.3,1.6-3,2.4-5.3,2.4
		c-2.3,0-4.1-0.9-5.5-2.6c-1.4-1.8-2.1-4.9-2.1-9.4c0-4.4,0.8-7.6,2.3-9.5C82.4,1.6,84.2,0.8,86.5,0.8z M86.5,4.5
		c-0.5,0-1,0.2-1.5,0.5c-0.4,0.3-0.8,1-1,1.9c-0.3,1.2-0.5,3.1-0.5,5.9c0,2.7,0.1,4.6,0.4,5.7c0.3,1,0.6,1.7,1,2.1
		c0.4,0.3,0.9,0.5,1.4,0.5c0.5,0,1-0.2,1.5-0.5c0.4-0.3,0.8-1,1-1.9c0.3-1.1,0.5-3.1,0.5-5.8c0-2.7-0.1-4.6-0.4-5.7
		c-0.3-1-0.6-1.7-1-2.1C87.5,4.7,87,4.5,86.5,4.5z"/>
	<path class="st0" d="M106.9,7.4H122v17h-4.5V11h-6.1v13.3h-4.5V7.4z"/>
	<path class="st0" d="M126.7,7.4h4.2v2.5c0.5-0.9,1.3-1.5,2.2-2.1c0.9-0.5,2-0.8,3.1-0.8c2,0,3.6,0.8,5,2.3c1.4,1.5,2.1,3.7,2.1,6.4
		c0,2.8-0.7,5-2.1,6.6c-1.4,1.6-3.1,2.4-5,2.4c-0.9,0-1.8-0.2-2.5-0.6c-0.8-0.4-1.6-1-2.4-1.9v8.5h-4.5V7.4z M131.2,15.6
		c0,1.9,0.4,3.3,1.1,4.2c0.8,0.9,1.7,1.4,2.8,1.4c1,0,1.9-0.4,2.6-1.3c0.7-0.8,1-2.2,1-4.1c0-1.8-0.4-3.1-1.1-4
		c-0.7-0.9-1.6-1.3-2.6-1.3c-1.1,0-2,0.4-2.7,1.3C131.5,12.6,131.2,13.9,131.2,15.6z"/>
	<path class="st0" d="M146.7,7.4h4.3V18l6.9-10.6h4.4v17H158V13.5l-7,10.8h-4.3V7.4z"/>
	<path class="st0" d="M171.5,17.4v-2.9c0.8,0,1.3-0.1,1.7-0.2c0.4-0.1,0.7-0.3,1-0.7c0.3-0.4,0.5-0.8,0.5-1.3c0-0.5-0.2-1-0.6-1.5
		c-0.4-0.5-1-0.7-1.7-0.7c-0.6,0-1.1,0.1-1.6,0.4c-0.5,0.3-0.9,0.9-1.3,1.8l-3.8-0.8c0.4-1.5,1.2-2.6,2.5-3.4
		c1.3-0.7,2.7-1.1,4.3-1.1c2,0,3.6,0.5,4.7,1.4c1.1,0.9,1.7,2.1,1.7,3.5c0,0.9-0.2,1.6-0.7,2.2s-1.2,1.1-2.3,1.6
		c1.3,0.3,2.2,0.9,2.8,1.5c0.6,0.7,0.9,1.6,0.9,2.6c0,1.3-0.6,2.5-1.9,3.4c-1.2,1-3,1.4-5.3,1.4c-4,0-6.5-1.6-7.4-4.7l4.1-0.8
		c0.7,1.7,1.8,2.5,3.3,2.5c0.8,0,1.5-0.2,2-0.7c0.5-0.4,0.8-1,0.8-1.6c0-0.7-0.3-1.2-0.8-1.6s-1.2-0.6-2.1-0.6H171.5z"/>
	<path class="st0" d="M181.3,15.6c0-1.5,0.4-2.9,1.1-4.3c0.7-1.4,1.8-2.5,3.1-3.2c1.3-0.7,2.8-1.1,4.5-1.1c2.6,0,4.7,0.8,6.3,2.5
		c1.6,1.7,2.5,3.8,2.5,6.3c0,2.6-0.8,4.7-2.5,6.4c-1.7,1.7-3.7,2.5-6.3,2.5c-1.6,0-3-0.4-4.4-1.1c-1.4-0.7-2.5-1.7-3.2-3.1
		S181.3,17.5,181.3,15.6z M185.9,15.8c0,1.7,0.4,3,1.2,3.9c0.8,0.9,1.8,1.3,3,1.3c1.2,0,2.2-0.4,2.9-1.3s1.2-2.2,1.2-3.9
		c0-1.7-0.4-2.9-1.2-3.8s-1.8-1.3-2.9-1.3c-1.2,0-2.2,0.4-3,1.3C186.3,12.9,185.9,14.2,185.9,15.8z"/>
	<path class="st0" d="M202.4,7.4h9.8c2,0,3.5,0.4,4.5,1.1c1,0.7,1.5,1.8,1.5,3.3c0,0.9-0.3,1.8-0.8,2.5c-0.5,0.7-1.2,1.2-2.1,1.4
		c1.2,0.3,2,0.8,2.6,1.6c0.6,0.8,0.9,1.6,0.9,2.6c0,1.3-0.5,2.4-1.5,3.2c-1,0.8-2.4,1.2-4.3,1.2h-10.7V7.4z M206.9,14.4h2.9
		c1.4,0,2.4-0.2,3-0.5s0.9-0.9,0.9-1.7c0-0.7-0.3-1.2-0.9-1.5s-1.6-0.5-3.1-0.5h-2.9V14.4z M206.9,21.4h3.5c1.3,0,2.2-0.2,2.8-0.5
		s0.9-0.9,0.9-1.7c0-0.8-0.3-1.4-1-1.7c-0.7-0.3-2-0.5-3.9-0.5h-2.3V21.4z"/>
	<path class="st0" d="M231.3,7.4h15.1v17h-4.5V11h-6.1v13.3h-4.5V7.4z"/>
	<path class="st0" d="M250.2,15.6c0-1.5,0.4-2.9,1.1-4.3c0.7-1.4,1.8-2.5,3.1-3.2c1.3-0.7,2.8-1.1,4.5-1.1c2.6,0,4.7,0.8,6.3,2.5
		c1.6,1.7,2.5,3.8,2.5,6.3c0,2.6-0.8,4.7-2.5,6.4c-1.7,1.7-3.7,2.5-6.3,2.5c-1.6,0-3-0.4-4.4-1.1c-1.4-0.7-2.5-1.7-3.2-3.1
		S250.2,17.5,250.2,15.6z M254.8,15.8c0,1.7,0.4,3,1.2,3.9c0.8,0.9,1.8,1.3,3,1.3c1.2,0,2.2-0.4,2.9-1.3s1.2-2.2,1.2-3.9
		c0-1.7-0.4-2.9-1.2-3.8s-1.8-1.3-2.9-1.3c-1.2,0-2.2,0.4-3,1.3C255.2,12.9,254.8,14.2,254.8,15.8z"/>
</g>
</svg>
