<?xml version="1.0" encoding="utf-8"?>
<!-- Generator: Adobe Illustrator 19.2.1, SVG Export Plug-In . SVG Version: 6.00 Build 0)  -->
<svg version="1.1" id="Layer_1" xmlns="http://www.w3.org/2000/svg" xmlns:xlink="http://www.w3.org/1999/xlink" x="0px" y="0px"
	 width="220px" height="98px" viewBox="0 0 220 98" style="enable-background:new 0 0 220 98;" xml:space="preserve">
<style type="text/css">
	.st0{fill:#FFFFFF;}
</style>
<g>
	<g>
		<path class="st0" d="M30.3,17.3l-3.8-1c0.8-3.1,3.1-4.8,7.1-4.8c2.3,0,4.1,0.5,5.2,1.5c1.2,1,1.8,2.2,1.8,3.6c0,1-0.3,1.8-0.8,2.6
			s-1.4,1.4-2.5,2.1c1.4,0.4,2.3,1.1,2.9,1.9c0.7,0.8,1,1.8,1,3c0,1.8-0.7,3.1-1.9,4.2c-1.2,1.1-3.1,1.6-5.7,1.6
			c-2.1,0-3.7-0.4-4.9-1.1c-1.2-0.7-1.9-2.1-2.5-4l3.7-1.2c0.4,1.2,0.8,1.9,1.5,2.3c0.7,0.4,1.4,0.5,2.3,0.5c1.2,0,2.2-0.3,2.7-0.8
			s0.8-1.1,0.8-1.9c0-0.8-0.3-1.5-1-1.9c-0.7-0.5-1.6-0.7-2.9-0.7h-1.1v-3h0.4c1.2,0,2.2-0.3,2.7-0.8c0.7-0.5,1-1.2,1-2.2
			c0-0.7-0.3-1.4-0.8-1.8c-0.3-0.5-1.1-0.7-2.1-0.7C31.8,14.9,30.7,15.7,30.3,17.3z"/>
		<path class="st0" d="M62.5,31.6h-4.4L56.3,27h-7.8l-1.6,4.5h-4.2l7.7-19.7h4.2L62.5,31.6z M55.1,23.8l-2.7-7.2l-2.6,7.2H55.1z"/>
		<path class="st0" d="M64.2,11.9h15.6v19.7h-4V15.1h-7.7v16.4h-4C64.2,31.6,64.2,11.9,64.2,11.9z"/>
		<path class="st0" d="M83.9,31.6V11.9h6.4c2.5,0,4,0.1,4.7,0.3c1.1,0.3,2.1,1,2.9,1.9c0.8,1,1.1,2.3,1.1,3.8c0,1.2-0.3,2.2-0.7,3
			s-1,1.5-1.6,1.9c-0.7,0.4-1.4,0.8-2.1,1c-1,0.1-2.3,0.3-4.1,0.3h-2.6v7.4h-4V31.6z M87.9,15.3v5.6h2.2c1.5,0,2.6-0.1,3.1-0.3
			c0.5-0.3,1-0.5,1.2-1c0.3-0.4,0.4-1,0.4-1.5c0-0.7-0.3-1.4-0.7-1.8c-0.4-0.4-1-0.8-1.6-0.8c-0.4-0.1-1.4-0.1-2.9-0.1h-1.8V15.3z"
			/>
		<path class="st0" d="M117.5,31.6h-4.4l-1.6-4.5h-7.8l-1.6,4.5h-4.2l7.7-19.7h4.2L117.5,31.6z M110.2,23.8l-2.7-7.2l-2.6,7.2H110.2
			z"/>
		<path class="st0" d="M119.6,11.9h7.8c1.5,0,2.7,0,3.4,0.1c0.8,0.1,1.5,0.4,2.1,0.8c0.7,0.5,1.2,1.1,1.6,1.8
			c0.4,0.7,0.5,1.5,0.5,2.3c0,1-0.3,1.8-0.7,2.6c-0.5,0.8-1.2,1.4-2.1,1.8c1.2,0.4,2.1,1,2.7,1.8c0.7,0.8,1,1.8,1,3
			c0,1-0.3,1.8-0.7,2.6c-0.4,0.8-1,1.5-1.6,2.1c-0.7,0.5-1.6,0.8-2.6,1c-0.7,0.1-2.2,0.1-4.8,0.1h-6.7V11.9z M123.6,15.1v4.5h2.6
			c1.5,0,2.5,0,2.9,0c0.7-0.1,1.2-0.3,1.6-0.7c0.4-0.4,0.5-1,0.5-1.5c0-0.5-0.1-1.1-0.5-1.5c-0.3-0.4-0.8-0.5-1.5-0.7
			c-0.4,0-1.5,0-3.4,0h-2.2V15.1z M123.6,22.9v5.2h3.7c1.4,0,2.3,0,2.7-0.1c0.5-0.1,1.1-0.4,1.5-0.8c0.4-0.4,0.5-1,0.5-1.6
			c0-0.5-0.1-1.1-0.4-1.5c-0.3-0.4-0.7-0.7-1.2-1c-0.7,0-1.8-0.1-3.7-0.1H123.6z"/>
		<path class="st0" d="M139.5,11.9h4v7.8h5.3c2.5,0,4.4,0.5,5.5,1.8c1.1,1.2,1.6,2.6,1.6,4.2c0,1.4-0.3,2.5-1,3.4
			c-0.7,1-1.5,1.6-2.3,1.9c-0.8,0.3-2.2,0.5-3.8,0.5h-9.3V11.9z M143.4,28.3h3.8c1.2,0,2.1,0,2.6-0.1c0.5-0.1,1-0.4,1.2-0.8
			c0.4-0.4,0.5-1,0.5-1.6c0-1-0.3-1.5-1-2.1c-0.7-0.4-1.8-0.7-3.3-0.7h-4.1v5.3H143.4z"/>
		<path class="st0" d="M171.1,24.3l3.8,1.2c-0.5,2.2-1.5,3.7-3,4.8c-1.4,1.1-3.1,1.5-5.2,1.5c-2.6,0-4.8-1-6.4-2.7
			c-1.6-1.8-2.5-4.2-2.5-7.2c0-3.3,0.8-5.7,2.6-7.7c1.6-1.8,4-2.7,6.7-2.7c2.5,0,4.4,0.7,5.9,2.2c1,0.8,1.5,2.1,2.1,3.6l-4,1
			c-0.3-1-0.7-1.8-1.5-2.5c-0.7-0.5-1.6-0.8-2.7-0.8c-1.5,0-2.6,0.5-3.6,1.5c-1,1.1-1.4,2.7-1.4,5.1c0,2.5,0.4,4.2,1.4,5.3
			c1,1.1,2.1,1.6,3.4,1.6c1.1,0,1.9-0.3,2.7-1C170.3,26.9,170.8,25.8,171.1,24.3z"/>
		<path class="st0" d="M190.1,31.6v-8.2h-0.8c-1.2,0-2.2,0.1-2.6,0.5c-0.5,0.4-1.4,1.5-2.6,3.4l-2.9,4.2h-4.8l2.5-3.8
			c1-1.5,1.6-2.6,2.3-3.1c0.5-0.5,1.2-1.1,2.1-1.6c-1.8-0.3-3.1-1-4-1.9c-1-1-1.4-2.2-1.4-3.6c0-1.2,0.3-2.3,1-3.1
			c0.7-0.8,1.4-1.5,2.3-1.9c1-0.3,2.5-0.4,4.4-0.4h8.3v19.7h-3.8V31.6z M190.1,15.3h-3.1c-1.6,0-2.6,0-3.1,0.1
			c-0.5,0.1-1,0.3-1.2,0.7c-0.4,0.4-0.5,1-0.5,1.6c0,0.7,0.1,1.2,0.5,1.6s0.8,0.7,1.4,0.8c0.5,0.1,1.6,0.1,3.3,0.1h2.9
			C190.1,20.3,190.1,15.3,190.1,15.3z"/>
	</g>
	<g>
		<g>
			<path class="st0" d="M0,41.9h11.3v14.3H8.4V44.3H2.9v11.9H0V41.9z"/>
			<path class="st0" d="M13.7,49.2c0-1.5,0.2-2.7,0.7-3.7c0.3-0.7,0.8-1.4,1.3-2c0.6-0.6,1.2-1,1.9-1.3c0.9-0.4,1.9-0.6,3.1-0.6
				c2.1,0,3.8,0.7,5.1,2c1.3,1.3,1.9,3.1,1.9,5.5c0,2.3-0.6,4.1-1.9,5.4c-1.3,1.3-2.9,2-5.1,2c-2.1,0-3.8-0.7-5.1-2
				C14.4,53.3,13.7,51.5,13.7,49.2z M16.7,49.1c0,1.6,0.4,2.9,1.1,3.7c0.8,0.8,1.7,1.3,2.9,1.3s2.1-0.4,2.8-1.2
				c0.7-0.8,1.1-2.1,1.1-3.7c0-1.6-0.4-2.9-1.1-3.7c-0.7-0.8-1.7-1.2-2.9-1.2c-1.2,0-2.2,0.4-2.9,1.2C17.1,46.2,16.7,47.5,16.7,49.1
				z"/>
			<path class="st0" d="M35.5,41.9h10.6v2.4h-7.7v3.3h3.9c1.1,0,2,0.1,2.7,0.4s1.3,0.7,1.8,1.5c0.5,0.7,0.8,1.5,0.8,2.5
				c0,1-0.3,1.8-0.8,2.5s-1.1,1.2-1.7,1.4s-1.6,0.4-2.7,0.4h-6.9V41.9z M38.3,53.9h2.8c0.9,0,1.5,0,1.9-0.1c0.4-0.1,0.7-0.3,1-0.6
				c0.3-0.3,0.4-0.7,0.4-1.2c0-0.7-0.2-1.2-0.7-1.5S42.4,50,41.3,50h-2.9L38.3,53.9L38.3,53.9z"/>
			<path class="st0" d="M49.2,49.2c0-1.5,0.2-2.7,0.7-3.7c0.3-0.7,0.8-1.4,1.3-2c0.6-0.6,1.2-1,1.9-1.3c0.9-0.4,1.9-0.6,3.1-0.6
				c2.1,0,3.8,0.7,5.1,2c1.3,1.3,1.9,3.1,1.9,5.5c0,2.3-0.6,4.1-1.9,5.4c-1.3,1.3-2.9,2-5.1,2c-2.1,0-3.8-0.7-5.1-2
				C49.8,53.3,49.2,51.5,49.2,49.2z M52.1,49.1c0,1.6,0.4,2.9,1.1,3.7c0.8,0.8,1.7,1.3,2.9,1.3c1.2,0,2.1-0.4,2.8-1.2
				c0.7-0.8,1.1-2.1,1.1-3.7c0-1.6-0.4-2.9-1.1-3.7c-0.7-0.8-1.7-1.2-2.9-1.2c-1.2,0-2.2,0.4-2.9,1.2C52.5,46.2,52.1,47.5,52.1,49.1
				z"/>
			<path class="st0" d="M65.3,56.2V41.9h2.9v5.7h5.7v-5.7h2.9v14.3h-2.9V50h-5.7v6.3H65.3z"/>
			<path class="st0" d="M78.2,41.9h3.2l3.4,7.5l2.9-7.5h3l-4.9,10.8c-0.5,1.2-1.1,2.1-1.6,2.7s-1.3,0.9-2.1,0.9
				c-0.9,0-1.5-0.1-2-0.2V54c0.4,0,0.8,0,1.1,0c0.7,0,1.2-0.1,1.4-0.4c0.3-0.2,0.6-0.8,0.8-1.6L78.2,41.9z"/>
			<path class="st0" d="M101.1,51l2.8,0.9c-0.4,1.6-1.1,2.7-2.2,3.5c-1,0.8-2.3,1.1-3.8,1.1c-1.9,0-3.5-0.7-4.7-2s-1.8-3.1-1.8-5.3
				c0-2.4,0.6-4.2,1.9-5.6c1.2-1.3,2.9-2,4.9-2c1.8,0,3.2,0.5,4.3,1.6c0.7,0.6,1.1,1.5,1.5,2.6l-3,0.8c-0.2-0.7-0.5-1.3-1.1-1.8
				c-0.5-0.4-1.2-0.6-2-0.6c-1.1,0-1.9,0.4-2.6,1.1c-0.7,0.8-1,2-1,3.7c0,1.8,0.3,3.1,1,3.9c0.7,0.8,1.5,1.2,2.5,1.2
				c0.8,0,1.4-0.2,2-0.7C100.5,52.9,100.9,52.1,101.1,51z"/>
			<path class="st0" d="M106.4,56.2V41.9h2.9v5.7h5.7v-5.7h2.9v14.3h-2.9V50h-5.7v6.3H106.4z"/>
			<path class="st0" d="M120.2,49.2c0-1.5,0.2-2.7,0.7-3.7c0.3-0.7,0.8-1.4,1.3-2c0.6-0.6,1.2-1,1.9-1.3c0.9-0.4,1.9-0.6,3.1-0.6
				c2.1,0,3.8,0.7,5.1,2c1.3,1.3,1.9,3.1,1.9,5.5c0,2.3-0.6,4.1-1.9,5.4c-1.3,1.3-2.9,2-5.1,2c-2.1,0-3.8-0.7-5.1-2
				C120.9,53.3,120.2,51.5,120.2,49.2z M123.2,49.1c0,1.6,0.4,2.9,1.1,3.7c0.8,0.8,1.7,1.3,2.9,1.3c1.2,0,2.1-0.4,2.8-1.2
				c0.7-0.8,1.1-2.1,1.1-3.7c0-1.6-0.4-2.9-1.1-3.7c-0.7-0.8-1.7-1.2-2.9-1.2c-1.2,0-2.2,0.4-2.9,1.2
				C123.6,46.2,123.2,47.5,123.2,49.1z"/>
			<path class="st0" d="M136.4,41.9h2.7v9.5l5.8-9.5h2.9v14.3H145v-9.3l-5.8,9.3h-2.9V41.9z M143.7,38.5h1.3
				c-0.1,0.9-0.4,1.6-0.9,2.1s-1.3,0.8-2.1,0.8c-0.9,0-1.6-0.3-2.1-0.8s-0.9-1.2-0.9-2.1h1.3c0,0.5,0.2,0.8,0.5,1.1
				c0.3,0.2,0.7,0.4,1.2,0.4s0.9-0.1,1.2-0.4C143.6,39.3,143.7,38.9,143.7,38.5z"/>
		</g>
		<g>
			<path class="st0" d="M157,42h2.9v6.1c0.6-0.1,1.1-0.2,1.3-0.5c0.2-0.3,0.6-1,1.1-2.2c0.6-1.6,1.2-2.5,1.8-2.9
				c0.6-0.4,1.6-0.6,2.9-0.6c0.1,0,0.2,0,0.4,0V44H167c-0.6,0-1,0.1-1.3,0.2c-0.3,0.1-0.5,0.4-0.7,0.7c-0.2,0.3-0.4,0.9-0.8,1.9
				c-0.2,0.5-0.4,0.9-0.6,1.2c-0.2,0.3-0.6,0.6-1.1,0.9c0.6,0.2,1.2,0.6,1.6,1.1c0.4,0.6,0.9,1.3,1.4,2.4l2,3.9h-3.4l-1.7-3.7
				c0-0.1-0.1-0.2-0.2-0.3c0-0.1-0.2-0.3-0.4-0.7c-0.4-0.7-0.7-1.1-0.9-1.3c-0.2-0.2-0.6-0.3-1.1-0.3v6.3h-2.9L157,42L157,42z"/>
			<path class="st0" d="M182.2,56.3H179l-1.3-3.3H172l-1.2,3.3h-3.1l5.7-14.4h3.1L182.2,56.3z M176.8,50.7l-2-5.3l-1.9,5.3H176.8z"
				/>
			<path class="st0" d="M183.7,56.3V42h4.7c1.8,0,2.9,0.1,3.4,0.2c0.8,0.2,1.5,0.7,2.1,1.4c0.6,0.7,0.8,1.7,0.8,2.8
				c0,0.9-0.2,1.6-0.5,2.2c-0.3,0.6-0.7,1.1-1.2,1.4s-1,0.6-1.5,0.7c-0.7,0.1-1.7,0.2-3,0.2h-1.9v5.4L183.7,56.3L183.7,56.3z
				 M186.6,44.5v4.1h1.6c1.1,0,1.9-0.1,2.3-0.2c0.4-0.1,0.7-0.4,0.9-0.7c0.2-0.3,0.3-0.7,0.3-1.1c0-0.5-0.2-1-0.5-1.3
				c-0.3-0.3-0.7-0.6-1.2-0.6c-0.3-0.1-1-0.1-2.1-0.1L186.6,44.5L186.6,44.5z"/>
			<path class="st0" d="M200.1,56.3V44.5h-4.3V42h11.4v2.4h-4.3v11.9L200.1,56.3L200.1,56.3z"/>
			<path class="st0" d="M209.1,56.3V42h10.7v2.4H212v3.2h7.2V50H212v4h8v2.4H209.1z"/>
		</g>
	</g>
	<g>
		<path class="st0" d="M25.7,67.7h3.5v12.4l7.5-12.4h3.7v18.6h-3.5V74.2l-7.5,12.1h-3.7V67.7z"/>
		<path class="st0" d="M49.5,67.7h4.1l4.4,9.7l3.7-9.7h3.9l-6.3,14.1c-0.6,1.5-1.4,2.7-2.1,3.5c-0.6,0.8-1.7,1.2-2.7,1.2
			c-1.2,0-1.9-0.1-2.6-0.3v-2.8c0.5,0,1,0,1.4,0c0.9,0,1.5-0.1,1.8-0.5c0.4-0.3,0.8-1,1-2.1L49.5,67.7z"/>
		<path class="st0" d="M67.2,67.7h3.7v4.4c0,1.4,0,2.3,0.1,2.8c0.1,0.5,0.4,0.9,0.9,1.2c0.5,0.4,1.3,0.5,2.3,0.5
			c0.8,0,1.5-0.1,2.2-0.3c0.6-0.1,1.2-0.4,1.7-0.8v-7.9h3.7v18.6h-3.7v-7.5c-0.8,0.4-1.5,0.6-2.2,0.8c-0.8,0.1-1.4,0.3-2.2,0.3
			c-1.8,0-3.4-0.4-4.6-1.3s-1.8-2.3-1.8-4.5v-6.3H67.2z"/>
		<path class="st0" d="M102.4,86.3h-4.1L96.6,82h-7.4l-1.5,4.3h-4l7.2-18.6h4L102.4,86.3z M95.6,78.9L93,72.1l-2.5,6.8H95.6z"/>
		<path class="st0" d="M115.5,79.5l3.6,1.2c-0.5,2.1-1.4,3.5-2.8,4.5c-1.3,1-3,1.4-4.9,1.4c-2.5,0-4.5-0.9-6.1-2.6
			c-1.5-1.7-2.3-4-2.3-6.8c0-3.1,0.8-5.4,2.5-7.2c1.5-1.7,3.7-2.6,6.3-2.6c2.3,0,4.1,0.6,5.5,2.1c0.9,0.8,1.4,1.9,1.9,3.4l-3.7,0.9
			c-0.3-0.9-0.6-1.7-1.4-2.3c-0.6-0.5-1.5-0.8-2.6-0.8c-1.4,0-2.5,0.5-3.4,1.4c-0.9,1-1.3,2.6-1.3,4.8c0,2.3,0.4,4,1.3,5
			s1.9,1.5,3.2,1.5c1,0,1.8-0.3,2.6-0.9C114.8,81.8,115.3,80.9,115.5,79.5z"/>
		<path class="st0" d="M126,86.3V70.9h-5.5v-3.2h14.7v3.1h-5.5v15.3H126V86.3z"/>
		<path class="st0" d="M137.6,67.7h7.4c1.4,0,2.6,0,3.2,0.1c0.8,0.1,1.4,0.4,1.9,0.8c0.5,0.4,1,0.9,1.4,1.5c0.4,0.6,0.5,1.4,0.5,2.2
			c0,0.9-0.3,1.7-0.6,2.5c-0.5,0.8-1.2,1.3-1.9,1.7c1.2,0.4,1.9,0.9,2.6,1.7c0.6,0.8,0.9,1.7,0.9,2.8c0,0.9-0.3,1.7-0.6,2.5
			c-0.4,0.8-0.9,1.4-1.5,1.9c-0.6,0.5-1.5,0.8-2.5,0.9c-0.6,0.1-2.2,0.1-4.5,0.1h-6.3V67.7H137.6z M141.3,70.8v4.3h2.5
			c1.4,0,2.3,0,2.7,0c0.6-0.1,1.2-0.3,1.5-0.6c0.4-0.4,0.5-0.9,0.5-1.4c0-0.5-0.1-1-0.5-1.4c-0.3-0.4-0.8-0.5-1.4-0.6
			c-0.4,0-1.4,0-3.2,0h-2.1V70.8z M141.3,78.2v5h3.5c1.3,0,2.2,0,2.6-0.1c0.5-0.1,1-0.4,1.4-0.8c0.4-0.4,0.5-0.9,0.5-1.5
			c0-0.5-0.1-1-0.4-1.4c-0.3-0.4-0.6-0.6-1.2-0.9c-0.5-0.1-1.7-0.3-3.4-0.3C144.4,78.2,141.3,78.2,141.3,78.2z"/>
		<path class="st0" d="M153.5,67.7h4.1l4.4,9.7l3.6-9.7h3.9l-6.3,14.1c-0.6,1.5-1.4,2.7-2.1,3.5c-0.6,0.8-1.7,1.2-2.7,1.2
			c-1.2,0-1.9-0.1-2.6-0.3v-2.8c0.5,0,1,0,1.4,0c0.9,0,1.5-0.1,1.8-0.5c0.4-0.3,0.8-1,1-2.1L153.5,67.7z"/>
		<path class="st0" d="M171.5,67.7h3.5v12.4l7.5-12.4h3.7v18.6h-3.5V74.2l-7.5,12.1h-3.7V67.7z M181.1,63.1h1.7
			c-0.1,1.2-0.5,2.1-1.2,2.7s-1.7,1-2.7,1c-1.2,0-2.1-0.4-2.7-1s-1.2-1.5-1.2-2.7h1.7c0,0.6,0.3,1,0.6,1.4c0.4,0.3,0.9,0.5,1.5,0.5
			s1.2-0.1,1.5-0.5C180.8,64.2,181.1,63.7,181.1,63.1z"/>
		<path class="st0" d="M191.4,81.5l-0.9-9.4v-4.4h3.9v4.4l-0.9,9.4H191.4z M190.6,86.3v-3.6h3.6v3.6H190.6z"/>
	</g>
</g>
</svg>
